<?xml version="1.0" encoding="utf-8"?>
<svg viewBox="16.721 184.837 453.1548 120.1982" xmlns="http://www.w3.org/2000/svg">
  <g id="Logo" transform="matrix(0.20000000298023224, 0, 0, 0.20000000298023224, 265.6692199707031, 233.635986328125)">
    <linearGradient id="SVGID_SVGID_1__1" gradientUnits="userSpaceOnUse" gradientTransform="matrix(1 0 0 1 0 0)" x1="134.6856" y1="578.1185" x2="481.5801" y2="113.0678">
      <stop offset="0" style="stop-color:#11156D;stop-opacity: 1"/>
      <stop offset="1" style="stop-color:#48569E;stop-opacity: 1"/>
    </linearGradient>
    <path style="stroke: none; stroke-width: 1; stroke-dasharray: none; stroke-linecap: butt; stroke-dashoffset: 0; stroke-linejoin: miter; stroke-miterlimit: 4; fill: url('#SVGID_SVGID_1__1'); fill-rule: nonzero; opacity: 1; filter: url('#SVGID_437'); paint-order: fill;" transform=" translate(-256.03, -256.02)" d="M 486.2 405.6 L 298.8 81 c -19.9 -30.2 -43.9 -97.7 -78.7 -35.2 L 4.8 418.7 c -13.6 23.6 3.7 73.2 30.6 73.2 L 220 172 l 0 0 c 33.6 -62.5 58.1 1.4 78.8 35.4 l 127.8 221.4 h -25.5 c -25.5 0 -38.4 -6 -51.1 -18.8 l -60.2 -60.2 c -22.7 -22.7 -34.6 -25.8 -50.4 -25.8 h -20.2 c -31.1 0 -37.3 45.4 -56.1 63.1 h 43.7 c 28.7 0 38.2 7.2 56.8 25.8 l 58.7 58.7 c 17.2 17.2 33.7 20.3 63 20.3 H 512 C 512 466.2 512 448.5 486.2 405.6 z" stroke-linecap="round"/>
  </g>
  <path d="M 32.241 233.978 L 32.241 259.338 L 23.041 259.338 L 23.041 204.138 L 32.241 204.138 L 32.241 226.778 L 38.161 226.778 L 53.281 204.138 L 62.801 204.138 L 45.921 229.738 L 64.321 259.338 L 53.681 259.338 L 38.161 233.978 Z M 109.674 231.738 Q 109.674 244.858 104.274 252.618 Q 98.874 260.378 88.714 260.378 Q 78.554 260.378 73.154 252.738 Q 67.754 245.098 67.754 231.818 Q 67.754 218.698 73.154 210.858 Q 78.554 203.018 88.714 203.018 Q 98.874 203.018 104.274 210.738 Q 109.674 218.458 109.674 231.738 Z M 100.154 231.738 Q 100.154 220.858 97.434 215.578 Q 94.714 210.298 88.714 210.298 Q 82.714 210.298 79.994 215.578 Q 77.274 220.858 77.274 231.818 Q 77.274 242.618 80.034 247.898 Q 82.794 253.178 88.714 253.178 Q 94.714 253.178 97.434 247.898 Q 100.154 242.618 100.154 231.738 Z M 157.828 221.498 Q 157.828 230.778 152.068 235.218 Q 146.308 239.658 136.308 239.658 L 129.588 239.658 L 129.588 259.338 L 120.388 259.338 L 120.388 204.138 L 135.668 204.138 Q 146.308 204.138 152.068 208.498 Q 157.828 212.858 157.828 221.498 Z M 148.148 221.498 Q 148.148 211.098 136.308 211.098 L 129.588 211.098 L 129.588 232.618 L 136.388 232.618 Q 141.988 232.618 145.068 230.058 Q 148.148 227.498 148.148 221.498 Z M 189.349 203.018 Q 194.789 203.018 198.629 204.378 Q 202.469 205.738 205.989 208.618 L 201.189 214.378 Q 196.149 210.298 189.749 210.298 Q 183.029 210.298 178.789 215.458 Q 174.549 220.618 174.549 231.658 Q 174.549 242.538 178.709 247.698 Q 182.869 252.858 189.829 252.858 Q 193.829 252.858 196.669 251.618 Q 199.509 250.378 202.309 248.138 L 206.789 253.818 Q 200.069 260.378 189.509 260.378 Q 182.389 260.378 176.789 257.058 Q 171.189 253.738 168.029 247.258 Q 164.869 240.778 164.869 231.658 Q 164.869 222.698 168.109 216.218 Q 171.349 209.738 176.949 206.378 Q 182.549 203.018 189.349 203.018 Z M 341.405 233.978 L 341.405 259.338 L 332.205 259.338 L 332.205 204.138 L 341.405 204.138 L 341.405 226.778 L 347.325 226.778 L 362.445 204.138 L 371.965 204.138 L 355.085 229.738 L 373.485 259.338 L 362.845 259.338 L 347.325 233.978 Z M 418.838 231.738 Q 418.838 244.858 413.438 252.618 Q 408.038 260.378 397.878 260.378 Q 387.718 260.378 382.318 252.738 Q 376.918 245.098 376.918 231.818 Q 376.918 218.698 382.318 210.858 Q 387.718 203.018 397.878 203.018 Q 408.038 203.018 413.438 210.738 Q 418.838 218.458 418.838 231.738 Z M 409.318 231.738 Q 409.318 220.858 406.598 215.578 Q 403.878 210.298 397.878 210.298 Q 391.878 210.298 389.158 215.578 Q 386.438 220.858 386.438 231.818 Q 386.438 242.618 389.198 247.898 Q 391.958 253.178 397.878 253.178 Q 403.878 253.178 406.598 247.898 Q 409.318 242.618 409.318 231.738 Z M 466.031 243.418 Q 466.031 251.978 459.951 255.658 Q 453.871 259.338 444.511 259.338 L 428.351 259.338 L 428.351 204.138 L 443.471 204.138 Q 452.271 204.138 457.951 207.378 Q 463.631 210.618 463.631 218.138 Q 463.631 222.938 460.711 226.018 Q 457.791 229.098 453.391 230.058 Q 458.831 231.018 462.431 234.098 Q 466.031 237.178 466.031 243.418 Z M 454.191 218.858 Q 454.191 214.778 451.671 212.938 Q 449.151 211.098 444.271 211.098 L 437.631 211.098 L 437.631 227.018 L 444.831 227.018 Q 449.551 227.018 451.871 225.058 Q 454.191 223.098 454.191 218.858 Z M 456.351 243.418 Q 456.351 238.218 453.471 236.098 Q 450.591 233.978 445.471 233.978 L 437.631 233.978 L 437.631 252.138 L 445.151 252.138 Q 456.351 252.138 456.351 243.418 Z"/>
  <path d="M 183.936 285.455 Q 185.296 285.455 186.256 285.795 Q 187.216 286.135 188.096 286.855 L 186.896 288.295 Q 185.636 287.275 184.036 287.275 Q 182.356 287.275 181.296 288.565 Q 180.236 289.855 180.236 292.615 Q 180.236 295.335 181.276 296.625 Q 182.316 297.915 184.056 297.915 Q 185.056 297.915 185.766 297.605 Q 186.476 297.295 187.176 296.735 L 188.296 298.155 Q 186.616 299.795 183.976 299.795 Q 182.196 299.795 180.796 298.965 Q 179.396 298.135 178.606 296.515 Q 177.816 294.895 177.816 292.615 Q 177.816 290.375 178.626 288.755 Q 179.436 287.135 180.836 286.295 Q 182.236 285.455 183.936 285.455 Z M 196.748 295.015 L 192.788 295.015 L 192.788 299.535 L 190.548 299.535 L 190.548 288.975 L 192.788 288.975 L 192.788 293.275 L 196.748 293.275 L 196.748 288.975 L 198.988 288.975 L 198.988 299.535 L 196.748 299.535 Z M 206.781 288.695 Q 209.061 288.695 210.301 290.185 Q 211.541 291.675 211.541 294.235 Q 211.541 296.795 210.281 298.295 Q 209.021 299.795 206.761 299.795 Q 204.481 299.795 203.231 298.325 Q 201.981 296.855 201.981 294.255 Q 201.981 291.735 203.251 290.215 Q 204.521 288.695 206.781 288.695 Z M 206.781 290.435 Q 205.561 290.435 204.951 291.375 Q 204.341 292.315 204.341 294.255 Q 204.341 296.215 204.941 297.145 Q 205.541 298.075 206.761 298.075 Q 207.981 298.075 208.581 297.135 Q 209.181 296.195 209.181 294.235 Q 209.181 292.295 208.581 291.365 Q 207.981 290.435 206.781 290.435 Z M 220.921 293.775 Q 223.601 294.075 223.601 296.395 Q 223.601 297.975 222.291 298.755 Q 220.981 299.535 218.961 299.535 L 214.741 299.535 L 214.741 289.095 Q 216.841 288.695 218.621 288.695 Q 220.661 288.695 221.871 289.425 Q 223.081 290.155 223.081 291.475 Q 223.081 292.355 222.561 292.925 Q 222.041 293.495 220.921 293.775 Z M 218.621 290.295 Q 217.761 290.295 216.981 290.415 L 216.981 293.215 L 218.841 293.215 Q 219.821 293.215 220.331 292.865 Q 220.841 292.515 220.841 291.735 Q 220.841 290.975 220.301 290.635 Q 219.761 290.295 218.621 290.295 Z M 218.721 297.895 Q 219.901 297.895 220.591 297.565 Q 221.281 297.235 221.281 296.295 Q 221.281 294.655 218.981 294.655 L 216.981 294.655 L 216.981 297.895 L 218.721 297.895 Z M 234.614 296.955 Q 234.614 297.555 234.794 297.845 Q 234.974 298.135 235.414 298.275 L 234.894 299.795 Q 233.234 299.595 232.714 298.335 Q 232.134 299.055 231.264 299.425 Q 230.394 299.795 229.354 299.795 Q 227.754 299.795 226.814 298.895 Q 225.874 297.995 225.874 296.515 Q 225.874 294.855 227.184 293.955 Q 228.494 293.055 230.894 293.055 L 232.394 293.055 L 232.394 292.375 Q 232.394 291.375 231.794 290.915 Q 231.194 290.455 230.054 290.455 Q 229.494 290.455 228.754 290.595 Q 228.014 290.735 227.254 290.995 L 226.694 289.415 Q 228.594 288.695 230.394 288.695 Q 232.494 288.695 233.554 289.615 Q 234.614 290.535 234.614 292.235 L 234.614 296.955 Z M 230.014 298.155 Q 230.714 298.155 231.364 297.795 Q 232.014 297.435 232.394 296.795 L 232.394 294.455 L 231.154 294.455 Q 229.634 294.455 228.934 294.965 Q 228.234 295.475 228.234 296.435 Q 228.234 297.275 228.684 297.715 Q 229.134 298.155 230.014 298.155 Z M 256.747 290.715 L 252.747 290.715 L 252.747 299.535 L 250.527 299.535 L 250.527 288.975 L 258.967 288.975 L 258.967 299.535 L 256.747 299.535 Z M 266.759 288.695 Q 269.039 288.695 270.279 290.185 Q 271.519 291.675 271.519 294.235 Q 271.519 296.795 270.259 298.295 Q 268.999 299.795 266.739 299.795 Q 264.459 299.795 263.209 298.325 Q 261.959 296.855 261.959 294.255 Q 261.959 291.735 263.229 290.215 Q 264.499 288.695 266.759 288.695 Z M 266.759 290.435 Q 265.539 290.435 264.929 291.375 Q 264.319 292.315 264.319 294.255 Q 264.319 296.215 264.919 297.145 Q 265.519 298.075 266.739 298.075 Q 267.959 298.075 268.559 297.135 Q 269.159 296.195 269.159 294.235 Q 269.159 292.295 268.559 291.365 Q 267.959 290.435 266.759 290.435 Z M 275.119 292.355 L 282.359 292.355 L 282.359 294.195 L 275.119 294.195 Z M 292.712 295.015 L 288.752 295.015 L 288.752 299.535 L 286.512 299.535 L 286.512 288.975 L 288.752 288.975 L 288.752 293.275 L 292.712 293.275 L 292.712 288.975 L 294.952 288.975 L 294.952 299.535 L 292.712 299.535 Z M 306.592 296.955 Q 306.592 297.555 306.772 297.845 Q 306.952 298.135 307.392 298.275 L 306.872 299.795 Q 305.212 299.595 304.692 298.335 Q 304.112 299.055 303.242 299.425 Q 302.372 299.795 301.332 299.795 Q 299.732 299.795 298.792 298.895 Q 297.852 297.995 297.852 296.515 Q 297.852 294.855 299.162 293.955 Q 300.472 293.055 302.872 293.055 L 304.372 293.055 L 304.372 292.375 Q 304.372 291.375 303.772 290.915 Q 303.172 290.455 302.032 290.455 Q 301.472 290.455 300.732 290.595 Q 299.992 290.735 299.232 290.995 L 298.672 289.415 Q 300.572 288.695 302.372 288.695 Q 304.472 288.695 305.532 289.615 Q 306.592 290.535 306.592 292.235 L 306.592 296.955 Z M 301.992 298.155 Q 302.692 298.155 303.342 297.795 Q 303.992 297.435 304.372 296.795 L 304.372 294.455 L 303.132 294.455 Q 301.612 294.455 300.912 294.965 Q 300.212 295.475 300.212 296.435 Q 300.212 297.275 300.662 297.715 Q 301.112 298.155 301.992 298.155 Z M 315.605 297.955 Q 316.865 297.955 318.205 297.055 L 319.225 298.495 Q 318.525 299.095 317.545 299.445 Q 316.565 299.795 315.525 299.795 Q 313.105 299.795 311.745 298.305 Q 310.385 296.815 310.385 294.315 Q 310.385 292.695 311.005 291.425 Q 311.625 290.155 312.795 289.425 Q 313.965 288.695 315.565 288.695 Q 317.665 288.695 319.225 289.975 L 318.185 291.375 Q 316.905 290.495 315.605 290.495 Q 314.285 290.495 313.525 291.445 Q 312.765 292.395 312.765 294.315 Q 312.765 296.195 313.525 297.075 Q 314.285 297.955 315.605 297.955 Z M 331.437 290.715 L 327.837 290.715 L 327.837 299.535 L 325.597 299.535 L 325.597 290.715 L 321.857 290.715 L 321.857 288.975 L 331.697 288.975 Z M 338.737 288.695 Q 341.017 288.695 342.257 290.185 Q 343.497 291.675 343.497 294.235 Q 343.497 296.795 342.237 298.295 Q 340.977 299.795 338.717 299.795 Q 336.437 299.795 335.187 298.325 Q 333.937 296.855 333.937 294.255 Q 333.937 291.735 335.207 290.215 Q 336.477 288.695 338.737 288.695 Z M 338.737 290.435 Q 337.517 290.435 336.907 291.375 Q 336.297 292.315 336.297 294.255 Q 336.297 296.215 336.897 297.145 Q 337.497 298.075 338.717 298.075 Q 339.937 298.075 340.537 297.135 Q 341.137 296.195 341.137 294.235 Q 341.137 292.295 340.537 291.365 Q 339.937 290.435 338.737 290.435 Z M 354.73 288.975 L 354.73 299.535 L 352.49 299.535 L 352.49 295.595 L 350.11 295.595 L 347.97 299.535 L 345.51 299.535 L 348.05 295.095 Q 347.15 294.675 346.68 293.965 Q 346.21 293.255 346.21 292.295 Q 346.21 290.715 347.38 289.845 Q 348.55 288.975 350.73 288.975 Z M 352.49 294.035 L 352.49 290.555 L 350.69 290.555 Q 349.61 290.555 349.08 290.975 Q 348.55 291.395 348.55 292.255 Q 348.55 293.175 349.06 293.605 Q 349.57 294.035 350.67 294.035 Z M 369.19 297.795 L 369.19 302.675 L 367.41 302.675 L 367.09 299.535 L 357.51 299.535 L 357.51 288.975 L 359.51 288.975 L 359.51 297.775 L 361.79 297.775 L 361.79 288.975 L 363.63 288.975 L 363.63 297.775 L 365.91 297.775 L 365.91 288.975 L 367.91 288.975 L 367.91 297.795 Z M 372.343 294.975 Q 372.443 296.515 373.233 297.285 Q 374.023 298.055 375.223 298.055 Q 375.963 298.055 376.633 297.825 Q 377.303 297.595 378.003 297.135 L 378.963 298.495 Q 378.223 299.115 377.223 299.455 Q 376.223 299.795 375.123 299.795 Q 372.703 299.795 371.363 298.285 Q 370.023 296.775 370.023 294.255 Q 370.023 292.675 370.603 291.405 Q 371.183 290.135 372.283 289.415 Q 373.383 288.695 374.843 288.695 Q 376.943 288.695 378.173 290.105 Q 379.403 291.515 379.403 293.975 Q 379.403 294.575 379.343 294.975 L 372.343 294.975 Z M 374.863 290.355 Q 373.783 290.355 373.103 291.135 Q 372.423 291.915 372.323 293.455 L 377.223 293.455 Q 377.183 291.955 376.583 291.155 Q 375.983 290.355 374.863 290.355 Z M 392.015 299.535 L 389.955 299.535 L 389.635 294.975 Q 389.575 293.775 389.575 292.515 Q 389.575 291.595 389.595 291.095 L 389.515 291.095 L 387.675 297.795 L 385.775 297.795 L 383.735 291.095 L 383.655 291.095 Q 383.695 291.595 383.695 292.635 Q 383.695 293.855 383.635 294.995 L 383.415 299.535 L 381.375 299.535 L 382.115 288.975 L 384.775 288.975 L 386.755 295.915 L 388.535 288.975 L 391.255 288.975 Z M 400.075 299.575 Q 399.435 301.495 398.225 302.585 Q 397.015 303.675 394.895 303.855 L 394.615 302.175 Q 395.655 302.015 396.295 301.685 Q 396.935 301.355 397.315 300.855 Q 397.695 300.355 397.995 299.535 L 397.235 299.535 L 393.675 288.975 L 396.055 288.975 L 398.715 297.975 L 401.415 288.975 L 403.715 288.975 Z M 427.408 290.715 L 423.808 290.715 L 423.808 299.535 L 421.568 299.535 L 421.568 290.715 L 417.828 290.715 L 417.828 288.975 L 427.668 288.975 Z M 436.841 293.775 Q 439.521 294.075 439.521 296.395 Q 439.521 297.975 438.211 298.755 Q 436.901 299.535 434.881 299.535 L 430.661 299.535 L 430.661 289.095 Q 432.761 288.695 434.541 288.695 Q 436.581 288.695 437.791 289.425 Q 439.001 290.155 439.001 291.475 Q 439.001 292.355 438.481 292.925 Q 437.961 293.495 436.841 293.775 Z M 434.541 290.295 Q 433.681 290.295 432.901 290.415 L 432.901 293.215 L 434.761 293.215 Q 435.741 293.215 436.251 292.865 Q 436.761 292.515 436.761 291.735 Q 436.761 290.975 436.221 290.635 Q 435.681 290.295 434.541 290.295 Z M 434.641 297.895 Q 435.821 297.895 436.511 297.565 Q 437.201 297.235 437.201 296.295 Q 437.201 294.655 434.901 294.655 L 432.901 294.655 L 432.901 297.895 L 434.641 297.895 Z M 446.693 288.695 Q 448.973 288.695 450.213 290.185 Q 451.453 291.675 451.453 294.235 Q 451.453 296.795 450.193 298.295 Q 448.933 299.795 446.673 299.795 Q 444.393 299.795 443.143 298.325 Q 441.893 296.855 441.893 294.255 Q 441.893 291.735 443.163 290.215 Q 444.433 288.695 446.693 288.695 Z M 446.693 290.435 Q 445.473 290.435 444.863 291.375 Q 444.253 292.315 444.253 294.255 Q 444.253 296.215 444.853 297.145 Q 445.453 298.075 446.673 298.075 Q 447.893 298.075 448.493 297.135 Q 449.093 296.195 449.093 294.235 Q 449.093 292.295 448.493 291.365 Q 447.893 290.435 446.693 290.435 Z M 462.893 299.535 L 460.733 299.535 L 460.733 295.195 Q 460.733 293.935 460.833 292.825 Q 460.933 291.715 461.033 291.255 L 456.953 299.535 L 454.453 299.535 L 454.453 288.975 L 456.613 288.975 L 456.613 293.335 Q 456.613 294.495 456.523 295.635 Q 456.433 296.775 456.313 297.215 L 460.353 288.975 L 462.893 288.975 Z M 458.633 286.855 Q 457.313 286.855 456.473 286.145 Q 455.633 285.435 455.513 284.295 L 456.873 284.015 Q 457.253 285.235 458.633 285.235 Q 460.093 285.235 460.433 284.015 L 461.813 284.295 Q 461.693 285.435 460.833 286.145 Q 459.973 286.855 458.633 286.855 Z"/>
</svg>