<?xml version="1.0" encoding="utf-8"?>
<svg viewBox="337.252 18.182 888 888" xmlns="http://www.w3.org/2000/svg">
  <rect fill="#ffffff" transform="matrix(1, 0, 0, 1, 1.4210854715202004e-14, 0)" x="337.252" y="18.182" width="888" height="888" rx="50" ry="50"/>
  <g fill="#000000" transform="matrix(1, 0, 0, 1, 337.2523193359375, 18.18229866027832)">
    <g transform="translate(240,48) scale(4.12)">
      <path d="M6,6H0V3c0-1.7,1.3-3,3-3h0c1.7,0,3,1.3,3,3V6z"/>
    </g>
    <g transform="translate(288,48) scale(4.12)">
      <circle cx="3" cy="3" r="3"/>
    </g>
    <g transform="translate(360,48) scale(4.12)">
      <path d="M6,6H0V3c0-1.7,1.3-3,3-3l3,0V6z"/>
    </g>
    <g transform="translate(384,48) scale(4.12)">
      <rect width="6" height="6"/>
    </g>
    <g transform="translate(408,48) scale(4.12)">
      <path d="M3,6H0V0l3,0c1.7,0,3,1.3,3,3v0C6,4.7,4.7,6,3,6z"/>
    </g>
    <g transform="translate(480,48) scale(4.12)">
      <path d="M6,6H0V3c0-1.7,1.3-3,3-3l3,0V6z"/>
    </g>
    <g transform="translate(504,48) scale(4.12)">
      <rect width="6" height="6"/>
    </g>
    <g transform="translate(528,48) scale(4.12)">
      <rect width="6" height="6"/>
    </g>
    <g transform="translate(552,48) scale(4.12)">
      <path d="M3,6H0V0l3,0c1.7,0,3,1.3,3,3v0C6,4.7,4.7,6,3,6z"/>
    </g>
    <g transform="translate(600,48) scale(4.12)">
      <path d="M6,6H3C1.3,6,0,4.7,0,3v0c0-1.7,1.3-3,3-3h3C6,0,6,6,6,6z"/>
    </g>
    <g transform="translate(624,48) scale(4.12)">
      <path d="M6,6H0V0l3,0c1.7,0,3,1.3,3,3V6z"/>
    </g>
    <g transform="translate(240,72) scale(4.12)">
      <rect width="6" height="6"/>
    </g>
    <g transform="translate(312,72) scale(4.12)">
      <path d="M6,6H0V3c0-1.7,1.3-3,3-3h0c1.7,0,3,1.3,3,3V6z"/>
    </g>
    <g transform="translate(360,72) scale(4.12)">
      <rect width="6" height="6"/>
    </g>
    <g transform="translate(432,72) scale(4.12)">
      <path d="M6,6H0V3c0-1.7,1.3-3,3-3h0c1.7,0,3,1.3,3,3V6z"/>
    </g>
    <g transform="translate(480,72) scale(4.12)">
      <path d="M3,6L3,6C1.3,6,0,4.7,0,3V0h6v3C6,4.7,4.7,6,3,6z"/>
    </g>
    <g transform="translate(624,72) scale(4.12)">
      <rect width="6" height="6"/>
    </g>
    <g transform="translate(240,96) scale(4.12)">
      <path d="M6,6H3C1.3,6,0,4.7,0,3V0l6,0V6z"/>
    </g>
    <g transform="translate(264,96) scale(4.12)">
      <rect width="6" height="6"/>
    </g>
    <g transform="translate(288,96) scale(4.12)">
      <rect width="6" height="6"/>
    </g>
    <g transform="translate(312,96) scale(4.12)">
      <rect width="6" height="6"/>
    </g>
    <g transform="translate(336,96) scale(4.12)">
      <rect width="6" height="6"/>
    </g>
    <g transform="translate(360,96) scale(4.12)">
      <rect width="6" height="6"/>
    </g>
    <g transform="translate(384,96) scale(4.12)">
      <path d="M3,6H0V0l3,0c1.7,0,3,1.3,3,3v0C6,4.7,4.7,6,3,6z"/>
    </g>
    <g transform="translate(432,96) scale(4.12)">
      <path d="M3,6L3,6C1.3,6,0,4.7,0,3V0h6v3C6,4.7,4.7,6,3,6z"/>
    </g>
    <g transform="translate(552,96) scale(4.12)">
      <path d="M6,6H3C1.3,6,0,4.7,0,3v0c0-1.7,1.3-3,3-3h3C6,0,6,6,6,6z"/>
    </g>
    <g transform="translate(576,96) scale(4.12)">
      <rect width="6" height="6"/>
    </g>
    <g transform="translate(600,96) scale(4.12)">
      <rect width="6" height="6"/>
    </g>
    <g transform="translate(624,96) scale(4.12)">
      <rect width="6" height="6"/>
    </g>
    <g transform="translate(264,120) scale(4.12)">
      <path d="M3,6L3,6C1.3,6,0,4.7,0,3V0h6v3C6,4.7,4.7,6,3,6z"/>
    </g>
    <g transform="translate(480,120) scale(4.12)">
      <circle cx="3" cy="3" r="3"/>
    </g>
    <g transform="translate(576,120) scale(4.12)">
      <path d="M6,6H3C1.3,6,0,4.7,0,3V0l6,0V6z"/>
    </g>
    <g transform="translate(600,120) scale(4.12)">
      <rect width="6" height="6"/>
    </g>
    <g transform="translate(624,120) scale(4.12)">
      <path d="M3,6H0V0l6,0v3C6,4.7,4.7,6,3,6z"/>
    </g>
    <g transform="translate(312,144) scale(4.12)">
      <circle cx="3" cy="3" r="3"/>
    </g>
    <g transform="translate(360,144) scale(4.12)">
      <circle cx="3" cy="3" r="3"/>
    </g>
    <g transform="translate(408,144) scale(4.12)">
      <path d="M6,6H0V3c0-1.7,1.3-3,3-3l3,0V6z"/>
    </g>
    <g transform="translate(432,144) scale(4.12)">
      <path d="M6,6H0V0l3,0c1.7,0,3,1.3,3,3V6z"/>
    </g>
    <g transform="translate(504,144) scale(4.12)">
      <path d="M6,6H0V3c0-1.7,1.3-3,3-3l3,0V6z"/>
    </g>
    <g transform="translate(528,144) scale(4.12)">
      <rect width="6" height="6"/>
    </g>
    <g transform="translate(552,144) scale(4.12)">
      <path d="M6,6H0V0l3,0c1.7,0,3,1.3,3,3V6z"/>
    </g>
    <g transform="translate(600,144) scale(4.12)">
      <path d="M3,6L3,6C1.3,6,0,4.7,0,3V0h6v3C6,4.7,4.7,6,3,6z"/>
    </g>
    <g transform="translate(240,168) scale(4.12)">
      <path d="M6,6H0V3c0-1.7,1.3-3,3-3l3,0V6z"/>
    </g>
    <g transform="translate(264,168) scale(4.12)">
      <rect width="6" height="6"/>
    </g>
    <g transform="translate(288,168) scale(4.12)">
      <path d="M6,6H0V0l3,0c1.7,0,3,1.3,3,3V6z"/>
    </g>
    <g transform="translate(408,168) scale(4.12)">
      <path d="M6,6H3C1.3,6,0,4.7,0,3V0l6,0V6z"/>
    </g>
    <g transform="translate(432,168) scale(4.12)">
      <rect width="6" height="6"/>
    </g>
    <g transform="translate(456,168) scale(4.12)">
      <rect width="6" height="6"/>
    </g>
    <g transform="translate(480,168) scale(4.12)">
      <rect width="6" height="6"/>
    </g>
    <g transform="translate(504,168) scale(4.12)">
      <rect width="6" height="6"/>
    </g>
    <g transform="translate(528,168) scale(4.12)">
      <rect width="6" height="6"/>
    </g>
    <g transform="translate(552,168) scale(4.12)">
      <rect width="6" height="6"/>
    </g>
    <g transform="translate(576,168) scale(4.12)">
      <path d="M6,6H0V0l3,0c1.7,0,3,1.3,3,3V6z"/>
    </g>
    <g transform="translate(240,192) scale(4.12)">
      <rect width="6" height="6"/>
    </g>
    <g transform="translate(288,192) scale(4.12)">
      <rect width="6" height="6"/>
    </g>
    <g transform="translate(336,192) scale(4.12)">
      <circle cx="3" cy="3" r="3"/>
    </g>
    <g transform="translate(384,192) scale(4.12)">
      <path d="M6,6H0V3c0-1.7,1.3-3,3-3h0c1.7,0,3,1.3,3,3V6z"/>
    </g>
    <g transform="translate(432,192) scale(4.12)">
      <path d="M3,6L3,6C1.3,6,0,4.7,0,3V0h6v3C6,4.7,4.7,6,3,6z"/>
    </g>
    <g transform="translate(480,192) scale(4.12)">
      <path d="M3,6L3,6C1.3,6,0,4.7,0,3V0h6v3C6,4.7,4.7,6,3,6z"/>
    </g>
    <g transform="translate(528,192) scale(4.12)">
      <path d="M3,6L3,6C1.3,6,0,4.7,0,3V0h6v3C6,4.7,4.7,6,3,6z"/>
    </g>
    <g transform="translate(576,192) scale(4.12)">
      <rect width="6" height="6"/>
    </g>
    <g transform="translate(624,192) scale(4.12)">
      <path d="M6,6H0V3c0-1.7,1.3-3,3-3h0c1.7,0,3,1.3,3,3V6z"/>
    </g>
    <g transform="translate(240,216) scale(4.12)">
      <rect width="6" height="6"/>
    </g>
    <g transform="translate(264,216) scale(4.12)">
      <rect width="6" height="6"/>
    </g>
    <g transform="translate(288,216) scale(4.12)">
      <rect width="6" height="6"/>
    </g>
    <g transform="translate(312,216) scale(4.12)">
      <path d="M6,6H0V0l3,0c1.7,0,3,1.3,3,3V6z"/>
    </g>
    <g transform="translate(384,216) scale(4.12)">
      <rect width="6" height="6"/>
    </g>
    <g transform="translate(408,216) scale(4.12)">
      <path d="M6,6H0V0l3,0c1.7,0,3,1.3,3,3V6z"/>
    </g>
    <g transform="translate(504,216) scale(4.12)">
      <path d="M6,6H0V3c0-1.7,1.3-3,3-3h0c1.7,0,3,1.3,3,3V6z"/>
    </g>
    <g transform="translate(552,216) scale(4.12)">
      <path d="M6,6H3C1.3,6,0,4.7,0,3v0c0-1.7,1.3-3,3-3h3C6,0,6,6,6,6z"/>
    </g>
    <g transform="translate(576,216) scale(4.12)">
      <rect width="6" height="6"/>
    </g>
    <g transform="translate(600,216) scale(4.12)">
      <rect width="6" height="6"/>
    </g>
    <g transform="translate(624,216) scale(4.12)">
      <path d="M3,6H0V0l6,0v3C6,4.7,4.7,6,3,6z"/>
    </g>
    <g transform="translate(96,240) scale(4.12)">
      <path d="M6,6H0V3c0-1.7,1.3-3,3-3l3,0V6z"/>
    </g>
    <g transform="translate(120,240) scale(4.12)">
      <rect width="6" height="6"/>
    </g>
    <g transform="translate(144,240) scale(4.12)">
      <path d="M6,6H0V0l3,0c1.7,0,3,1.3,3,3V6z"/>
    </g>
    <g transform="translate(192,240) scale(4.12)">
      <circle cx="3" cy="3" r="3"/>
    </g>
    <g transform="translate(240,240) scale(4.12)">
      <rect width="6" height="6"/>
    </g>
    <g transform="translate(312,240) scale(4.12)">
      <rect width="6" height="6"/>
    </g>
    <g transform="translate(360,240) scale(4.12)">
      <path d="M6,6H3C1.3,6,0,4.7,0,3v0c0-1.7,1.3-3,3-3h3C6,0,6,6,6,6z"/>
    </g>
    <g transform="translate(384,240) scale(4.12)">
      <rect width="6" height="6"/>
    </g>
    <g transform="translate(408,240) scale(4.12)">
      <rect width="6" height="6"/>
    </g>
    <g transform="translate(432,240) scale(4.12)">
      <path d="M6,6H0V0l3,0c1.7,0,3,1.3,3,3V6z"/>
    </g>
    <g transform="translate(480,240) scale(4.12)">
      <path d="M6,6H3C1.3,6,0,4.7,0,3v0c0-1.7,1.3-3,3-3h3C6,0,6,6,6,6z"/>
    </g>
    <g transform="translate(504,240) scale(4.12)">
      <rect width="6" height="6"/>
    </g>
    <g transform="translate(528,240) scale(4.12)">
      <path d="M6,6H0V0l3,0c1.7,0,3,1.3,3,3V6z"/>
    </g>
    <g transform="translate(600,240) scale(4.12)">
      <rect width="6" height="6"/>
    </g>
    <g transform="translate(648,240) scale(4.12)">
      <path d="M6,6H0V3c0-1.7,1.3-3,3-3l3,0V6z"/>
    </g>
    <g transform="translate(672,240) scale(4.12)">
      <rect width="6" height="6"/>
    </g>
    <g transform="translate(696,240) scale(4.12)">
      <path d="M3,6H0V0l3,0c1.7,0,3,1.3,3,3v0C6,4.7,4.7,6,3,6z"/>
    </g>
    <g transform="translate(768,240) scale(4.12)">
      <path d="M6,6H0V3c0-1.7,1.3-3,3-3l3,0V6z"/>
    </g>
    <g transform="translate(792,240) scale(4.12)">
      <rect width="6" height="6"/>
    </g>
    <g transform="translate(816,240) scale(4.12)">
      <path d="M6,6H0V0l3,0c1.7,0,3,1.3,3,3V6z"/>
    </g>
    <g transform="translate(72,264) scale(4.12)">
      <path d="M6,6H0V3c0-1.7,1.3-3,3-3l3,0V6z"/>
    </g>
    <g transform="translate(96,264) scale(4.12)">
      <rect width="6" height="6"/>
    </g>
    <g transform="translate(120,264) scale(4.12)">
      <rect width="6" height="6"/>
    </g>
    <g transform="translate(144,264) scale(4.12)">
      <rect width="6" height="6"/>
    </g>
    <g transform="translate(216,264) scale(4.12)">
      <path d="M6,6H0V3c0-1.7,1.3-3,3-3l3,0V6z"/>
    </g>
    <g transform="translate(240,264) scale(4.12)">
      <rect width="6" height="6"/>
    </g>
    <g transform="translate(264,264) scale(4.12)">
      <path d="M6,6H0V0l3,0c1.7,0,3,1.3,3,3V6z"/>
    </g>
    <g transform="translate(312,264) scale(4.12)">
      <rect width="6" height="6"/>
    </g>
    <g transform="translate(384,264) scale(4.12)">
      <path d="M6,6H3C1.3,6,0,4.7,0,3V0l6,0V6z"/>
    </g>
    <g transform="translate(408,264) scale(4.12)">
      <rect width="6" height="6"/>
    </g>
    <g transform="translate(432,264) scale(4.12)">
      <rect width="6" height="6"/>
    </g>
    <g transform="translate(528,264) scale(4.12)">
      <path d="M3,6L3,6C1.3,6,0,4.7,0,3V0h6v3C6,4.7,4.7,6,3,6z"/>
    </g>
    <g transform="translate(576,264) scale(4.12)">
      <path d="M6,6H0V3c0-1.7,1.3-3,3-3l3,0V6z"/>
    </g>
    <g transform="translate(600,264) scale(4.12)">
      <rect width="6" height="6"/>
    </g>
    <g transform="translate(624,264) scale(4.12)">
      <rect width="6" height="6"/>
    </g>
    <g transform="translate(648,264) scale(4.12)">
      <rect width="6" height="6"/>
    </g>
    <g transform="translate(672,264) scale(4.12)">
      <path d="M3,6H0V0l6,0v3C6,4.7,4.7,6,3,6z"/>
    </g>
    <g transform="translate(768,264) scale(4.12)">
      <path d="M3,6L3,6C1.3,6,0,4.7,0,3V0h6v3C6,4.7,4.7,6,3,6z"/>
    </g>
    <g transform="translate(816,264) scale(4.12)">
      <path d="M3,6L3,6C1.3,6,0,4.7,0,3V0h6v3C6,4.7,4.7,6,3,6z"/>
    </g>
    <g transform="translate(72,288) scale(4.12)">
      <rect width="6" height="6"/>
    </g>
    <g transform="translate(120,288) scale(4.12)">
      <path d="M6,6H3C1.3,6,0,4.7,0,3V0l6,0V6z"/>
    </g>
    <g transform="translate(144,288) scale(4.12)">
      <rect width="6" height="6"/>
    </g>
    <g transform="translate(168,288) scale(4.12)">
      <rect width="6" height="6"/>
    </g>
    <g transform="translate(192,288) scale(4.12)">
      <rect width="6" height="6"/>
    </g>
    <g transform="translate(216,288) scale(4.12)">
      <rect width="6" height="6"/>
    </g>
    <g transform="translate(264,288) scale(4.12)">
      <path d="M3,6L3,6C1.3,6,0,4.7,0,3V0h6v3C6,4.7,4.7,6,3,6z"/>
    </g>
    <g transform="translate(312,288) scale(4.12)">
      <path d="M6,6H3C1.3,6,0,4.7,0,3V0l6,0V6z"/>
    </g>
    <g transform="translate(336,288) scale(4.12)">
      <path d="M3,6H0V0l3,0c1.7,0,3,1.3,3,3v0C6,4.7,4.7,6,3,6z"/>
    </g>
    <g transform="translate(432,288) scale(4.12)">
      <path d="M6,6H3C1.3,6,0,4.7,0,3V0l6,0V6z"/>
    </g>
    <g transform="translate(456,288) scale(4.12)">
      <path d="M3,6H0V0l3,0c1.7,0,3,1.3,3,3v0C6,4.7,4.7,6,3,6z"/>
    </g>
    <g transform="translate(504,288) scale(4.12)">
      <path d="M6,6H0V3c0-1.7,1.3-3,3-3h0c1.7,0,3,1.3,3,3V6z"/>
    </g>
    <g transform="translate(576,288) scale(4.12)">
      <rect width="6" height="6"/>
    </g>
    <g transform="translate(624,288) scale(4.12)">
      <rect width="6" height="6"/>
    </g>
    <g transform="translate(648,288) scale(4.12)">
      <path d="M3,6H0V0l6,0v3C6,4.7,4.7,6,3,6z"/>
    </g>
    <g transform="translate(696,288) scale(4.12)">
      <circle cx="3" cy="3" r="3"/>
    </g>
    <g transform="translate(792,288) scale(4.12)">
      <path d="M6,6H0V3c0-1.7,1.3-3,3-3h0c1.7,0,3,1.3,3,3V6z"/>
    </g>
    <g transform="translate(48,312) scale(4.12)">
      <path d="M6,6H3C1.3,6,0,4.7,0,3v0c0-1.7,1.3-3,3-3h3C6,0,6,6,6,6z"/>
    </g>
    <g transform="translate(72,312) scale(4.12)">
      <rect width="6" height="6"/>
    </g>
    <g transform="translate(96,312) scale(4.12)">
      <path d="M6,6H0V0l3,0c1.7,0,3,1.3,3,3V6z"/>
    </g>
    <g transform="translate(144,312) scale(4.12)">
      <rect width="6" height="6"/>
    </g>
    <g transform="translate(168,312) scale(4.12)">
      <rect width="6" height="6"/>
    </g>
    <g transform="translate(216,312) scale(4.12)">
      <path d="M6,6H3C1.3,6,0,4.7,0,3V0l6,0V6z"/>
    </g>
    <g transform="translate(240,312) scale(4.12)">
      <path d="M3,6H0V0l3,0c1.7,0,3,1.3,3,3v0C6,4.7,4.7,6,3,6z"/>
    </g>
    <g transform="translate(408,312) scale(4.12)">
      <circle cx="3" cy="3" r="3"/>
    </g>
    <g transform="translate(504,312) scale(4.12)">
      <path d="M3,6L3,6C1.3,6,0,4.7,0,3V0h6v3C6,4.7,4.7,6,3,6z"/>
    </g>
    <g transform="translate(552,312) scale(4.12)">
      <path d="M6,6H3C1.3,6,0,4.7,0,3v0c0-1.7,1.3-3,3-3h3C6,0,6,6,6,6z"/>
    </g>
    <g transform="translate(576,312) scale(4.12)">
      <rect width="6" height="6"/>
    </g>
    <g transform="translate(600,312) scale(4.12)">
      <rect width="6" height="6"/>
    </g>
    <g transform="translate(624,312) scale(4.12)">
      <path d="M3,6H0V0l6,0v3C6,4.7,4.7,6,3,6z"/>
    </g>
    <g transform="translate(672,312) scale(4.12)">
      <circle cx="3" cy="3" r="3"/>
    </g>
    <g transform="translate(744,312) scale(4.12)">
      <path d="M6,6H0V3c0-1.7,1.3-3,3-3l3,0V6z"/>
    </g>
    <g transform="translate(768,312) scale(4.12)">
      <rect width="6" height="6"/>
    </g>
    <g transform="translate(792,312) scale(4.12)">
      <rect width="6" height="6"/>
    </g>
    <g transform="translate(816,312) scale(4.12)">
      <path d="M3,6H0V0l3,0c1.7,0,3,1.3,3,3v0C6,4.7,4.7,6,3,6z"/>
    </g>
    <g transform="translate(72,336) scale(4.12)">
      <path d="M6,6H3C1.3,6,0,4.7,0,3V0l6,0V6z"/>
    </g>
    <g transform="translate(96,336) scale(4.12)">
      <rect width="6" height="6"/>
    </g>
    <g transform="translate(120,336) scale(4.12)">
      <rect width="6" height="6"/>
    </g>
    <g transform="translate(144,336) scale(4.12)">
      <rect width="6" height="6"/>
    </g>
    <g transform="translate(168,336) scale(4.12)">
      <rect width="6" height="6"/>
    </g>
    <g transform="translate(192,336) scale(4.12)">
      <path d="M3,6H0V0l3,0c1.7,0,3,1.3,3,3v0C6,4.7,4.7,6,3,6z"/>
    </g>
    <g transform="translate(312,336) scale(4.12)">
      <circle cx="3" cy="3" r="3"/>
    </g>
    <g transform="translate(576,336) scale(4.12)">
      <rect width="6" height="6"/>
    </g>
    <g transform="translate(600,336) scale(4.12)">
      <rect width="6" height="6"/>
    </g>
    <g transform="translate(648,336) scale(4.12)">
      <circle cx="3" cy="3" r="3"/>
    </g>
    <g transform="translate(720,336) scale(4.12)">
      <path d="M6,6H3C1.3,6,0,4.7,0,3v0c0-1.7,1.3-3,3-3h3C6,0,6,6,6,6z"/>
    </g>
    <g transform="translate(744,336) scale(4.12)">
      <path d="M3,6H0V0l6,0v3C6,4.7,4.7,6,3,6z"/>
    </g>
    <g transform="translate(792,336) scale(4.12)">
      <path d="M3,6L3,6C1.3,6,0,4.7,0,3V0h6v3C6,4.7,4.7,6,3,6z"/>
    </g>
    <g transform="translate(48,360) scale(4.12)">
      <path d="M6,6H0V3c0-1.7,1.3-3,3-3h0c1.7,0,3,1.3,3,3V6z"/>
    </g>
    <g transform="translate(168,360) scale(4.12)">
      <rect width="6" height="6"/>
    </g>
    <g transform="translate(240,360) scale(4.12)">
      <circle cx="3" cy="3" r="3"/>
    </g>
    <g transform="translate(288,360) scale(4.12)">
      <path d="M6,6H0V3c0-1.7,1.3-3,3-3h0c1.7,0,3,1.3,3,3V6z"/>
    </g>
    <g transform="translate(576,360) scale(4.12)">
      <rect width="6" height="6"/>
    </g>
    <g transform="translate(600,360) scale(4.12)">
      <path d="M3,6H0V0l6,0v3C6,4.7,4.7,6,3,6z"/>
    </g>
    <g transform="translate(672,360) scale(4.12)">
      <path d="M6,6H0V3c0-1.7,1.3-3,3-3h0c1.7,0,3,1.3,3,3V6z"/>
    </g>
    <g transform="translate(816,360) scale(4.12)">
      <circle cx="3" cy="3" r="3"/>
    </g>
    <g transform="translate(48,384) scale(4.12)">
      <rect width="6" height="6"/>
    </g>
    <g transform="translate(120,384) scale(4.12)">
      <path d="M6,6H3C1.3,6,0,4.7,0,3v0c0-1.7,1.3-3,3-3h3C6,0,6,6,6,6z"/>
    </g>
    <g transform="translate(144,384) scale(4.12)">
      <rect width="6" height="6"/>
    </g>
    <g transform="translate(168,384) scale(4.12)">
      <rect width="6" height="6"/>
    </g>
    <g transform="translate(192,384) scale(4.12)">
      <rect width="6" height="6"/>
    </g>
    <g transform="translate(216,384) scale(4.12)">
      <path d="M6,6H0V0l3,0c1.7,0,3,1.3,3,3V6z"/>
    </g>
    <g transform="translate(288,384) scale(4.12)">
      <rect width="6" height="6"/>
    </g>
    <g transform="translate(576,384) scale(4.12)">
      <rect width="6" height="6"/>
    </g>
    <g transform="translate(624,384) scale(4.12)">
      <path d="M6,6H0V3c0-1.7,1.3-3,3-3h0c1.7,0,3,1.3,3,3V6z"/>
    </g>
    <g transform="translate(672,384) scale(4.12)">
      <path d="M6,6H3C1.3,6,0,4.7,0,3V0l6,0V6z"/>
    </g>
    <g transform="translate(696,384) scale(4.12)">
      <rect width="6" height="6"/>
    </g>
    <g transform="translate(720,384) scale(4.12)">
      <rect width="6" height="6"/>
    </g>
    <g transform="translate(744,384) scale(4.12)">
      <path d="M6,6H0V0l3,0c1.7,0,3,1.3,3,3V6z"/>
    </g>
    <g transform="translate(792,384) scale(4.12)">
      <circle cx="3" cy="3" r="3"/>
    </g>
    <g transform="translate(48,408) scale(4.12)">
      <rect width="6" height="6"/>
    </g>
    <g transform="translate(72,408) scale(4.12)">
      <path d="M3,6H0V0l3,0c1.7,0,3,1.3,3,3v0C6,4.7,4.7,6,3,6z"/>
    </g>
    <g transform="translate(168,408) scale(4.12)">
      <path d="M3,6L3,6C1.3,6,0,4.7,0,3V0h6v3C6,4.7,4.7,6,3,6z"/>
    </g>
    <g transform="translate(216,408) scale(4.12)">
      <path d="M3,6L3,6C1.3,6,0,4.7,0,3V0h6v3C6,4.7,4.7,6,3,6z"/>
    </g>
    <g transform="translate(288,408) scale(4.12)">
      <rect width="6" height="6"/>
    </g>
    <g transform="translate(552,408) scale(4.12)">
      <path d="M6,6H3C1.3,6,0,4.7,0,3v0c0-1.7,1.3-3,3-3h3C6,0,6,6,6,6z"/>
    </g>
    <g transform="translate(576,408) scale(4.12)">
      <rect width="6" height="6"/>
    </g>
    <g transform="translate(600,408) scale(4.12)">
      <rect width="6" height="6"/>
    </g>
    <g transform="translate(624,408) scale(4.12)">
      <path d="M3,6H0V0l6,0v3C6,4.7,4.7,6,3,6z"/>
    </g>
    <g transform="translate(696,408) scale(4.12)">
      <path d="M3,6L3,6C1.3,6,0,4.7,0,3V0h6v3C6,4.7,4.7,6,3,6z"/>
    </g>
    <g transform="translate(744,408) scale(4.12)">
      <path d="M6,6H3C1.3,6,0,4.7,0,3V0l6,0V6z"/>
    </g>
    <g transform="translate(768,408) scale(4.12)">
      <path d="M3,6H0V0l3,0c1.7,0,3,1.3,3,3v0C6,4.7,4.7,6,3,6z"/>
    </g>
    <g transform="translate(816,408) scale(4.12)">
      <circle cx="3" cy="3" r="3"/>
    </g>
    <g transform="translate(48,432) scale(4.12)">
      <rect width="6" height="6"/>
    </g>
    <g transform="translate(96,432) scale(4.12)">
      <path d="M6,6H0V3c0-1.7,1.3-3,3-3l3,0V6z"/>
    </g>
    <g transform="translate(120,432) scale(4.12)">
      <path d="M3,6H0V0l3,0c1.7,0,3,1.3,3,3v0C6,4.7,4.7,6,3,6z"/>
    </g>
    <g transform="translate(192,432) scale(4.12)">
      <circle cx="3" cy="3" r="3"/>
    </g>
    <g transform="translate(264,432) scale(4.12)">
      <path d="M6,6H3C1.3,6,0,4.7,0,3v0c0-1.7,1.3-3,3-3h3C6,0,6,6,6,6z"/>
    </g>
    <g transform="translate(288,432) scale(4.12)">
      <rect width="6" height="6"/>
    </g>
    <g transform="translate(312,432) scale(4.12)">
      <path d="M6,6H0V0l3,0c1.7,0,3,1.3,3,3V6z"/>
    </g>
    <g transform="translate(720,432) scale(4.12)">
      <circle cx="3" cy="3" r="3"/>
    </g>
    <g transform="translate(48,456) scale(4.12)">
      <rect width="6" height="6"/>
    </g>
    <g transform="translate(72,456) scale(4.12)">
      <rect width="6" height="6"/>
    </g>
    <g transform="translate(96,456) scale(4.12)">
      <rect width="6" height="6"/>
    </g>
    <g transform="translate(240,456) scale(4.12)">
      <path d="M6,6H0V3c0-1.7,1.3-3,3-3h0c1.7,0,3,1.3,3,3V6z"/>
    </g>
    <g transform="translate(312,456) scale(4.12)">
      <rect width="6" height="6"/>
    </g>
    <g transform="translate(552,456) scale(4.12)">
      <path d="M6,6H0V3c0-1.7,1.3-3,3-3h0c1.7,0,3,1.3,3,3V6z"/>
    </g>
    <g transform="translate(600,456) scale(4.12)">
      <path d="M6,6H3C1.3,6,0,4.7,0,3v0c0-1.7,1.3-3,3-3h3C6,0,6,6,6,6z"/>
    </g>
    <g transform="translate(624,456) scale(4.12)">
      <rect width="6" height="6"/>
    </g>
    <g transform="translate(648,456) scale(4.12)">
      <rect width="6" height="6"/>
    </g>
    <g transform="translate(672,456) scale(4.12)">
      <path d="M3,6H0V0l3,0c1.7,0,3,1.3,3,3v0C6,4.7,4.7,6,3,6z"/>
    </g>
    <g transform="translate(816,456) scale(4.12)">
      <circle cx="3" cy="3" r="3"/>
    </g>
    <g transform="translate(48,480) scale(4.12)">
      <path d="M6,6H3C1.3,6,0,4.7,0,3V0l6,0V6z"/>
    </g>
    <g transform="translate(72,480) scale(4.12)">
      <rect width="6" height="6"/>
    </g>
    <g transform="translate(96,480) scale(4.12)">
      <rect width="6" height="6"/>
    </g>
    <g transform="translate(120,480) scale(4.12)">
      <path d="M6,6H0V0l3,0c1.7,0,3,1.3,3,3V6z"/>
    </g>
    <g transform="translate(192,480) scale(4.12)">
      <path d="M6,6H3C1.3,6,0,4.7,0,3v0c0-1.7,1.3-3,3-3h3C6,0,6,6,6,6z"/>
    </g>
    <g transform="translate(216,480) scale(4.12)">
      <rect width="6" height="6"/>
    </g>
    <g transform="translate(240,480) scale(4.12)">
      <rect width="6" height="6"/>
    </g>
    <g transform="translate(312,480) scale(4.12)">
      <path d="M3,6L3,6C1.3,6,0,4.7,0,3V0h6v3C6,4.7,4.7,6,3,6z"/>
    </g>
    <g transform="translate(552,480) scale(4.12)">
      <rect width="6" height="6"/>
    </g>
    <g transform="translate(576,480) scale(4.12)">
      <path d="M6,6H0V0l3,0c1.7,0,3,1.3,3,3V6z"/>
    </g>
    <g transform="translate(720,480) scale(4.12)">
      <path d="M6,6H0V3c0-1.7,1.3-3,3-3h0c1.7,0,3,1.3,3,3V6z"/>
    </g>
    <g transform="translate(768,480) scale(4.12)">
      <path d="M6,6H0V3c0-1.7,1.3-3,3-3l3,0V6z"/>
    </g>
    <g transform="translate(792,480) scale(4.12)">
      <path d="M6,6H0V0l3,0c1.7,0,3,1.3,3,3V6z"/>
    </g>
    <g transform="translate(96,504) scale(4.12)">
      <path d="M6,6H3C1.3,6,0,4.7,0,3V0l6,0V6z"/>
    </g>
    <g transform="translate(120,504) scale(4.12)">
      <rect width="6" height="6"/>
    </g>
    <g transform="translate(144,504) scale(4.12)">
      <rect width="6" height="6"/>
    </g>
    <g transform="translate(168,504) scale(4.12)">
      <path d="M3,6H0V0l3,0c1.7,0,3,1.3,3,3v0C6,4.7,4.7,6,3,6z"/>
    </g>
    <g transform="translate(216,504) scale(4.12)">
      <rect width="6" height="6"/>
    </g>
    <g transform="translate(240,504) scale(4.12)">
      <rect width="6" height="6"/>
    </g>
    <g transform="translate(264,504) scale(4.12)">
      <path d="M3,6H0V0l3,0c1.7,0,3,1.3,3,3v0C6,4.7,4.7,6,3,6z"/>
    </g>
    <g transform="translate(552,504) scale(4.12)">
      <path d="M6,6H3C1.3,6,0,4.7,0,3V0l6,0V6z"/>
    </g>
    <g transform="translate(576,504) scale(4.12)">
      <rect width="6" height="6"/>
    </g>
    <g transform="translate(600,504) scale(4.12)">
      <rect width="6" height="6"/>
    </g>
    <g transform="translate(624,504) scale(4.12)">
      <rect width="6" height="6"/>
    </g>
    <g transform="translate(648,504) scale(4.12)">
      <rect width="6" height="6"/>
    </g>
    <g transform="translate(672,504) scale(4.12)">
      <path d="M3,6H0V0l3,0c1.7,0,3,1.3,3,3v0C6,4.7,4.7,6,3,6z"/>
    </g>
    <g transform="translate(720,504) scale(4.12)">
      <rect width="6" height="6"/>
    </g>
    <g transform="translate(744,504) scale(4.12)">
      <rect width="6" height="6"/>
    </g>
    <g transform="translate(768,504) scale(4.12)">
      <rect width="6" height="6"/>
    </g>
    <g transform="translate(792,504) scale(4.12)">
      <rect width="6" height="6"/>
    </g>
    <g transform="translate(816,504) scale(4.12)">
      <path d="M6,6H0V0l3,0c1.7,0,3,1.3,3,3V6z"/>
    </g>
    <g transform="translate(72,528) scale(4.12)">
      <path d="M6,6H0V3c0-1.7,1.3-3,3-3h0c1.7,0,3,1.3,3,3V6z"/>
    </g>
    <g transform="translate(120,528) scale(4.12)">
      <rect width="6" height="6"/>
    </g>
    <g transform="translate(144,528) scale(4.12)">
      <rect width="6" height="6"/>
    </g>
    <g transform="translate(192,528) scale(4.12)">
      <path d="M6,6H3C1.3,6,0,4.7,0,3v0c0-1.7,1.3-3,3-3h3C6,0,6,6,6,6z"/>
    </g>
    <g transform="translate(216,528) scale(4.12)">
      <rect width="6" height="6"/>
    </g>
    <g transform="translate(240,528) scale(4.12)">
      <rect width="6" height="6"/>
    </g>
    <g transform="translate(288,528) scale(4.12)">
      <path d="M6,6H0V3c0-1.7,1.3-3,3-3h0c1.7,0,3,1.3,3,3V6z"/>
    </g>
    <g transform="translate(624,528) scale(4.12)">
      <path d="M6,6H3C1.3,6,0,4.7,0,3V0l6,0V6z"/>
    </g>
    <g transform="translate(648,528) scale(4.12)">
      <path d="M3,6H0V0l6,0v3C6,4.7,4.7,6,3,6z"/>
    </g>
    <g transform="translate(720,528) scale(4.12)">
      <path d="M6,6H3C1.3,6,0,4.7,0,3V0l6,0V6z"/>
    </g>
    <g transform="translate(744,528) scale(4.12)">
      <path d="M3,6H0V0l6,0v3C6,4.7,4.7,6,3,6z"/>
    </g>
    <g transform="translate(792,528) scale(4.12)">
      <rect width="6" height="6"/>
    </g>
    <g transform="translate(816,528) scale(4.12)">
      <rect width="6" height="6"/>
    </g>
    <g transform="translate(48,552) scale(4.12)">
      <path d="M6,6H0V3c0-1.7,1.3-3,3-3l3,0V6z"/>
    </g>
    <g transform="translate(72,552) scale(4.12)">
      <rect width="6" height="6"/>
    </g>
    <g transform="translate(96,552) scale(4.12)">
      <rect width="6" height="6"/>
    </g>
    <g transform="translate(120,552) scale(4.12)">
      <rect width="6" height="6"/>
    </g>
    <g transform="translate(144,552) scale(4.12)">
      <rect width="6" height="6"/>
    </g>
    <g transform="translate(168,552) scale(4.12)">
      <path d="M3,6H0V0l3,0c1.7,0,3,1.3,3,3v0C6,4.7,4.7,6,3,6z"/>
    </g>
    <g transform="translate(240,552) scale(4.12)">
      <rect width="6" height="6"/>
    </g>
    <g transform="translate(264,552) scale(4.12)">
      <rect width="6" height="6"/>
    </g>
    <g transform="translate(288,552) scale(4.12)">
      <rect width="6" height="6"/>
    </g>
    <g transform="translate(336,552) scale(4.12)">
      <path d="M6,6H0V3c0-1.7,1.3-3,3-3h0c1.7,0,3,1.3,3,3V6z"/>
    </g>
    <g transform="translate(384,552) scale(4.12)">
      <path d="M6,6H0V3c0-1.7,1.3-3,3-3l3,0V6z"/>
    </g>
    <g transform="translate(408,552) scale(4.12)">
      <path d="M6,6H0V0l3,0c1.7,0,3,1.3,3,3V6z"/>
    </g>
    <g transform="translate(480,552) scale(4.12)">
      <path d="M6,6H3C1.3,6,0,4.7,0,3v0c0-1.7,1.3-3,3-3h3C6,0,6,6,6,6z"/>
    </g>
    <g transform="translate(504,552) scale(4.12)">
      <path d="M6,6H0V0l3,0c1.7,0,3,1.3,3,3V6z"/>
    </g>
    <g transform="translate(552,552) scale(4.12)">
      <circle cx="3" cy="3" r="3"/>
    </g>
    <g transform="translate(600,552) scale(4.12)">
      <circle cx="3" cy="3" r="3"/>
    </g>
    <g transform="translate(672,552) scale(4.12)">
      <circle cx="3" cy="3" r="3"/>
    </g>
    <g transform="translate(792,552) scale(4.12)">
      <rect width="6" height="6"/>
    </g>
    <g transform="translate(816,552) scale(4.12)">
      <path d="M3,6H0V0l6,0v3C6,4.7,4.7,6,3,6z"/>
    </g>
    <g transform="translate(48,576) scale(4.12)">
      <rect width="6" height="6"/>
    </g>
    <g transform="translate(192,576) scale(4.12)">
      <path d="M6,6H3C1.3,6,0,4.7,0,3v0c0-1.7,1.3-3,3-3h3C6,0,6,6,6,6z"/>
    </g>
    <g transform="translate(216,576) scale(4.12)">
      <rect width="6" height="6"/>
    </g>
    <g transform="translate(240,576) scale(4.12)">
      <rect width="6" height="6"/>
    </g>
    <g transform="translate(264,576) scale(4.12)">
      <rect width="6" height="6"/>
    </g>
    <g transform="translate(288,576) scale(4.12)">
      <rect width="6" height="6"/>
    </g>
    <g transform="translate(312,576) scale(4.12)">
      <rect width="6" height="6"/>
    </g>
    <g transform="translate(336,576) scale(4.12)">
      <rect width="6" height="6"/>
    </g>
    <g transform="translate(360,576) scale(4.12)">
      <rect width="6" height="6"/>
    </g>
    <g transform="translate(384,576) scale(4.12)">
      <rect width="6" height="6"/>
    </g>
    <g transform="translate(408,576) scale(4.12)">
      <rect width="6" height="6"/>
    </g>
    <g transform="translate(432,576) scale(4.12)">
      <path d="M6,6H0V0l3,0c1.7,0,3,1.3,3,3V6z"/>
    </g>
    <g transform="translate(504,576) scale(4.12)">
      <rect width="6" height="6"/>
    </g>
    <g transform="translate(528,576) scale(4.12)">
      <path d="M3,6H0V0l3,0c1.7,0,3,1.3,3,3v0C6,4.7,4.7,6,3,6z"/>
    </g>
    <g transform="translate(696,576) scale(4.12)">
      <circle cx="3" cy="3" r="3"/>
    </g>
    <g transform="translate(744,576) scale(4.12)">
      <path d="M6,6H0V3c0-1.7,1.3-3,3-3l3,0V6z"/>
    </g>
    <g transform="translate(768,576) scale(4.12)">
      <rect width="6" height="6"/>
    </g>
    <g transform="translate(792,576) scale(4.12)">
      <path d="M3,6H0V0l6,0v3C6,4.7,4.7,6,3,6z"/>
    </g>
    <g transform="translate(48,600) scale(4.12)">
      <rect width="6" height="6"/>
    </g>
    <g transform="translate(168,600) scale(4.12)">
      <circle cx="3" cy="3" r="3"/>
    </g>
    <g transform="translate(240,600) scale(4.12)">
      <rect width="6" height="6"/>
    </g>
    <g transform="translate(264,600) scale(4.12)">
      <rect width="6" height="6"/>
    </g>
    <g transform="translate(288,600) scale(4.12)">
      <path d="M3,6H0V0l6,0v3C6,4.7,4.7,6,3,6z"/>
    </g>
    <g transform="translate(408,600) scale(4.12)">
      <path d="M6,6H3C1.3,6,0,4.7,0,3V0l6,0V6z"/>
    </g>
    <g transform="translate(432,600) scale(4.12)">
      <rect width="6" height="6"/>
    </g>
    <g transform="translate(480,600) scale(4.12)">
      <path d="M6,6H3C1.3,6,0,4.7,0,3v0c0-1.7,1.3-3,3-3h3C6,0,6,6,6,6z"/>
    </g>
    <g transform="translate(504,600) scale(4.12)">
      <path d="M3,6H0V0l6,0v3C6,4.7,4.7,6,3,6z"/>
    </g>
    <g transform="translate(552,600) scale(4.12)">
      <path d="M6,6H3C1.3,6,0,4.7,0,3v0c0-1.7,1.3-3,3-3h3C6,0,6,6,6,6z"/>
    </g>
    <g transform="translate(576,600) scale(4.12)">
      <path d="M3,6H0V0l3,0c1.7,0,3,1.3,3,3v0C6,4.7,4.7,6,3,6z"/>
    </g>
    <g transform="translate(624,600) scale(4.12)">
      <path d="M6,6H0V3c0-1.7,1.3-3,3-3h0c1.7,0,3,1.3,3,3V6z"/>
    </g>
    <g transform="translate(744,600) scale(4.12)">
      <rect width="6" height="6"/>
    </g>
    <g transform="translate(768,600) scale(4.12)">
      <path d="M3,6H0V0l6,0v3C6,4.7,4.7,6,3,6z"/>
    </g>
    <g transform="translate(816,600) scale(4.12)">
      <path d="M6,6H0V3c0-1.7,1.3-3,3-3h0c1.7,0,3,1.3,3,3V6z"/>
    </g>
    <g transform="translate(48,624) scale(4.12)">
      <path d="M3,6L3,6C1.3,6,0,4.7,0,3V0h6v3C6,4.7,4.7,6,3,6z"/>
    </g>
    <g transform="translate(96,624) scale(4.12)">
      <circle cx="3" cy="3" r="3"/>
    </g>
    <g transform="translate(192,624) scale(4.12)">
      <path d="M6,6H3C1.3,6,0,4.7,0,3v0c0-1.7,1.3-3,3-3h3C6,0,6,6,6,6z"/>
    </g>
    <g transform="translate(216,624) scale(4.12)">
      <rect width="6" height="6"/>
    </g>
    <g transform="translate(240,624) scale(4.12)">
      <rect width="6" height="6"/>
    </g>
    <g transform="translate(384,624) scale(4.12)">
      <path d="M6,6H0V3c0-1.7,1.3-3,3-3h0c1.7,0,3,1.3,3,3V6z"/>
    </g>
    <g transform="translate(432,624) scale(4.12)">
      <rect width="6" height="6"/>
    </g>
    <g transform="translate(456,624) scale(4.12)">
      <path d="M3,6H0V0l3,0c1.7,0,3,1.3,3,3v0C6,4.7,4.7,6,3,6z"/>
    </g>
    <g transform="translate(624,624) scale(4.12)">
      <rect width="6" height="6"/>
    </g>
    <g transform="translate(648,624) scale(4.12)">
      <rect width="6" height="6"/>
    </g>
    <g transform="translate(672,624) scale(4.12)">
      <rect width="6" height="6"/>
    </g>
    <g transform="translate(696,624) scale(4.12)">
      <rect width="6" height="6"/>
    </g>
    <g transform="translate(720,624) scale(4.12)">
      <rect width="6" height="6"/>
    </g>
    <g transform="translate(744,624) scale(4.12)">
      <rect width="6" height="6"/>
    </g>
    <g transform="translate(792,624) scale(4.12)">
      <path d="M6,6H3C1.3,6,0,4.7,0,3v0c0-1.7,1.3-3,3-3h3C6,0,6,6,6,6z"/>
    </g>
    <g transform="translate(816,624) scale(4.12)">
      <rect width="6" height="6"/>
    </g>
    <g transform="translate(240,648) scale(4.12)">
      <path d="M3,6L3,6C1.3,6,0,4.7,0,3V0h6v3C6,4.7,4.7,6,3,6z"/>
    </g>
    <g transform="translate(288,648) scale(4.12)">
      <circle cx="3" cy="3" r="3"/>
    </g>
    <g transform="translate(384,648) scale(4.12)">
      <path d="M3,6L3,6C1.3,6,0,4.7,0,3V0h6v3C6,4.7,4.7,6,3,6z"/>
    </g>
    <g transform="translate(432,648) scale(4.12)">
      <rect width="6" height="6"/>
    </g>
    <g transform="translate(552,648) scale(4.12)">
      <circle cx="3" cy="3" r="3"/>
    </g>
    <g transform="translate(600,648) scale(4.12)">
      <path d="M6,6H0V3c0-1.7,1.3-3,3-3l3,0V6z"/>
    </g>
    <g transform="translate(624,648) scale(4.12)">
      <rect width="6" height="6"/>
    </g>
    <g transform="translate(720,648) scale(4.12)">
      <rect width="6" height="6"/>
    </g>
    <g transform="translate(744,648) scale(4.12)">
      <rect width="6" height="6"/>
    </g>
    <g transform="translate(768,648) scale(4.12)">
      <path d="M6,6H0V0l3,0c1.7,0,3,1.3,3,3V6z"/>
    </g>
    <g transform="translate(816,648) scale(4.12)">
      <path d="M3,6L3,6C1.3,6,0,4.7,0,3V0h6v3C6,4.7,4.7,6,3,6z"/>
    </g>
    <g transform="translate(312,672) scale(4.12)">
      <path d="M6,6H0V3c0-1.7,1.3-3,3-3h0c1.7,0,3,1.3,3,3V6z"/>
    </g>
    <g transform="translate(360,672) scale(4.12)">
      <path d="M6,6H0V3c0-1.7,1.3-3,3-3h0c1.7,0,3,1.3,3,3V6z"/>
    </g>
    <g transform="translate(432,672) scale(4.12)">
      <path d="M6,6H3C1.3,6,0,4.7,0,3V0l6,0V6z"/>
    </g>
    <g transform="translate(456,672) scale(4.12)">
      <rect width="6" height="6"/>
    </g>
    <g transform="translate(480,672) scale(4.12)">
      <rect width="6" height="6"/>
    </g>
    <g transform="translate(504,672) scale(4.12)">
      <rect width="6" height="6"/>
    </g>
    <g transform="translate(528,672) scale(4.12)">
      <path d="M3,6H0V0l3,0c1.7,0,3,1.3,3,3v0C6,4.7,4.7,6,3,6z"/>
    </g>
    <g transform="translate(576,672) scale(4.12)">
      <path d="M6,6H3C1.3,6,0,4.7,0,3v0c0-1.7,1.3-3,3-3h3C6,0,6,6,6,6z"/>
    </g>
    <g transform="translate(600,672) scale(4.12)">
      <rect width="6" height="6"/>
    </g>
    <g transform="translate(624,672) scale(4.12)">
      <rect width="6" height="6"/>
    </g>
    <g transform="translate(672,672) scale(4.12)">
      <circle cx="3" cy="3" r="3"/>
    </g>
    <g transform="translate(720,672) scale(4.12)">
      <rect width="6" height="6"/>
    </g>
    <g transform="translate(744,672) scale(4.12)">
      <rect width="6" height="6"/>
    </g>
    <g transform="translate(768,672) scale(4.12)">
      <rect width="6" height="6"/>
    </g>
    <g transform="translate(792,672) scale(4.12)">
      <path d="M6,6H0V0l3,0c1.7,0,3,1.3,3,3V6z"/>
    </g>
    <g transform="translate(264,696) scale(4.12)">
      <path d="M6,6H0V3c0-1.7,1.3-3,3-3l3,0V6z"/>
    </g>
    <g transform="translate(288,696) scale(4.12)">
      <rect width="6" height="6"/>
    </g>
    <g transform="translate(312,696) scale(4.12)">
      <path d="M3,6H0V0l6,0v3C6,4.7,4.7,6,3,6z"/>
    </g>
    <g transform="translate(360,696) scale(4.12)">
      <rect width="6" height="6"/>
    </g>
    <g transform="translate(384,696) scale(4.12)">
      <rect width="6" height="6"/>
    </g>
    <g transform="translate(408,696) scale(4.12)">
      <path d="M3,6H0V0l3,0c1.7,0,3,1.3,3,3v0C6,4.7,4.7,6,3,6z"/>
    </g>
    <g transform="translate(480,696) scale(4.12)">
      <rect width="6" height="6"/>
    </g>
    <g transform="translate(552,696) scale(4.12)">
      <path d="M6,6H0V3c0-1.7,1.3-3,3-3h0c1.7,0,3,1.3,3,3V6z"/>
    </g>
    <g transform="translate(600,696) scale(4.12)">
      <path d="M6,6H3C1.3,6,0,4.7,0,3V0l6,0V6z"/>
    </g>
    <g transform="translate(624,696) scale(4.12)">
      <rect width="6" height="6"/>
    </g>
    <g transform="translate(720,696) scale(4.12)">
      <rect width="6" height="6"/>
    </g>
    <g transform="translate(768,696) scale(4.12)">
      <path d="M6,6H3C1.3,6,0,4.7,0,3V0l6,0V6z"/>
    </g>
    <g transform="translate(792,696) scale(4.12)">
      <rect width="6" height="6"/>
    </g>
    <g transform="translate(816,696) scale(4.12)">
      <path d="M6,6H0V0l3,0c1.7,0,3,1.3,3,3V6z"/>
    </g>
    <g transform="translate(240,720) scale(4.12)">
      <path d="M6,6H0V3c0-1.7,1.3-3,3-3l3,0V6z"/>
    </g>
    <g transform="translate(264,720) scale(4.12)">
      <path d="M3,6H0V0l6,0v3C6,4.7,4.7,6,3,6z"/>
    </g>
    <g transform="translate(336,720) scale(4.12)">
      <path d="M6,6H3C1.3,6,0,4.7,0,3v0c0-1.7,1.3-3,3-3h3C6,0,6,6,6,6z"/>
    </g>
    <g transform="translate(360,720) scale(4.12)">
      <rect width="6" height="6"/>
    </g>
    <g transform="translate(384,720) scale(4.12)">
      <path d="M3,6H0V0l6,0v3C6,4.7,4.7,6,3,6z"/>
    </g>
    <g transform="translate(480,720) scale(4.12)">
      <path d="M6,6H3C1.3,6,0,4.7,0,3V0l6,0V6z"/>
    </g>
    <g transform="translate(504,720) scale(4.12)">
      <rect width="6" height="6"/>
    </g>
    <g transform="translate(528,720) scale(4.12)">
      <rect width="6" height="6"/>
    </g>
    <g transform="translate(552,720) scale(4.12)">
      <rect width="6" height="6"/>
    </g>
    <g transform="translate(624,720) scale(4.12)">
      <rect width="6" height="6"/>
    </g>
    <g transform="translate(648,720) scale(4.12)">
      <rect width="6" height="6"/>
    </g>
    <g transform="translate(672,720) scale(4.12)">
      <rect width="6" height="6"/>
    </g>
    <g transform="translate(696,720) scale(4.12)">
      <rect width="6" height="6"/>
    </g>
    <g transform="translate(720,720) scale(4.12)">
      <rect width="6" height="6"/>
    </g>
    <g transform="translate(792,720) scale(4.12)">
      <path d="M6,6H3C1.3,6,0,4.7,0,3V0l6,0V6z"/>
    </g>
    <g transform="translate(816,720) scale(4.12)">
      <rect width="6" height="6"/>
    </g>
    <g transform="translate(240,744) scale(4.12)">
      <rect width="6" height="6"/>
    </g>
    <g transform="translate(408,744) scale(4.12)">
      <path d="M6,6H3C1.3,6,0,4.7,0,3v0c0-1.7,1.3-3,3-3h3C6,0,6,6,6,6z"/>
    </g>
    <g transform="translate(432,744) scale(4.12)">
      <path d="M6,6H0V0l3,0c1.7,0,3,1.3,3,3V6z"/>
    </g>
    <g transform="translate(528,744) scale(4.12)">
      <rect width="6" height="6"/>
    </g>
    <g transform="translate(552,744) scale(4.12)">
      <path d="M3,6H0V0l6,0v3C6,4.7,4.7,6,3,6z"/>
    </g>
    <g transform="translate(600,744) scale(4.12)">
      <path d="M6,6H3C1.3,6,0,4.7,0,3v0c0-1.7,1.3-3,3-3h3C6,0,6,6,6,6z"/>
    </g>
    <g transform="translate(624,744) scale(4.12)">
      <rect width="6" height="6"/>
    </g>
    <g transform="translate(648,744) scale(4.12)">
      <rect width="6" height="6"/>
    </g>
    <g transform="translate(720,744) scale(4.12)">
      <path d="M6,6H3C1.3,6,0,4.7,0,3V0l6,0V6z"/>
    </g>
    <g transform="translate(744,744) scale(4.12)">
      <path d="M6,6H0V0l3,0c1.7,0,3,1.3,3,3V6z"/>
    </g>
    <g transform="translate(816,744) scale(4.12)">
      <path d="M3,6L3,6C1.3,6,0,4.7,0,3V0h6v3C6,4.7,4.7,6,3,6z"/>
    </g>
    <g transform="translate(240,768) scale(4.12)">
      <path d="M3,6L3,6C1.3,6,0,4.7,0,3V0h6v3C6,4.7,4.7,6,3,6z"/>
    </g>
    <g transform="translate(288,768) scale(4.12)">
      <circle cx="3" cy="3" r="3"/>
    </g>
    <g transform="translate(336,768) scale(4.12)">
      <path d="M6,6H0V3c0-1.7,1.3-3,3-3h0c1.7,0,3,1.3,3,3V6z"/>
    </g>
    <g transform="translate(432,768) scale(4.12)">
      <path d="M6,6H3C1.3,6,0,4.7,0,3V0l6,0V6z"/>
    </g>
    <g transform="translate(456,768) scale(4.12)">
      <path d="M3,6H0V0l3,0c1.7,0,3,1.3,3,3v0C6,4.7,4.7,6,3,6z"/>
    </g>
    <g transform="translate(504,768) scale(4.12)">
      <path d="M6,6H0V3c0-1.7,1.3-3,3-3l3,0V6z"/>
    </g>
    <g transform="translate(528,768) scale(4.12)">
      <path d="M3,6H0V0l6,0v3C6,4.7,4.7,6,3,6z"/>
    </g>
    <g transform="translate(576,768) scale(4.12)">
      <circle cx="3" cy="3" r="3"/>
    </g>
    <g transform="translate(624,768) scale(4.12)">
      <path d="M6,6H3C1.3,6,0,4.7,0,3V0l6,0V6z"/>
    </g>
    <g transform="translate(648,768) scale(4.12)">
      <rect width="6" height="6"/>
    </g>
    <g transform="translate(672,768) scale(4.12)">
      <path d="M3,6H0V0l3,0c1.7,0,3,1.3,3,3v0C6,4.7,4.7,6,3,6z"/>
    </g>
    <g transform="translate(744,768) scale(4.12)">
      <rect width="6" height="6"/>
    </g>
    <g transform="translate(312,792) scale(4.12)">
      <path d="M6,6H0V3c0-1.7,1.3-3,3-3l3,0V6z"/>
    </g>
    <g transform="translate(336,792) scale(4.12)">
      <rect width="6" height="6"/>
    </g>
    <g transform="translate(360,792) scale(4.12)">
      <rect width="6" height="6"/>
    </g>
    <g transform="translate(384,792) scale(4.12)">
      <rect width="6" height="6"/>
    </g>
    <g transform="translate(408,792) scale(4.12)">
      <path d="M3,6H0V0l3,0c1.7,0,3,1.3,3,3v0C6,4.7,4.7,6,3,6z"/>
    </g>
    <g transform="translate(480,792) scale(4.12)">
      <path d="M6,6H0V3c0-1.7,1.3-3,3-3l3,0V6z"/>
    </g>
    <g transform="translate(504,792) scale(4.12)">
      <path d="M3,6H0V0l6,0v3C6,4.7,4.7,6,3,6z"/>
    </g>
    <g transform="translate(552,792) scale(4.12)">
      <circle cx="3" cy="3" r="3"/>
    </g>
    <g transform="translate(600,792) scale(4.12)">
      <path d="M6,6H0V3c0-1.7,1.3-3,3-3h0c1.7,0,3,1.3,3,3V6z"/>
    </g>
    <g transform="translate(648,792) scale(4.12)">
      <rect width="6" height="6"/>
    </g>
    <g transform="translate(696,792) scale(4.12)">
      <circle cx="3" cy="3" r="3"/>
    </g>
    <g transform="translate(744,792) scale(4.12)">
      <rect width="6" height="6"/>
    </g>
    <g transform="translate(768,792) scale(4.12)">
      <path d="M3,6H0V0l3,0c1.7,0,3,1.3,3,3v0C6,4.7,4.7,6,3,6z"/>
    </g>
    <g transform="translate(312,816) scale(4.12)">
      <path d="M3,6L3,6C1.3,6,0,4.7,0,3V0h6v3C6,4.7,4.7,6,3,6z"/>
    </g>
    <g transform="translate(360,816) scale(4.12)">
      <path d="M6,6H3C1.3,6,0,4.7,0,3V0l6,0V6z"/>
    </g>
    <g transform="translate(384,816) scale(4.12)">
      <path d="M3,6H0V0l6,0v3C6,4.7,4.7,6,3,6z"/>
    </g>
    <g transform="translate(480,816) scale(4.12)">
      <path d="M3,6L3,6C1.3,6,0,4.7,0,3V0h6v3C6,4.7,4.7,6,3,6z"/>
    </g>
    <g transform="translate(576,816) scale(4.12)">
      <path d="M6,6H3C1.3,6,0,4.7,0,3v0c0-1.7,1.3-3,3-3h3C6,0,6,6,6,6z"/>
    </g>
    <g transform="translate(600,816) scale(4.12)">
      <rect width="6" height="6"/>
    </g>
    <g transform="translate(624,816) scale(4.12)">
      <rect width="6" height="6"/>
    </g>
    <g transform="translate(648,816) scale(4.12)">
      <path d="M3,6H0V0l6,0v3C6,4.7,4.7,6,3,6z"/>
    </g>
    <g transform="translate(744,816) scale(4.12)">
      <path d="M3,6L3,6C1.3,6,0,4.7,0,3V0h6v3C6,4.7,4.7,6,3,6z"/>
    </g>
    <g transform="translate(792,816) scale(4.12)">
      <circle cx="3" cy="3" r="3"/>
    </g>
    <g transform="translate(48,48)">
      <g transform="scale(12)">
        <path d="M4.5,14h5.1C12,14,14,12,14,9.6V4.5C14,2,12,0,9.5,0H4.4C2,0,0,2,0,4.4v5.1C0,12,2,14,4.5,14z M12,4.8v4.4 c0,1.5-1.3,2.8-2.8,2.8H4.8C3.2,12,2,10.8,2,9.2V4.8C2,3.3,3.3,2,4.8,2h4.4C10.8,2,12,3.2,12,4.8z"/>
      </g>
    </g>
    <g transform="translate(672,48)">
      <g transform="scale(12)">
        <path d="M4.5,14h5.1C12,14,14,12,14,9.6V4.5C14,2,12,0,9.5,0H4.4C2,0,0,2,0,4.4v5.1C0,12,2,14,4.5,14z M12,4.8v4.4 c0,1.5-1.3,2.8-2.8,2.8H4.8C3.2,12,2,10.8,2,9.2V4.8C2,3.3,3.3,2,4.8,2h4.4C10.8,2,12,3.2,12,4.8z"/>
      </g>
    </g>
    <g transform="translate(48,672)">
      <g transform="scale(12)">
        <path d="M4.5,14h5.1C12,14,14,12,14,9.6V4.5C14,2,12,0,9.5,0H4.4C2,0,0,2,0,4.4v5.1C0,12,2,14,4.5,14z M12,4.8v4.4 c0,1.5-1.3,2.8-2.8,2.8H4.8C3.2,12,2,10.8,2,9.2V4.8C2,3.3,3.3,2,4.8,2h4.4C10.8,2,12,3.2,12,4.8z"/>
      </g>
    </g>
    <g transform="translate(96,96)">
      <g transform="scale(12)">
        <path d="M6,1.7v2.7C6,5.2,5.2,6,4.3,6H1.7C0.7,6,0,5.3,0,4.3V1.7C0,0.8,0.8,0,1.7,0h2.7C5.3,0,6,0.7,6,1.7z"/>
      </g>
    </g>
    <g transform="translate(720,96)">
      <g transform="scale(12)">
        <path d="M6,1.7v2.7C6,5.2,5.2,6,4.3,6H1.7C0.7,6,0,5.3,0,4.3V1.7C0,0.8,0.8,0,1.7,0h2.7C5.3,0,6,0.7,6,1.7z"/>
      </g>
    </g>
    <g transform="translate(96,720)">
      <g transform="scale(12)">
        <path d="M6,1.7v2.7C6,5.2,5.2,6,4.3,6H1.7C0.7,6,0,5.3,0,4.3V1.7C0,0.8,0.8,0,1.7,0h2.7C5.3,0,6,0.7,6,1.7z"/>
      </g>
    </g>
  </g>
  <g id="Logo" transform="matrix(0.390666, 0, 0, 0.423935, 781.253357, 462.183899)" style="">
    <linearGradient id="SVGID_SVGID_1__1" gradientUnits="userSpaceOnUse" gradientTransform="matrix(1 0 0 1 0 0)" x1="134.6856" y1="578.1185" x2="481.5801" y2="113.0678">
      <stop offset="0" style="stop-color:#11156D;stop-opacity: 1"/>
      <stop offset="1" style="stop-color:#48569E;stop-opacity: 1"/>
    </linearGradient>
    <path style="stroke: none; stroke-width: 1; stroke-dasharray: none; stroke-linecap: butt; stroke-dashoffset: 0; stroke-linejoin: miter; stroke-miterlimit: 4; fill: url('#SVGID_SVGID_1__1'); fill-rule: nonzero; opacity: 1; filter: url('#SVGID_437'); paint-order: fill;" transform=" translate(-256.03, -256.02)" d="M 486.2 405.6 L 298.8 81 c -19.9 -30.2 -43.9 -97.7 -78.7 -35.2 L 4.8 418.7 c -13.6 23.6 3.7 73.2 30.6 73.2 L 220 172 l 0 0 c 33.6 -62.5 58.1 1.4 78.8 35.4 l 127.8 221.4 h -25.5 c -25.5 0 -38.4 -6 -51.1 -18.8 l -60.2 -60.2 c -22.7 -22.7 -34.6 -25.8 -50.4 -25.8 h -20.2 c -31.1 0 -37.3 45.4 -56.1 63.1 h 43.7 c 28.7 0 38.2 7.2 56.8 25.8 l 58.7 58.7 c 17.2 17.2 33.7 20.3 63 20.3 H 512 C 512 466.2 512 448.5 486.2 405.6 z" stroke-linecap="round"/>
  </g>
</svg>