<?xml version="1.0" encoding="utf-8"?>
<svg viewBox="0 0 450 450" xmlns="http://www.w3.org/2000/svg">
  <g id="Logo" transform="matrix(0.2, 0, 0, 0.2, 246.133209, 213.479279)">
    <linearGradient id="SVGID_SVGID_1__1" gradientUnits="userSpaceOnUse" gradientTransform="matrix(1 0 0 1 0 0)" x1="134.6856" y1="578.1185" x2="481.5801" y2="113.0678">
      <stop offset="0" style="stop-color:#11156D;stop-opacity: 1"/>
      <stop offset="1" style="stop-color:#48569E;stop-opacity: 1"/>
    </linearGradient>
    <path style="stroke-dasharray: none; stroke-linecap: butt; stroke-dashoffset: 0; stroke-linejoin: miter; stroke-miterlimit: 4; fill: url('#SVGID_SVGID_1__1'); fill-rule: nonzero; opacity: 1; filter: url('#SVGID_437'); stroke: rgb(255, 255, 255); paint-order: stroke; stroke-width: 10px;" transform=" translate(-256.03, -256.02)" d="M 486.2 405.6 L 298.8 81 c -19.9 -30.2 -43.9 -97.7 -78.7 -35.2 L 4.8 418.7 c -13.6 23.6 3.7 73.2 30.6 73.2 L 220 172 l 0 0 c 33.6 -62.5 58.1 1.4 78.8 35.4 l 127.8 221.4 h -25.5 c -25.5 0 -38.4 -6 -51.1 -18.8 l -60.2 -60.2 c -22.7 -22.7 -34.6 -25.8 -50.4 -25.8 h -20.2 c -31.1 0 -37.3 45.4 -56.1 63.1 h 43.7 c 28.7 0 38.2 7.2 56.8 25.8 l 58.7 58.7 c 17.2 17.2 33.7 20.3 63 20.3 H 512 C 512 466.2 512 448.5 486.2 405.6 z" stroke-linecap="round"/>
  </g>
  <path d="M 12.705 213.821 L 12.705 239.181 L 3.505 239.181 L 3.505 183.981 L 12.705 183.981 L 12.705 206.621 L 18.625 206.621 L 33.745 183.981 L 43.265 183.981 L 26.385 209.581 L 44.785 239.181 L 34.145 239.181 L 18.625 213.821 L 12.705 213.821 Z M 90.138 211.581 C 90.138 220.328 88.338 227.288 84.738 232.461 C 81.138 237.634 75.951 240.221 69.178 240.221 C 62.405 240.221 57.218 237.674 53.618 232.581 C 50.018 227.488 48.218 220.514 48.218 211.661 C 48.218 202.914 50.018 195.928 53.618 190.701 C 57.218 185.474 62.405 182.861 69.178 182.861 C 75.951 182.861 81.138 185.434 84.738 190.581 C 88.338 195.728 90.138 202.728 90.138 211.581 Z M 80.618 211.581 C 80.618 204.328 79.711 198.941 77.898 195.421 C 76.085 191.901 73.178 190.141 69.178 190.141 C 65.178 190.141 62.271 191.901 60.458 195.421 C 58.645 198.941 57.738 204.354 57.738 211.661 C 57.738 218.861 58.658 224.221 60.498 227.741 C 62.338 231.261 65.231 233.021 69.178 233.021 C 73.178 233.021 76.085 231.261 77.898 227.741 C 79.711 224.221 80.618 218.834 80.618 211.581 Z M 138.292 201.341 C 138.292 207.528 136.372 212.101 132.532 215.061 C 128.692 218.021 123.439 219.501 116.772 219.501 L 110.052 219.501 L 110.052 239.181 L 100.852 239.181 L 100.852 183.981 L 116.132 183.981 C 123.225 183.981 128.692 185.434 132.532 188.341 C 136.372 191.248 138.292 195.581 138.292 201.341 Z M 128.612 201.341 C 128.612 194.408 124.665 190.941 116.772 190.941 L 110.052 190.941 L 110.052 212.461 L 116.852 212.461 C 120.585 212.461 123.479 211.608 125.532 209.901 C 127.585 208.194 128.612 205.341 128.612 201.341 Z M 169.813 182.861 C 173.44 182.861 176.533 183.314 179.093 184.221 C 181.653 185.128 184.106 186.541 186.453 188.461 L 181.653 194.221 C 178.293 191.501 174.48 190.141 170.213 190.141 C 165.733 190.141 162.08 191.861 159.253 195.301 C 156.426 198.741 155.013 204.141 155.013 211.501 C 155.013 218.754 156.4 224.101 159.173 227.541 C 161.946 230.981 165.653 232.701 170.293 232.701 C 172.96 232.701 175.24 232.288 177.133 231.461 C 179.026 230.634 180.906 229.474 182.773 227.981 L 187.253 233.661 C 182.773 238.034 177.013 240.221 169.973 240.221 C 165.226 240.221 160.986 239.114 157.253 236.901 C 153.52 234.688 150.6 231.421 148.493 227.101 C 146.386 222.781 145.333 217.581 145.333 211.501 C 145.333 205.528 146.413 200.381 148.573 196.061 C 150.733 191.741 153.68 188.461 157.413 186.221 C 161.146 183.981 165.28 182.861 169.813 182.861 Z M 321.869 213.821 L 321.869 239.181 L 312.669 239.181 L 312.669 183.981 L 321.869 183.981 L 321.869 206.621 L 327.789 206.621 L 342.909 183.981 L 352.429 183.981 L 335.549 209.581 L 353.949 239.181 L 343.309 239.181 L 327.789 213.821 L 321.869 213.821 Z M 399.302 211.581 C 399.302 220.328 397.502 227.288 393.902 232.461 C 390.302 237.634 385.115 240.221 378.342 240.221 C 371.569 240.221 366.382 237.674 362.782 232.581 C 359.182 227.488 357.382 220.514 357.382 211.661 C 357.382 202.914 359.182 195.928 362.782 190.701 C 366.382 185.474 371.569 182.861 378.342 182.861 C 385.115 182.861 390.302 185.434 393.902 190.581 C 397.502 195.728 399.302 202.728 399.302 211.581 Z M 389.782 211.581 C 389.782 204.328 388.875 198.941 387.062 195.421 C 385.249 191.901 382.342 190.141 378.342 190.141 C 374.342 190.141 371.435 191.901 369.622 195.421 C 367.809 198.941 366.902 204.354 366.902 211.661 C 366.902 218.861 367.822 224.221 369.662 227.741 C 371.502 231.261 374.395 233.021 378.342 233.021 C 382.342 233.021 385.249 231.261 387.062 227.741 C 388.875 224.221 389.782 218.834 389.782 211.581 Z M 446.495 223.261 C 446.495 228.968 444.468 233.048 440.415 235.501 C 436.362 237.954 431.215 239.181 424.975 239.181 L 408.815 239.181 L 408.815 183.981 L 423.935 183.981 C 429.802 183.981 434.628 185.061 438.415 187.221 C 442.202 189.381 444.095 192.968 444.095 197.981 C 444.095 201.181 443.122 203.808 441.175 205.861 C 439.228 207.914 436.788 209.261 433.855 209.901 C 437.482 210.541 440.495 211.888 442.895 213.941 C 445.295 215.994 446.495 219.101 446.495 223.261 Z M 434.655 198.701 C 434.655 195.981 433.815 194.008 432.135 192.781 C 430.455 191.554 427.988 190.941 424.735 190.941 L 418.095 190.941 L 418.095 206.861 L 425.295 206.861 C 428.442 206.861 430.788 206.208 432.335 204.901 C 433.882 203.594 434.655 201.528 434.655 198.701 Z M 436.815 223.261 C 436.815 219.794 435.855 217.354 433.935 215.941 C 432.015 214.528 429.348 213.821 425.935 213.821 L 418.095 213.821 L 418.095 231.981 L 425.615 231.981 C 433.082 231.981 436.815 229.074 436.815 223.261 Z" style="stroke: rgb(255, 255, 255); paint-order: stroke; stroke-width: 2px;"/>
  <path d="M 164.4 265.298 C 165.307 265.298 166.08 265.411 166.72 265.638 C 167.36 265.865 167.973 266.218 168.56 266.698 L 167.36 268.138 C 166.52 267.458 165.567 267.118 164.5 267.118 C 163.38 267.118 162.467 267.548 161.76 268.408 C 161.053 269.268 160.7 270.618 160.7 272.458 C 160.7 274.271 161.047 275.608 161.74 276.468 C 162.433 277.328 163.36 277.758 164.52 277.758 C 165.187 277.758 165.757 277.655 166.23 277.448 C 166.703 277.241 167.173 276.951 167.64 276.578 L 168.76 277.998 C 167.64 279.091 166.2 279.638 164.44 279.638 C 163.253 279.638 162.193 279.361 161.26 278.808 C 160.327 278.255 159.597 277.438 159.07 276.358 C 158.543 275.278 158.28 273.978 158.28 272.458 C 158.28 270.965 158.55 269.678 159.09 268.598 C 159.63 267.518 160.367 266.698 161.3 266.138 C 162.233 265.578 163.267 265.298 164.4 265.298 Z M 177.212 274.858 L 173.252 274.858 L 173.252 279.378 L 171.012 279.378 L 171.012 268.818 L 173.252 268.818 L 173.252 273.118 L 177.212 273.118 L 177.212 268.818 L 179.452 268.818 L 179.452 279.378 L 177.212 279.378 L 177.212 274.858 Z M 187.245 268.538 C 188.765 268.538 189.938 269.035 190.765 270.028 C 191.592 271.021 192.005 272.371 192.005 274.078 C 192.005 275.785 191.585 277.138 190.745 278.138 C 189.905 279.138 188.732 279.638 187.225 279.638 C 185.705 279.638 184.528 279.148 183.695 278.168 C 182.862 277.188 182.445 275.831 182.445 274.098 C 182.445 272.418 182.868 271.071 183.715 270.058 C 184.562 269.045 185.738 268.538 187.245 268.538 Z M 187.245 270.278 C 186.432 270.278 185.822 270.591 185.415 271.218 C 185.008 271.845 184.805 272.805 184.805 274.098 C 184.805 275.405 185.005 276.368 185.405 276.988 C 185.805 277.608 186.412 277.918 187.225 277.918 C 188.038 277.918 188.645 277.605 189.045 276.978 C 189.445 276.351 189.645 275.385 189.645 274.078 C 189.645 272.785 189.445 271.828 189.045 271.208 C 188.645 270.588 188.045 270.278 187.245 270.278 Z M 201.385 273.618 C 203.172 273.818 204.065 274.691 204.065 276.238 C 204.065 277.291 203.628 278.078 202.755 278.598 C 201.882 279.118 200.772 279.378 199.425 279.378 L 195.205 279.378 L 195.205 268.938 C 196.605 268.671 197.898 268.538 199.085 268.538 C 200.445 268.538 201.528 268.781 202.335 269.268 C 203.142 269.755 203.545 270.438 203.545 271.318 C 203.545 271.905 203.372 272.388 203.025 272.768 C 202.678 273.148 202.132 273.431 201.385 273.618 Z M 199.085 270.138 C 198.512 270.138 197.965 270.178 197.445 270.258 L 197.445 273.058 L 199.305 273.058 C 199.958 273.058 200.455 272.941 200.795 272.708 C 201.135 272.475 201.305 272.098 201.305 271.578 C 201.305 271.071 201.125 270.705 200.765 270.478 C 200.405 270.251 199.845 270.138 199.085 270.138 Z M 199.185 277.738 C 199.972 277.738 200.595 277.628 201.055 277.408 C 201.515 277.188 201.745 276.765 201.745 276.138 C 201.745 275.045 200.978 274.498 199.445 274.498 L 197.445 274.498 L 197.445 277.738 L 199.185 277.738 Z M 215.078 276.798 C 215.078 277.198 215.138 277.495 215.258 277.688 C 215.378 277.881 215.585 278.025 215.878 278.118 L 215.358 279.638 C 214.251 279.505 213.525 279.018 213.178 278.178 C 212.791 278.658 212.308 279.021 211.728 279.268 C 211.148 279.515 210.511 279.638 209.818 279.638 C 208.751 279.638 207.905 279.338 207.278 278.738 C 206.651 278.138 206.338 277.345 206.338 276.358 C 206.338 275.251 206.775 274.398 207.648 273.798 C 208.521 273.198 209.758 272.898 211.358 272.898 L 212.858 272.898 L 212.858 272.218 C 212.858 271.551 212.658 271.065 212.258 270.758 C 211.858 270.451 211.278 270.298 210.518 270.298 C 210.145 270.298 209.711 270.345 209.218 270.438 C 208.725 270.531 208.225 270.665 207.718 270.838 L 207.158 269.258 C 208.425 268.778 209.658 268.538 210.858 268.538 C 212.258 268.538 213.311 268.845 214.018 269.458 C 214.725 270.071 215.078 270.945 215.078 272.078 L 215.078 276.798 Z M 210.478 277.998 C 210.945 277.998 211.395 277.878 211.828 277.638 C 212.261 277.398 212.605 277.065 212.858 276.638 L 212.858 274.298 L 211.618 274.298 C 210.605 274.298 209.865 274.468 209.398 274.808 C 208.931 275.148 208.698 275.638 208.698 276.278 C 208.698 276.838 208.848 277.265 209.148 277.558 C 209.448 277.851 209.891 277.998 210.478 277.998 Z M 237.211 270.558 L 233.211 270.558 L 233.211 279.378 L 230.991 279.378 L 230.991 268.818 L 239.431 268.818 L 239.431 279.378 L 237.211 279.378 L 237.211 270.558 Z M 247.223 268.538 C 248.743 268.538 249.916 269.035 250.743 270.028 C 251.57 271.021 251.983 272.371 251.983 274.078 C 251.983 275.785 251.563 277.138 250.723 278.138 C 249.883 279.138 248.71 279.638 247.203 279.638 C 245.683 279.638 244.506 279.148 243.673 278.168 C 242.84 277.188 242.423 275.831 242.423 274.098 C 242.423 272.418 242.846 271.071 243.693 270.058 C 244.54 269.045 245.716 268.538 247.223 268.538 Z M 247.223 270.278 C 246.41 270.278 245.8 270.591 245.393 271.218 C 244.986 271.845 244.783 272.805 244.783 274.098 C 244.783 275.405 244.983 276.368 245.383 276.988 C 245.783 277.608 246.39 277.918 247.203 277.918 C 248.016 277.918 248.623 277.605 249.023 276.978 C 249.423 276.351 249.623 275.385 249.623 274.078 C 249.623 272.785 249.423 271.828 249.023 271.208 C 248.623 270.588 248.023 270.278 247.223 270.278 Z M 255.583 272.198 L 262.823 272.198 L 262.823 274.038 L 255.583 274.038 L 255.583 272.198 Z M 273.176 274.858 L 269.216 274.858 L 269.216 279.378 L 266.976 279.378 L 266.976 268.818 L 269.216 268.818 L 269.216 273.118 L 273.176 273.118 L 273.176 268.818 L 275.416 268.818 L 275.416 279.378 L 273.176 279.378 L 273.176 274.858 Z M 287.056 276.798 C 287.056 277.198 287.116 277.495 287.236 277.688 C 287.356 277.881 287.563 278.025 287.856 278.118 L 287.336 279.638 C 286.229 279.505 285.503 279.018 285.156 278.178 C 284.769 278.658 284.286 279.021 283.706 279.268 C 283.126 279.515 282.489 279.638 281.796 279.638 C 280.729 279.638 279.883 279.338 279.256 278.738 C 278.629 278.138 278.316 277.345 278.316 276.358 C 278.316 275.251 278.753 274.398 279.626 273.798 C 280.499 273.198 281.736 272.898 283.336 272.898 L 284.836 272.898 L 284.836 272.218 C 284.836 271.551 284.636 271.065 284.236 270.758 C 283.836 270.451 283.256 270.298 282.496 270.298 C 282.123 270.298 281.689 270.345 281.196 270.438 C 280.703 270.531 280.203 270.665 279.696 270.838 L 279.136 269.258 C 280.403 268.778 281.636 268.538 282.836 268.538 C 284.236 268.538 285.289 268.845 285.996 269.458 C 286.703 270.071 287.056 270.945 287.056 272.078 L 287.056 276.798 Z M 282.456 277.998 C 282.923 277.998 283.373 277.878 283.806 277.638 C 284.239 277.398 284.583 277.065 284.836 276.638 L 284.836 274.298 L 283.596 274.298 C 282.583 274.298 281.843 274.468 281.376 274.808 C 280.909 275.148 280.676 275.638 280.676 276.278 C 280.676 276.838 280.826 277.265 281.126 277.558 C 281.426 277.851 281.869 277.998 282.456 277.998 Z M 296.069 277.798 C 296.909 277.798 297.776 277.498 298.669 276.898 L 299.689 278.338 C 299.222 278.738 298.662 279.055 298.009 279.288 C 297.356 279.521 296.682 279.638 295.989 279.638 C 294.376 279.638 293.116 279.141 292.209 278.148 C 291.302 277.155 290.849 275.825 290.849 274.158 C 290.849 273.078 291.056 272.115 291.469 271.268 C 291.882 270.421 292.479 269.755 293.259 269.268 C 294.039 268.781 294.962 268.538 296.029 268.538 C 297.429 268.538 298.649 268.965 299.689 269.818 L 298.649 271.218 C 297.796 270.631 296.936 270.338 296.069 270.338 C 295.189 270.338 294.496 270.655 293.989 271.288 C 293.482 271.921 293.229 272.878 293.229 274.158 C 293.229 275.411 293.482 276.331 293.989 276.918 C 294.496 277.505 295.189 277.798 296.069 277.798 Z M 311.901 270.558 L 308.301 270.558 L 308.301 279.378 L 306.061 279.378 L 306.061 270.558 L 302.321 270.558 L 302.321 268.818 L 312.161 268.818 L 311.901 270.558 Z M 319.201 268.538 C 320.721 268.538 321.894 269.035 322.721 270.028 C 323.548 271.021 323.961 272.371 323.961 274.078 C 323.961 275.785 323.541 277.138 322.701 278.138 C 321.861 279.138 320.688 279.638 319.181 279.638 C 317.661 279.638 316.484 279.148 315.651 278.168 C 314.818 277.188 314.401 275.831 314.401 274.098 C 314.401 272.418 314.824 271.071 315.671 270.058 C 316.518 269.045 317.694 268.538 319.201 268.538 Z M 319.201 270.278 C 318.388 270.278 317.778 270.591 317.371 271.218 C 316.964 271.845 316.761 272.805 316.761 274.098 C 316.761 275.405 316.961 276.368 317.361 276.988 C 317.761 277.608 318.368 277.918 319.181 277.918 C 319.994 277.918 320.601 277.605 321.001 276.978 C 321.401 276.351 321.601 275.385 321.601 274.078 C 321.601 272.785 321.401 271.828 321.001 271.208 C 320.601 270.588 320.001 270.278 319.201 270.278 Z M 335.194 268.818 L 335.194 279.378 L 332.954 279.378 L 332.954 275.438 L 330.574 275.438 L 328.434 279.378 L 325.974 279.378 L 328.514 274.938 C 327.914 274.658 327.457 274.281 327.144 273.808 C 326.831 273.335 326.674 272.778 326.674 272.138 C 326.674 271.085 327.064 270.268 327.844 269.688 C 328.624 269.108 329.741 268.818 331.194 268.818 L 335.194 268.818 Z M 332.954 273.878 L 332.954 270.398 L 331.154 270.398 C 330.434 270.398 329.897 270.538 329.544 270.818 C 329.191 271.098 329.014 271.525 329.014 272.098 C 329.014 272.711 329.184 273.161 329.524 273.448 C 329.864 273.735 330.401 273.878 331.134 273.878 L 332.954 273.878 Z M 349.654 277.638 L 349.654 282.518 L 347.874 282.518 L 347.554 279.378 L 337.974 279.378 L 337.974 268.818 L 339.974 268.818 L 339.974 277.618 L 342.254 277.618 L 342.254 268.818 L 344.094 268.818 L 344.094 277.618 L 346.374 277.618 L 346.374 268.818 L 348.374 268.818 L 348.374 277.638 L 349.654 277.638 Z M 352.807 274.818 C 352.874 275.845 353.17 276.615 353.697 277.128 C 354.224 277.641 354.887 277.898 355.687 277.898 C 356.18 277.898 356.65 277.821 357.097 277.668 C 357.544 277.515 358 277.285 358.467 276.978 L 359.427 278.338 C 358.934 278.751 358.354 279.071 357.687 279.298 C 357.02 279.525 356.32 279.638 355.587 279.638 C 353.974 279.638 352.72 279.135 351.827 278.128 C 350.934 277.121 350.487 275.778 350.487 274.098 C 350.487 273.045 350.68 272.095 351.067 271.248 C 351.454 270.401 352.014 269.738 352.747 269.258 C 353.48 268.778 354.334 268.538 355.307 268.538 C 356.707 268.538 357.817 269.008 358.637 269.948 C 359.457 270.888 359.867 272.178 359.867 273.818 C 359.867 274.218 359.847 274.551 359.807 274.818 L 352.807 274.818 Z M 355.327 270.198 C 354.607 270.198 354.02 270.458 353.567 270.978 C 353.114 271.498 352.854 272.271 352.787 273.298 L 357.687 273.298 C 357.66 272.298 357.447 271.531 357.047 270.998 C 356.647 270.465 356.074 270.198 355.327 270.198 Z M 372.479 279.378 L 370.419 279.378 L 370.099 274.818 C 370.059 274.018 370.039 273.198 370.039 272.358 C 370.039 271.745 370.046 271.271 370.059 270.938 L 369.979 270.938 L 368.139 277.638 L 366.239 277.638 L 364.199 270.938 L 364.119 270.938 C 364.146 271.271 364.159 271.785 364.159 272.478 C 364.159 273.291 364.139 274.078 364.099 274.838 L 363.879 279.378 L 361.839 279.378 L 362.579 268.818 L 365.239 268.818 L 367.219 275.758 L 368.999 268.818 L 371.719 268.818 L 372.479 279.378 Z M 380.539 279.418 C 380.112 280.698 379.496 281.701 378.689 282.428 C 377.882 283.155 376.772 283.578 375.359 283.698 L 375.079 282.018 C 375.772 281.911 376.332 281.748 376.759 281.528 C 377.186 281.308 377.526 281.031 377.779 280.698 C 378.032 280.365 378.259 279.925 378.459 279.378 L 377.699 279.378 L 374.139 268.818 L 376.519 268.818 L 379.179 277.818 L 381.879 268.818 L 384.179 268.818 L 380.539 279.418 Z M 407.872 270.558 L 404.272 270.558 L 404.272 279.378 L 402.032 279.378 L 402.032 270.558 L 398.292 270.558 L 398.292 268.818 L 408.132 268.818 L 407.872 270.558 Z M 417.305 273.618 C 419.092 273.818 419.985 274.691 419.985 276.238 C 419.985 277.291 419.548 278.078 418.675 278.598 C 417.802 279.118 416.692 279.378 415.345 279.378 L 411.125 279.378 L 411.125 268.938 C 412.525 268.671 413.818 268.538 415.005 268.538 C 416.365 268.538 417.448 268.781 418.255 269.268 C 419.062 269.755 419.465 270.438 419.465 271.318 C 419.465 271.905 419.292 272.388 418.945 272.768 C 418.598 273.148 418.052 273.431 417.305 273.618 Z M 415.005 270.138 C 414.432 270.138 413.885 270.178 413.365 270.258 L 413.365 273.058 L 415.225 273.058 C 415.878 273.058 416.375 272.941 416.715 272.708 C 417.055 272.475 417.225 272.098 417.225 271.578 C 417.225 271.071 417.045 270.705 416.685 270.478 C 416.325 270.251 415.765 270.138 415.005 270.138 Z M 415.105 277.738 C 415.892 277.738 416.515 277.628 416.975 277.408 C 417.435 277.188 417.665 276.765 417.665 276.138 C 417.665 275.045 416.898 274.498 415.365 274.498 L 413.365 274.498 L 413.365 277.738 L 415.105 277.738 Z M 427.157 268.538 C 428.677 268.538 429.85 269.035 430.677 270.028 C 431.504 271.021 431.917 272.371 431.917 274.078 C 431.917 275.785 431.497 277.138 430.657 278.138 C 429.817 279.138 428.644 279.638 427.137 279.638 C 425.617 279.638 424.44 279.148 423.607 278.168 C 422.774 277.188 422.357 275.831 422.357 274.098 C 422.357 272.418 422.78 271.071 423.627 270.058 C 424.474 269.045 425.65 268.538 427.157 268.538 Z M 427.157 270.278 C 426.344 270.278 425.734 270.591 425.327 271.218 C 424.92 271.845 424.717 272.805 424.717 274.098 C 424.717 275.405 424.917 276.368 425.317 276.988 C 425.717 277.608 426.324 277.918 427.137 277.918 C 427.95 277.918 428.557 277.605 428.957 276.978 C 429.357 276.351 429.557 275.385 429.557 274.078 C 429.557 272.785 429.357 271.828 428.957 271.208 C 428.557 270.588 427.957 270.278 427.157 270.278 Z M 443.357 279.378 L 441.197 279.378 L 441.197 275.038 C 441.197 274.198 441.23 273.408 441.297 272.668 C 441.364 271.928 441.43 271.405 441.497 271.098 L 437.417 279.378 L 434.917 279.378 L 434.917 268.818 L 437.077 268.818 L 437.077 273.178 C 437.077 273.951 437.047 274.718 436.987 275.478 C 436.927 276.238 436.857 276.765 436.777 277.058 L 440.817 268.818 L 443.357 268.818 L 443.357 279.378 Z M 439.097 266.698 C 438.217 266.698 437.497 266.461 436.937 265.988 C 436.377 265.515 436.057 264.898 435.977 264.138 L 437.337 263.858 C 437.59 264.671 438.177 265.078 439.097 265.078 C 440.07 265.078 440.67 264.671 440.897 263.858 L 442.277 264.138 C 442.197 264.898 441.87 265.515 441.297 265.988 C 440.724 266.461 439.99 266.698 439.097 266.698 Z" style="stroke: rgb(255, 255, 255); paint-order: stroke; stroke-width: 0.75px;"/>
</svg>