<?xml version="1.0" encoding="utf-8"?>
<svg viewBox="0 0 443 443" xmlns="http://www.w3.org/2000/svg">
  <g id="Logo" transform="matrix(0.2, 0, 0, 0.2, 242.633224, 209.979279)">
    <linearGradient id="SVGID_SVGID_1__1" gradientUnits="userSpaceOnUse" gradientTransform="matrix(1 0 0 1 0 0)" x1="134.6856" y1="578.1185" x2="481.5801" y2="113.0678">
      <stop offset="0" style="stop-color:#11156D;stop-opacity: 1"/>
      <stop offset="1" style="stop-color:#48569E;stop-opacity: 1"/>
    </linearGradient>
    <path style="stroke: none; stroke-width: 1; stroke-dasharray: none; stroke-linecap: butt; stroke-dashoffset: 0; stroke-linejoin: miter; stroke-miterlimit: 4; fill: url('#SVGID_SVGID_1__1'); fill-rule: nonzero; opacity: 1; filter: url('#SVGID_437'); paint-order: fill;" transform=" translate(-256.03, -256.02)" d="M 486.2 405.6 L 298.8 81 c -19.9 -30.2 -43.9 -97.7 -78.7 -35.2 L 4.8 418.7 c -13.6 23.6 3.7 73.2 30.6 73.2 L 220 172 l 0 0 c 33.6 -62.5 58.1 1.4 78.8 35.4 l 127.8 221.4 h -25.5 c -25.5 0 -38.4 -6 -51.1 -18.8 l -60.2 -60.2 c -22.7 -22.7 -34.6 -25.8 -50.4 -25.8 h -20.2 c -31.1 0 -37.3 45.4 -56.1 63.1 h 43.7 c 28.7 0 38.2 7.2 56.8 25.8 l 58.7 58.7 c 17.2 17.2 33.7 20.3 63 20.3 H 512 C 512 466.2 512 448.5 486.2 405.6 z" stroke-linecap="round"/>
  </g>
  <path d="M 9.205 210.321 L 9.205 235.681 L 0.005 235.681 L 0.005 180.481 L 9.205 180.481 L 9.205 203.121 L 15.125 203.121 L 30.245 180.481 L 39.765 180.481 L 22.885 206.081 L 41.285 235.681 L 30.645 235.681 L 15.125 210.321 L 9.205 210.321 Z M 86.638 208.081 C 86.638 216.828 84.838 223.788 81.238 228.961 C 77.638 234.134 72.451 236.721 65.678 236.721 C 58.905 236.721 53.718 234.174 50.118 229.081 C 46.518 223.988 44.718 217.014 44.718 208.161 C 44.718 199.414 46.518 192.428 50.118 187.201 C 53.718 181.974 58.905 179.361 65.678 179.361 C 72.451 179.361 77.638 181.934 81.238 187.081 C 84.838 192.228 86.638 199.228 86.638 208.081 Z M 77.118 208.081 C 77.118 200.828 76.211 195.441 74.398 191.921 C 72.585 188.401 69.678 186.641 65.678 186.641 C 61.678 186.641 58.771 188.401 56.958 191.921 C 55.145 195.441 54.238 200.854 54.238 208.161 C 54.238 215.361 55.158 220.721 56.998 224.241 C 58.838 227.761 61.731 229.521 65.678 229.521 C 69.678 229.521 72.585 227.761 74.398 224.241 C 76.211 220.721 77.118 215.334 77.118 208.081 Z M 134.792 197.841 C 134.792 204.028 132.872 208.601 129.032 211.561 C 125.192 214.521 119.939 216.001 113.272 216.001 L 106.552 216.001 L 106.552 235.681 L 97.352 235.681 L 97.352 180.481 L 112.632 180.481 C 119.725 180.481 125.192 181.934 129.032 184.841 C 132.872 187.748 134.792 192.081 134.792 197.841 Z M 125.112 197.841 C 125.112 190.908 121.165 187.441 113.272 187.441 L 106.552 187.441 L 106.552 208.961 L 113.352 208.961 C 117.085 208.961 119.979 208.108 122.032 206.401 C 124.085 204.694 125.112 201.841 125.112 197.841 Z M 166.313 179.361 C 169.94 179.361 173.033 179.814 175.593 180.721 C 178.153 181.628 180.606 183.041 182.953 184.961 L 178.153 190.721 C 174.793 188.001 170.98 186.641 166.713 186.641 C 162.233 186.641 158.58 188.361 155.753 191.801 C 152.926 195.241 151.513 200.641 151.513 208.001 C 151.513 215.254 152.9 220.601 155.673 224.041 C 158.446 227.481 162.153 229.201 166.793 229.201 C 169.46 229.201 171.74 228.788 173.633 227.961 C 175.526 227.134 177.406 225.974 179.273 224.481 L 183.753 230.161 C 179.273 234.534 173.513 236.721 166.473 236.721 C 161.726 236.721 157.486 235.614 153.753 233.401 C 150.02 231.188 147.1 227.921 144.993 223.601 C 142.886 219.281 141.833 214.081 141.833 208.001 C 141.833 202.028 142.913 196.881 145.073 192.561 C 147.233 188.241 150.18 184.961 153.913 182.721 C 157.646 180.481 161.78 179.361 166.313 179.361 Z M 318.369 210.321 L 318.369 235.681 L 309.169 235.681 L 309.169 180.481 L 318.369 180.481 L 318.369 203.121 L 324.289 203.121 L 339.409 180.481 L 348.929 180.481 L 332.049 206.081 L 350.449 235.681 L 339.809 235.681 L 324.289 210.321 L 318.369 210.321 Z M 395.802 208.081 C 395.802 216.828 394.002 223.788 390.402 228.961 C 386.802 234.134 381.615 236.721 374.842 236.721 C 368.069 236.721 362.882 234.174 359.282 229.081 C 355.682 223.988 353.882 217.014 353.882 208.161 C 353.882 199.414 355.682 192.428 359.282 187.201 C 362.882 181.974 368.069 179.361 374.842 179.361 C 381.615 179.361 386.802 181.934 390.402 187.081 C 394.002 192.228 395.802 199.228 395.802 208.081 Z M 386.282 208.081 C 386.282 200.828 385.375 195.441 383.562 191.921 C 381.749 188.401 378.842 186.641 374.842 186.641 C 370.842 186.641 367.935 188.401 366.122 191.921 C 364.309 195.441 363.402 200.854 363.402 208.161 C 363.402 215.361 364.322 220.721 366.162 224.241 C 368.002 227.761 370.895 229.521 374.842 229.521 C 378.842 229.521 381.749 227.761 383.562 224.241 C 385.375 220.721 386.282 215.334 386.282 208.081 Z M 442.995 219.761 C 442.995 225.468 440.968 229.548 436.915 232.001 C 432.862 234.454 427.715 235.681 421.475 235.681 L 405.315 235.681 L 405.315 180.481 L 420.435 180.481 C 426.302 180.481 431.128 181.561 434.915 183.721 C 438.702 185.881 440.595 189.468 440.595 194.481 C 440.595 197.681 439.622 200.308 437.675 202.361 C 435.728 204.414 433.288 205.761 430.355 206.401 C 433.982 207.041 436.995 208.388 439.395 210.441 C 441.795 212.494 442.995 215.601 442.995 219.761 Z M 431.155 195.201 C 431.155 192.481 430.315 190.508 428.635 189.281 C 426.955 188.054 424.488 187.441 421.235 187.441 L 414.595 187.441 L 414.595 203.361 L 421.795 203.361 C 424.942 203.361 427.288 202.708 428.835 201.401 C 430.382 200.094 431.155 198.028 431.155 195.201 Z M 433.315 219.761 C 433.315 216.294 432.355 213.854 430.435 212.441 C 428.515 211.028 425.848 210.321 422.435 210.321 L 414.595 210.321 L 414.595 228.481 L 422.115 228.481 C 429.582 228.481 433.315 225.574 433.315 219.761 Z"/>
  <path d="M 160.9 261.798 C 161.807 261.798 162.58 261.911 163.22 262.138 C 163.86 262.365 164.473 262.718 165.06 263.198 L 163.86 264.638 C 163.02 263.958 162.067 263.618 161 263.618 C 159.88 263.618 158.967 264.048 158.26 264.908 C 157.553 265.768 157.2 267.118 157.2 268.958 C 157.2 270.771 157.547 272.108 158.24 272.968 C 158.933 273.828 159.86 274.258 161.02 274.258 C 161.687 274.258 162.257 274.155 162.73 273.948 C 163.203 273.741 163.673 273.451 164.14 273.078 L 165.26 274.498 C 164.14 275.591 162.7 276.138 160.94 276.138 C 159.753 276.138 158.693 275.861 157.76 275.308 C 156.827 274.755 156.097 273.938 155.57 272.858 C 155.043 271.778 154.78 270.478 154.78 268.958 C 154.78 267.465 155.05 266.178 155.59 265.098 C 156.13 264.018 156.867 263.198 157.8 262.638 C 158.733 262.078 159.767 261.798 160.9 261.798 Z M 173.712 271.358 L 169.752 271.358 L 169.752 275.878 L 167.512 275.878 L 167.512 265.318 L 169.752 265.318 L 169.752 269.618 L 173.712 269.618 L 173.712 265.318 L 175.952 265.318 L 175.952 275.878 L 173.712 275.878 L 173.712 271.358 Z M 183.745 265.038 C 185.265 265.038 186.438 265.535 187.265 266.528 C 188.092 267.521 188.505 268.871 188.505 270.578 C 188.505 272.285 188.085 273.638 187.245 274.638 C 186.405 275.638 185.232 276.138 183.725 276.138 C 182.205 276.138 181.028 275.648 180.195 274.668 C 179.362 273.688 178.945 272.331 178.945 270.598 C 178.945 268.918 179.368 267.571 180.215 266.558 C 181.062 265.545 182.238 265.038 183.745 265.038 Z M 183.745 266.778 C 182.932 266.778 182.322 267.091 181.915 267.718 C 181.508 268.345 181.305 269.305 181.305 270.598 C 181.305 271.905 181.505 272.868 181.905 273.488 C 182.305 274.108 182.912 274.418 183.725 274.418 C 184.538 274.418 185.145 274.105 185.545 273.478 C 185.945 272.851 186.145 271.885 186.145 270.578 C 186.145 269.285 185.945 268.328 185.545 267.708 C 185.145 267.088 184.545 266.778 183.745 266.778 Z M 197.885 270.118 C 199.672 270.318 200.565 271.191 200.565 272.738 C 200.565 273.791 200.128 274.578 199.255 275.098 C 198.382 275.618 197.272 275.878 195.925 275.878 L 191.705 275.878 L 191.705 265.438 C 193.105 265.171 194.398 265.038 195.585 265.038 C 196.945 265.038 198.028 265.281 198.835 265.768 C 199.642 266.255 200.045 266.938 200.045 267.818 C 200.045 268.405 199.872 268.888 199.525 269.268 C 199.178 269.648 198.632 269.931 197.885 270.118 Z M 195.585 266.638 C 195.012 266.638 194.465 266.678 193.945 266.758 L 193.945 269.558 L 195.805 269.558 C 196.458 269.558 196.955 269.441 197.295 269.208 C 197.635 268.975 197.805 268.598 197.805 268.078 C 197.805 267.571 197.625 267.205 197.265 266.978 C 196.905 266.751 196.345 266.638 195.585 266.638 Z M 195.685 274.238 C 196.472 274.238 197.095 274.128 197.555 273.908 C 198.015 273.688 198.245 273.265 198.245 272.638 C 198.245 271.545 197.478 270.998 195.945 270.998 L 193.945 270.998 L 193.945 274.238 L 195.685 274.238 Z M 211.578 273.298 C 211.578 273.698 211.638 273.995 211.758 274.188 C 211.878 274.381 212.085 274.525 212.378 274.618 L 211.858 276.138 C 210.751 276.005 210.025 275.518 209.678 274.678 C 209.291 275.158 208.808 275.521 208.228 275.768 C 207.648 276.015 207.011 276.138 206.318 276.138 C 205.251 276.138 204.405 275.838 203.778 275.238 C 203.151 274.638 202.838 273.845 202.838 272.858 C 202.838 271.751 203.275 270.898 204.148 270.298 C 205.021 269.698 206.258 269.398 207.858 269.398 L 209.358 269.398 L 209.358 268.718 C 209.358 268.051 209.158 267.565 208.758 267.258 C 208.358 266.951 207.778 266.798 207.018 266.798 C 206.645 266.798 206.211 266.845 205.718 266.938 C 205.225 267.031 204.725 267.165 204.218 267.338 L 203.658 265.758 C 204.925 265.278 206.158 265.038 207.358 265.038 C 208.758 265.038 209.811 265.345 210.518 265.958 C 211.225 266.571 211.578 267.445 211.578 268.578 L 211.578 273.298 Z M 206.978 274.498 C 207.445 274.498 207.895 274.378 208.328 274.138 C 208.761 273.898 209.105 273.565 209.358 273.138 L 209.358 270.798 L 208.118 270.798 C 207.105 270.798 206.365 270.968 205.898 271.308 C 205.431 271.648 205.198 272.138 205.198 272.778 C 205.198 273.338 205.348 273.765 205.648 274.058 C 205.948 274.351 206.391 274.498 206.978 274.498 Z M 233.711 267.058 L 229.711 267.058 L 229.711 275.878 L 227.491 275.878 L 227.491 265.318 L 235.931 265.318 L 235.931 275.878 L 233.711 275.878 L 233.711 267.058 Z M 243.723 265.038 C 245.243 265.038 246.416 265.535 247.243 266.528 C 248.07 267.521 248.483 268.871 248.483 270.578 C 248.483 272.285 248.063 273.638 247.223 274.638 C 246.383 275.638 245.21 276.138 243.703 276.138 C 242.183 276.138 241.006 275.648 240.173 274.668 C 239.34 273.688 238.923 272.331 238.923 270.598 C 238.923 268.918 239.346 267.571 240.193 266.558 C 241.04 265.545 242.216 265.038 243.723 265.038 Z M 243.723 266.778 C 242.91 266.778 242.3 267.091 241.893 267.718 C 241.486 268.345 241.283 269.305 241.283 270.598 C 241.283 271.905 241.483 272.868 241.883 273.488 C 242.283 274.108 242.89 274.418 243.703 274.418 C 244.516 274.418 245.123 274.105 245.523 273.478 C 245.923 272.851 246.123 271.885 246.123 270.578 C 246.123 269.285 245.923 268.328 245.523 267.708 C 245.123 267.088 244.523 266.778 243.723 266.778 Z M 252.083 268.698 L 259.323 268.698 L 259.323 270.538 L 252.083 270.538 L 252.083 268.698 Z M 269.676 271.358 L 265.716 271.358 L 265.716 275.878 L 263.476 275.878 L 263.476 265.318 L 265.716 265.318 L 265.716 269.618 L 269.676 269.618 L 269.676 265.318 L 271.916 265.318 L 271.916 275.878 L 269.676 275.878 L 269.676 271.358 Z M 283.556 273.298 C 283.556 273.698 283.616 273.995 283.736 274.188 C 283.856 274.381 284.063 274.525 284.356 274.618 L 283.836 276.138 C 282.729 276.005 282.003 275.518 281.656 274.678 C 281.269 275.158 280.786 275.521 280.206 275.768 C 279.626 276.015 278.989 276.138 278.296 276.138 C 277.229 276.138 276.383 275.838 275.756 275.238 C 275.129 274.638 274.816 273.845 274.816 272.858 C 274.816 271.751 275.253 270.898 276.126 270.298 C 276.999 269.698 278.236 269.398 279.836 269.398 L 281.336 269.398 L 281.336 268.718 C 281.336 268.051 281.136 267.565 280.736 267.258 C 280.336 266.951 279.756 266.798 278.996 266.798 C 278.623 266.798 278.189 266.845 277.696 266.938 C 277.203 267.031 276.703 267.165 276.196 267.338 L 275.636 265.758 C 276.903 265.278 278.136 265.038 279.336 265.038 C 280.736 265.038 281.789 265.345 282.496 265.958 C 283.203 266.571 283.556 267.445 283.556 268.578 L 283.556 273.298 Z M 278.956 274.498 C 279.423 274.498 279.873 274.378 280.306 274.138 C 280.739 273.898 281.083 273.565 281.336 273.138 L 281.336 270.798 L 280.096 270.798 C 279.083 270.798 278.343 270.968 277.876 271.308 C 277.409 271.648 277.176 272.138 277.176 272.778 C 277.176 273.338 277.326 273.765 277.626 274.058 C 277.926 274.351 278.369 274.498 278.956 274.498 Z M 292.569 274.298 C 293.409 274.298 294.276 273.998 295.169 273.398 L 296.189 274.838 C 295.722 275.238 295.162 275.555 294.509 275.788 C 293.856 276.021 293.182 276.138 292.489 276.138 C 290.876 276.138 289.616 275.641 288.709 274.648 C 287.802 273.655 287.349 272.325 287.349 270.658 C 287.349 269.578 287.556 268.615 287.969 267.768 C 288.382 266.921 288.979 266.255 289.759 265.768 C 290.539 265.281 291.462 265.038 292.529 265.038 C 293.929 265.038 295.149 265.465 296.189 266.318 L 295.149 267.718 C 294.296 267.131 293.436 266.838 292.569 266.838 C 291.689 266.838 290.996 267.155 290.489 267.788 C 289.982 268.421 289.729 269.378 289.729 270.658 C 289.729 271.911 289.982 272.831 290.489 273.418 C 290.996 274.005 291.689 274.298 292.569 274.298 Z M 308.401 267.058 L 304.801 267.058 L 304.801 275.878 L 302.561 275.878 L 302.561 267.058 L 298.821 267.058 L 298.821 265.318 L 308.661 265.318 L 308.401 267.058 Z M 315.701 265.038 C 317.221 265.038 318.394 265.535 319.221 266.528 C 320.048 267.521 320.461 268.871 320.461 270.578 C 320.461 272.285 320.041 273.638 319.201 274.638 C 318.361 275.638 317.188 276.138 315.681 276.138 C 314.161 276.138 312.984 275.648 312.151 274.668 C 311.318 273.688 310.901 272.331 310.901 270.598 C 310.901 268.918 311.324 267.571 312.171 266.558 C 313.018 265.545 314.194 265.038 315.701 265.038 Z M 315.701 266.778 C 314.888 266.778 314.278 267.091 313.871 267.718 C 313.464 268.345 313.261 269.305 313.261 270.598 C 313.261 271.905 313.461 272.868 313.861 273.488 C 314.261 274.108 314.868 274.418 315.681 274.418 C 316.494 274.418 317.101 274.105 317.501 273.478 C 317.901 272.851 318.101 271.885 318.101 270.578 C 318.101 269.285 317.901 268.328 317.501 267.708 C 317.101 267.088 316.501 266.778 315.701 266.778 Z M 331.694 265.318 L 331.694 275.878 L 329.454 275.878 L 329.454 271.938 L 327.074 271.938 L 324.934 275.878 L 322.474 275.878 L 325.014 271.438 C 324.414 271.158 323.957 270.781 323.644 270.308 C 323.331 269.835 323.174 269.278 323.174 268.638 C 323.174 267.585 323.564 266.768 324.344 266.188 C 325.124 265.608 326.241 265.318 327.694 265.318 L 331.694 265.318 Z M 329.454 270.378 L 329.454 266.898 L 327.654 266.898 C 326.934 266.898 326.397 267.038 326.044 267.318 C 325.691 267.598 325.514 268.025 325.514 268.598 C 325.514 269.211 325.684 269.661 326.024 269.948 C 326.364 270.235 326.901 270.378 327.634 270.378 L 329.454 270.378 Z M 346.154 274.138 L 346.154 279.018 L 344.374 279.018 L 344.054 275.878 L 334.474 275.878 L 334.474 265.318 L 336.474 265.318 L 336.474 274.118 L 338.754 274.118 L 338.754 265.318 L 340.594 265.318 L 340.594 274.118 L 342.874 274.118 L 342.874 265.318 L 344.874 265.318 L 344.874 274.138 L 346.154 274.138 Z M 349.307 271.318 C 349.374 272.345 349.67 273.115 350.197 273.628 C 350.724 274.141 351.387 274.398 352.187 274.398 C 352.68 274.398 353.15 274.321 353.597 274.168 C 354.044 274.015 354.5 273.785 354.967 273.478 L 355.927 274.838 C 355.434 275.251 354.854 275.571 354.187 275.798 C 353.52 276.025 352.82 276.138 352.087 276.138 C 350.474 276.138 349.22 275.635 348.327 274.628 C 347.434 273.621 346.987 272.278 346.987 270.598 C 346.987 269.545 347.18 268.595 347.567 267.748 C 347.954 266.901 348.514 266.238 349.247 265.758 C 349.98 265.278 350.834 265.038 351.807 265.038 C 353.207 265.038 354.317 265.508 355.137 266.448 C 355.957 267.388 356.367 268.678 356.367 270.318 C 356.367 270.718 356.347 271.051 356.307 271.318 L 349.307 271.318 Z M 351.827 266.698 C 351.107 266.698 350.52 266.958 350.067 267.478 C 349.614 267.998 349.354 268.771 349.287 269.798 L 354.187 269.798 C 354.16 268.798 353.947 268.031 353.547 267.498 C 353.147 266.965 352.574 266.698 351.827 266.698 Z M 368.979 275.878 L 366.919 275.878 L 366.599 271.318 C 366.559 270.518 366.539 269.698 366.539 268.858 C 366.539 268.245 366.546 267.771 366.559 267.438 L 366.479 267.438 L 364.639 274.138 L 362.739 274.138 L 360.699 267.438 L 360.619 267.438 C 360.646 267.771 360.659 268.285 360.659 268.978 C 360.659 269.791 360.639 270.578 360.599 271.338 L 360.379 275.878 L 358.339 275.878 L 359.079 265.318 L 361.739 265.318 L 363.719 272.258 L 365.499 265.318 L 368.219 265.318 L 368.979 275.878 Z M 377.039 275.918 C 376.612 277.198 375.996 278.201 375.189 278.928 C 374.382 279.655 373.272 280.078 371.859 280.198 L 371.579 278.518 C 372.272 278.411 372.832 278.248 373.259 278.028 C 373.686 277.808 374.026 277.531 374.279 277.198 C 374.532 276.865 374.759 276.425 374.959 275.878 L 374.199 275.878 L 370.639 265.318 L 373.019 265.318 L 375.679 274.318 L 378.379 265.318 L 380.679 265.318 L 377.039 275.918 Z M 404.372 267.058 L 400.772 267.058 L 400.772 275.878 L 398.532 275.878 L 398.532 267.058 L 394.792 267.058 L 394.792 265.318 L 404.632 265.318 L 404.372 267.058 Z M 413.805 270.118 C 415.592 270.318 416.485 271.191 416.485 272.738 C 416.485 273.791 416.048 274.578 415.175 275.098 C 414.302 275.618 413.192 275.878 411.845 275.878 L 407.625 275.878 L 407.625 265.438 C 409.025 265.171 410.318 265.038 411.505 265.038 C 412.865 265.038 413.948 265.281 414.755 265.768 C 415.562 266.255 415.965 266.938 415.965 267.818 C 415.965 268.405 415.792 268.888 415.445 269.268 C 415.098 269.648 414.552 269.931 413.805 270.118 Z M 411.505 266.638 C 410.932 266.638 410.385 266.678 409.865 266.758 L 409.865 269.558 L 411.725 269.558 C 412.378 269.558 412.875 269.441 413.215 269.208 C 413.555 268.975 413.725 268.598 413.725 268.078 C 413.725 267.571 413.545 267.205 413.185 266.978 C 412.825 266.751 412.265 266.638 411.505 266.638 Z M 411.605 274.238 C 412.392 274.238 413.015 274.128 413.475 273.908 C 413.935 273.688 414.165 273.265 414.165 272.638 C 414.165 271.545 413.398 270.998 411.865 270.998 L 409.865 270.998 L 409.865 274.238 L 411.605 274.238 Z M 423.657 265.038 C 425.177 265.038 426.35 265.535 427.177 266.528 C 428.004 267.521 428.417 268.871 428.417 270.578 C 428.417 272.285 427.997 273.638 427.157 274.638 C 426.317 275.638 425.144 276.138 423.637 276.138 C 422.117 276.138 420.94 275.648 420.107 274.668 C 419.274 273.688 418.857 272.331 418.857 270.598 C 418.857 268.918 419.28 267.571 420.127 266.558 C 420.974 265.545 422.15 265.038 423.657 265.038 Z M 423.657 266.778 C 422.844 266.778 422.234 267.091 421.827 267.718 C 421.42 268.345 421.217 269.305 421.217 270.598 C 421.217 271.905 421.417 272.868 421.817 273.488 C 422.217 274.108 422.824 274.418 423.637 274.418 C 424.45 274.418 425.057 274.105 425.457 273.478 C 425.857 272.851 426.057 271.885 426.057 270.578 C 426.057 269.285 425.857 268.328 425.457 267.708 C 425.057 267.088 424.457 266.778 423.657 266.778 Z M 439.857 275.878 L 437.697 275.878 L 437.697 271.538 C 437.697 270.698 437.73 269.908 437.797 269.168 C 437.864 268.428 437.93 267.905 437.997 267.598 L 433.917 275.878 L 431.417 275.878 L 431.417 265.318 L 433.577 265.318 L 433.577 269.678 C 433.577 270.451 433.547 271.218 433.487 271.978 C 433.427 272.738 433.357 273.265 433.277 273.558 L 437.317 265.318 L 439.857 265.318 L 439.857 275.878 Z M 435.597 263.198 C 434.717 263.198 433.997 262.961 433.437 262.488 C 432.877 262.015 432.557 261.398 432.477 260.638 L 433.837 260.358 C 434.09 261.171 434.677 261.578 435.597 261.578 C 436.57 261.578 437.17 261.171 437.397 260.358 L 438.777 260.638 C 438.697 261.398 438.37 262.015 437.797 262.488 C 437.224 262.961 436.49 263.198 435.597 263.198 Z"/>
</svg>