<?xml version="1.0" encoding="utf-8"?>
<svg viewBox="-0.005 166.095 469.41 137.211" xmlns="http://www.w3.org/2000/svg">
  <rect style="fill: rgb(255, 255, 255); stroke-linecap: round; transform-origin: -600.744px 234.701px;" width="469.41" height="137.211" rx="10" ry="10" x="-0.005" y="166.095"/>
  <g id="Logo" transform="matrix(0.20000000298023224, 0, 0, 0.20000000298023224, 255.83389282226562, 223.1800842285156)">
    <linearGradient id="SVGID_SVGID_1__1" gradientUnits="userSpaceOnUse" gradientTransform="matrix(1 0 0 1 0 0)" x1="134.6856" y1="578.1185" x2="481.5801" y2="113.0678">
      <stop offset="0" style="stop-color:#11156D;stop-opacity: 1"/>
      <stop offset="1" style="stop-color:#48569E;stop-opacity: 1"/>
    </linearGradient>
    <path style="stroke: none; stroke-width: 1; stroke-dasharray: none; stroke-linecap: butt; stroke-dashoffset: 0; stroke-linejoin: miter; stroke-miterlimit: 4; fill: url('#SVGID_SVGID_1__1'); fill-rule: nonzero; opacity: 1; filter: url('#SVGID_437'); paint-order: fill;" transform=" translate(-256.03, -256.02)" d="M 486.2 405.6 L 298.8 81 c -19.9 -30.2 -43.9 -97.7 -78.7 -35.2 L 4.8 418.7 c -13.6 23.6 3.7 73.2 30.6 73.2 L 220 172 l 0 0 c 33.6 -62.5 58.1 1.4 78.8 35.4 l 127.8 221.4 h -25.5 c -25.5 0 -38.4 -6 -51.1 -18.8 l -60.2 -60.2 c -22.7 -22.7 -34.6 -25.8 -50.4 -25.8 h -20.2 c -31.1 0 -37.3 45.4 -56.1 63.1 h 43.7 c 28.7 0 38.2 7.2 56.8 25.8 l 58.7 58.7 c 17.2 17.2 33.7 20.3 63 20.3 H 512 C 512 466.2 512 448.5 486.2 405.6 z" stroke-linecap="round"/>
  </g>
  <path d="M 22.405 223.522 L 22.405 248.882 L 13.205 248.882 L 13.205 193.682 L 22.405 193.682 L 22.405 216.322 L 28.325 216.322 L 43.445 193.682 L 52.965 193.682 L 36.085 219.282 L 54.485 248.882 L 43.845 248.882 L 28.325 223.522 L 22.405 223.522 Z M 99.838 221.282 C 99.838 230.029 98.038 236.989 94.438 242.162 C 90.838 247.336 85.652 249.922 78.878 249.922 C 72.105 249.922 66.918 247.376 63.318 242.282 C 59.718 237.189 57.918 230.216 57.918 221.362 C 57.918 212.616 59.718 205.629 63.318 200.402 C 66.918 195.176 72.105 192.562 78.878 192.562 C 85.652 192.562 90.838 195.136 94.438 200.282 C 98.038 205.429 99.838 212.429 99.838 221.282 Z M 90.318 221.282 C 90.318 214.029 89.412 208.642 87.598 205.122 C 85.785 201.602 82.878 199.842 78.878 199.842 C 74.878 199.842 71.972 201.602 70.158 205.122 C 68.345 208.642 67.438 214.056 67.438 221.362 C 67.438 228.562 68.358 233.922 70.198 237.442 C 72.038 240.962 74.932 242.722 78.878 242.722 C 82.878 242.722 85.785 240.962 87.598 237.442 C 89.412 233.922 90.318 228.536 90.318 221.282 Z M 147.992 211.042 C 147.992 217.229 146.072 221.802 142.232 224.762 C 138.392 227.722 133.139 229.202 126.472 229.202 L 119.752 229.202 L 119.752 248.882 L 110.552 248.882 L 110.552 193.682 L 125.832 193.682 C 132.926 193.682 138.392 195.136 142.232 198.042 C 146.072 200.949 147.992 205.282 147.992 211.042 Z M 138.312 211.042 C 138.312 204.109 134.366 200.642 126.472 200.642 L 119.752 200.642 L 119.752 222.162 L 126.552 222.162 C 130.286 222.162 133.179 221.309 135.232 219.602 C 137.286 217.896 138.312 215.042 138.312 211.042 Z M 179.513 192.562 C 183.14 192.562 186.233 193.016 188.793 193.922 C 191.353 194.829 193.807 196.242 196.153 198.162 L 191.353 203.922 C 187.993 201.202 184.18 199.842 179.913 199.842 C 175.433 199.842 171.78 201.562 168.953 205.002 C 166.127 208.442 164.713 213.842 164.713 221.202 C 164.713 228.456 166.1 233.802 168.873 237.242 C 171.647 240.682 175.353 242.402 179.993 242.402 C 182.66 242.402 184.94 241.989 186.833 241.162 C 188.727 240.336 190.607 239.176 192.473 237.682 L 196.953 243.362 C 192.473 247.736 186.713 249.922 179.673 249.922 C 174.927 249.922 170.687 248.816 166.953 246.602 C 163.22 244.389 160.3 241.122 158.193 236.802 C 156.087 232.482 155.033 227.282 155.033 221.202 C 155.033 215.229 156.113 210.082 158.273 205.762 C 160.433 201.442 163.38 198.162 167.113 195.922 C 170.847 193.682 174.98 192.562 179.513 192.562 Z M 331.569 223.522 L 331.569 248.882 L 322.369 248.882 L 322.369 193.682 L 331.569 193.682 L 331.569 216.322 L 337.489 216.322 L 352.609 193.682 L 362.129 193.682 L 345.249 219.282 L 363.649 248.882 L 353.009 248.882 L 337.489 223.522 L 331.569 223.522 Z M 409.002 221.282 C 409.002 230.029 407.202 236.989 403.602 242.162 C 400.002 247.336 394.816 249.922 388.042 249.922 C 381.269 249.922 376.082 247.376 372.482 242.282 C 368.882 237.189 367.082 230.216 367.082 221.362 C 367.082 212.616 368.882 205.629 372.482 200.402 C 376.082 195.176 381.269 192.562 388.042 192.562 C 394.816 192.562 400.002 195.136 403.602 200.282 C 407.202 205.429 409.002 212.429 409.002 221.282 Z M 399.482 221.282 C 399.482 214.029 398.576 208.642 396.762 205.122 C 394.949 201.602 392.042 199.842 388.042 199.842 C 384.042 199.842 381.136 201.602 379.322 205.122 C 377.509 208.642 376.602 214.056 376.602 221.362 C 376.602 228.562 377.522 233.922 379.362 237.442 C 381.202 240.962 384.096 242.722 388.042 242.722 C 392.042 242.722 394.949 240.962 396.762 237.442 C 398.576 233.922 399.482 228.536 399.482 221.282 Z M 456.195 232.962 C 456.195 238.669 454.169 242.749 450.115 245.202 C 446.062 247.656 440.915 248.882 434.675 248.882 L 418.515 248.882 L 418.515 193.682 L 433.635 193.682 C 439.502 193.682 444.329 194.762 448.115 196.922 C 451.902 199.082 453.795 202.669 453.795 207.682 C 453.795 210.882 452.822 213.509 450.875 215.562 C 448.929 217.616 446.489 218.962 443.555 219.602 C 447.182 220.242 450.195 221.589 452.595 223.642 C 454.995 225.696 456.195 228.802 456.195 232.962 Z M 444.355 208.402 C 444.355 205.682 443.515 203.709 441.835 202.482 C 440.155 201.256 437.689 200.642 434.435 200.642 L 427.795 200.642 L 427.795 216.562 L 434.995 216.562 C 438.142 216.562 440.489 215.909 442.035 214.602 C 443.582 213.296 444.355 211.229 444.355 208.402 Z M 446.515 232.962 C 446.515 229.496 445.555 227.056 443.635 225.642 C 441.715 224.229 439.049 223.522 435.635 223.522 L 427.795 223.522 L 427.795 241.682 L 435.315 241.682 C 442.782 241.682 446.515 238.776 446.515 232.962 Z"/>
  <path d="M 174.1 274.999 C 175.007 274.999 175.78 275.113 176.42 275.339 C 177.06 275.566 177.674 275.919 178.26 276.399 L 177.06 277.839 C 176.22 277.159 175.267 276.819 174.2 276.819 C 173.08 276.819 172.167 277.249 171.46 278.109 C 170.754 278.969 170.4 280.319 170.4 282.159 C 170.4 283.973 170.747 285.309 171.44 286.169 C 172.134 287.029 173.06 287.459 174.22 287.459 C 174.887 287.459 175.457 287.356 175.93 287.149 C 176.404 286.943 176.874 286.653 177.34 286.279 L 178.46 287.699 C 177.34 288.793 175.9 289.339 174.14 289.339 C 172.954 289.339 171.894 289.063 170.96 288.509 C 170.027 287.956 169.297 287.139 168.77 286.059 C 168.244 284.979 167.98 283.679 167.98 282.159 C 167.98 280.666 168.25 279.379 168.79 278.299 C 169.33 277.219 170.067 276.399 171 275.839 C 171.934 275.279 172.967 274.999 174.1 274.999 Z M 186.912 284.559 L 182.952 284.559 L 182.952 289.079 L 180.712 289.079 L 180.712 278.519 L 182.952 278.519 L 182.952 282.819 L 186.912 282.819 L 186.912 278.519 L 189.152 278.519 L 189.152 289.079 L 186.912 289.079 L 186.912 284.559 Z M 196.945 278.239 C 198.465 278.239 199.639 278.736 200.465 279.729 C 201.292 280.723 201.705 282.073 201.705 283.779 C 201.705 285.486 201.285 286.839 200.445 287.839 C 199.605 288.839 198.432 289.339 196.925 289.339 C 195.405 289.339 194.229 288.849 193.395 287.869 C 192.562 286.889 192.145 285.533 192.145 283.799 C 192.145 282.119 192.569 280.773 193.415 279.759 C 194.262 278.746 195.439 278.239 196.945 278.239 Z M 196.945 279.979 C 196.132 279.979 195.522 280.293 195.115 280.919 C 194.709 281.546 194.505 282.506 194.505 283.799 C 194.505 285.106 194.705 286.069 195.105 286.689 C 195.505 287.309 196.112 287.619 196.925 287.619 C 197.739 287.619 198.345 287.306 198.745 286.679 C 199.145 286.053 199.345 285.086 199.345 283.779 C 199.345 282.486 199.145 281.529 198.745 280.909 C 198.345 280.289 197.745 279.979 196.945 279.979 Z M 211.085 283.319 C 212.872 283.519 213.765 284.393 213.765 285.939 C 213.765 286.993 213.329 287.779 212.455 288.299 C 211.582 288.819 210.472 289.079 209.125 289.079 L 204.905 289.079 L 204.905 278.639 C 206.305 278.373 207.599 278.239 208.785 278.239 C 210.145 278.239 211.229 278.483 212.035 278.969 C 212.842 279.456 213.245 280.139 213.245 281.019 C 213.245 281.606 213.072 282.089 212.725 282.469 C 212.379 282.849 211.832 283.133 211.085 283.319 Z M 208.785 279.839 C 208.212 279.839 207.665 279.879 207.145 279.959 L 207.145 282.759 L 209.005 282.759 C 209.659 282.759 210.155 282.643 210.495 282.409 C 210.835 282.176 211.005 281.799 211.005 281.279 C 211.005 280.773 210.825 280.406 210.465 280.179 C 210.105 279.953 209.545 279.839 208.785 279.839 Z M 208.885 287.439 C 209.672 287.439 210.295 287.329 210.755 287.109 C 211.215 286.889 211.445 286.466 211.445 285.839 C 211.445 284.746 210.679 284.199 209.145 284.199 L 207.145 284.199 L 207.145 287.439 L 208.885 287.439 Z M 224.778 286.499 C 224.778 286.899 224.838 287.196 224.958 287.389 C 225.078 287.583 225.285 287.726 225.578 287.819 L 225.058 289.339 C 223.952 289.206 223.225 288.719 222.878 287.879 C 222.492 288.359 222.008 288.723 221.428 288.969 C 220.848 289.216 220.212 289.339 219.518 289.339 C 218.452 289.339 217.605 289.039 216.978 288.439 C 216.352 287.839 216.038 287.046 216.038 286.059 C 216.038 284.953 216.475 284.099 217.348 283.499 C 218.222 282.899 219.458 282.599 221.058 282.599 L 222.558 282.599 L 222.558 281.919 C 222.558 281.253 222.358 280.766 221.958 280.459 C 221.558 280.153 220.978 279.999 220.218 279.999 C 219.845 279.999 219.412 280.046 218.918 280.139 C 218.425 280.233 217.925 280.366 217.418 280.539 L 216.858 278.959 C 218.125 278.479 219.358 278.239 220.558 278.239 C 221.958 278.239 223.012 278.546 223.718 279.159 C 224.425 279.773 224.778 280.646 224.778 281.779 L 224.778 286.499 Z M 220.178 287.699 C 220.645 287.699 221.095 287.579 221.528 287.339 C 221.962 287.099 222.305 286.766 222.558 286.339 L 222.558 283.999 L 221.318 283.999 C 220.305 283.999 219.565 284.169 219.098 284.509 C 218.632 284.849 218.398 285.339 218.398 285.979 C 218.398 286.539 218.548 286.966 218.848 287.259 C 219.148 287.553 219.592 287.699 220.178 287.699 Z M 246.911 280.259 L 242.911 280.259 L 242.911 289.079 L 240.691 289.079 L 240.691 278.519 L 249.131 278.519 L 249.131 289.079 L 246.911 289.079 L 246.911 280.259 Z M 256.923 278.239 C 258.443 278.239 259.617 278.736 260.443 279.729 C 261.27 280.723 261.683 282.073 261.683 283.779 C 261.683 285.486 261.263 286.839 260.423 287.839 C 259.583 288.839 258.41 289.339 256.903 289.339 C 255.383 289.339 254.207 288.849 253.373 287.869 C 252.54 286.889 252.123 285.533 252.123 283.799 C 252.123 282.119 252.547 280.773 253.393 279.759 C 254.24 278.746 255.417 278.239 256.923 278.239 Z M 256.923 279.979 C 256.11 279.979 255.5 280.293 255.093 280.919 C 254.687 281.546 254.483 282.506 254.483 283.799 C 254.483 285.106 254.683 286.069 255.083 286.689 C 255.483 287.309 256.09 287.619 256.903 287.619 C 257.717 287.619 258.323 287.306 258.723 286.679 C 259.123 286.053 259.323 285.086 259.323 283.779 C 259.323 282.486 259.123 281.529 258.723 280.909 C 258.323 280.289 257.723 279.979 256.923 279.979 Z M 265.283 281.899 L 272.523 281.899 L 272.523 283.739 L 265.283 283.739 L 265.283 281.899 Z M 282.876 284.559 L 278.916 284.559 L 278.916 289.079 L 276.676 289.079 L 276.676 278.519 L 278.916 278.519 L 278.916 282.819 L 282.876 282.819 L 282.876 278.519 L 285.116 278.519 L 285.116 289.079 L 282.876 289.079 L 282.876 284.559 Z M 296.756 286.499 C 296.756 286.899 296.816 287.196 296.936 287.389 C 297.056 287.583 297.263 287.726 297.556 287.819 L 297.036 289.339 C 295.93 289.206 295.203 288.719 294.856 287.879 C 294.47 288.359 293.986 288.723 293.406 288.969 C 292.826 289.216 292.19 289.339 291.496 289.339 C 290.43 289.339 289.583 289.039 288.956 288.439 C 288.33 287.839 288.016 287.046 288.016 286.059 C 288.016 284.953 288.453 284.099 289.326 283.499 C 290.2 282.899 291.436 282.599 293.036 282.599 L 294.536 282.599 L 294.536 281.919 C 294.536 281.253 294.336 280.766 293.936 280.459 C 293.536 280.153 292.956 279.999 292.196 279.999 C 291.823 279.999 291.39 280.046 290.896 280.139 C 290.403 280.233 289.903 280.366 289.396 280.539 L 288.836 278.959 C 290.103 278.479 291.336 278.239 292.536 278.239 C 293.936 278.239 294.99 278.546 295.696 279.159 C 296.403 279.773 296.756 280.646 296.756 281.779 L 296.756 286.499 Z M 292.156 287.699 C 292.623 287.699 293.073 287.579 293.506 287.339 C 293.94 287.099 294.283 286.766 294.536 286.339 L 294.536 283.999 L 293.296 283.999 C 292.283 283.999 291.543 284.169 291.076 284.509 C 290.61 284.849 290.376 285.339 290.376 285.979 C 290.376 286.539 290.526 286.966 290.826 287.259 C 291.126 287.553 291.57 287.699 292.156 287.699 Z M 305.769 287.499 C 306.609 287.499 307.476 287.199 308.369 286.599 L 309.389 288.039 C 308.923 288.439 308.363 288.756 307.709 288.989 C 307.056 289.223 306.383 289.339 305.689 289.339 C 304.076 289.339 302.816 288.843 301.909 287.849 C 301.003 286.856 300.549 285.526 300.549 283.859 C 300.549 282.779 300.756 281.816 301.169 280.969 C 301.583 280.123 302.179 279.456 302.959 278.969 C 303.739 278.483 304.663 278.239 305.729 278.239 C 307.129 278.239 308.349 278.666 309.389 279.519 L 308.349 280.919 C 307.496 280.333 306.636 280.039 305.769 280.039 C 304.889 280.039 304.196 280.356 303.689 280.989 C 303.183 281.623 302.929 282.579 302.929 283.859 C 302.929 285.113 303.183 286.033 303.689 286.619 C 304.196 287.206 304.889 287.499 305.769 287.499 Z M 321.601 280.259 L 318.001 280.259 L 318.001 289.079 L 315.761 289.079 L 315.761 280.259 L 312.021 280.259 L 312.021 278.519 L 321.861 278.519 L 321.601 280.259 Z M 328.901 278.239 C 330.421 278.239 331.595 278.736 332.421 279.729 C 333.248 280.723 333.661 282.073 333.661 283.779 C 333.661 285.486 333.241 286.839 332.401 287.839 C 331.561 288.839 330.388 289.339 328.881 289.339 C 327.361 289.339 326.185 288.849 325.351 287.869 C 324.518 286.889 324.101 285.533 324.101 283.799 C 324.101 282.119 324.525 280.773 325.371 279.759 C 326.218 278.746 327.395 278.239 328.901 278.239 Z M 328.901 279.979 C 328.088 279.979 327.478 280.293 327.071 280.919 C 326.665 281.546 326.461 282.506 326.461 283.799 C 326.461 285.106 326.661 286.069 327.061 286.689 C 327.461 287.309 328.068 287.619 328.881 287.619 C 329.695 287.619 330.301 287.306 330.701 286.679 C 331.101 286.053 331.301 285.086 331.301 283.779 C 331.301 282.486 331.101 281.529 330.701 280.909 C 330.301 280.289 329.701 279.979 328.901 279.979 Z M 344.894 278.519 L 344.894 289.079 L 342.654 289.079 L 342.654 285.139 L 340.274 285.139 L 338.134 289.079 L 335.674 289.079 L 338.214 284.639 C 337.614 284.359 337.158 283.983 336.844 283.509 C 336.531 283.036 336.374 282.479 336.374 281.839 C 336.374 280.786 336.764 279.969 337.544 279.389 C 338.324 278.809 339.441 278.519 340.894 278.519 L 344.894 278.519 Z M 342.654 283.579 L 342.654 280.099 L 340.854 280.099 C 340.134 280.099 339.598 280.239 339.244 280.519 C 338.891 280.799 338.714 281.226 338.714 281.799 C 338.714 282.413 338.884 282.863 339.224 283.149 C 339.564 283.436 340.101 283.579 340.834 283.579 L 342.654 283.579 Z M 359.354 287.339 L 359.354 292.219 L 357.574 292.219 L 357.254 289.079 L 347.674 289.079 L 347.674 278.519 L 349.674 278.519 L 349.674 287.319 L 351.954 287.319 L 351.954 278.519 L 353.794 278.519 L 353.794 287.319 L 356.074 287.319 L 356.074 278.519 L 358.074 278.519 L 358.074 287.339 L 359.354 287.339 Z M 362.507 284.519 C 362.574 285.546 362.871 286.316 363.397 286.829 C 363.924 287.343 364.587 287.599 365.387 287.599 C 365.881 287.599 366.351 287.523 366.797 287.369 C 367.244 287.216 367.701 286.986 368.167 286.679 L 369.127 288.039 C 368.634 288.453 368.054 288.773 367.387 288.999 C 366.721 289.226 366.021 289.339 365.287 289.339 C 363.674 289.339 362.421 288.836 361.527 287.829 C 360.634 286.823 360.187 285.479 360.187 283.799 C 360.187 282.746 360.381 281.796 360.767 280.949 C 361.154 280.103 361.714 279.439 362.447 278.959 C 363.181 278.479 364.034 278.239 365.007 278.239 C 366.407 278.239 367.517 278.709 368.337 279.649 C 369.157 280.589 369.567 281.879 369.567 283.519 C 369.567 283.919 369.547 284.253 369.507 284.519 L 362.507 284.519 Z M 365.027 279.899 C 364.307 279.899 363.721 280.159 363.267 280.679 C 362.814 281.199 362.554 281.973 362.487 282.999 L 367.387 282.999 C 367.361 281.999 367.147 281.233 366.747 280.699 C 366.347 280.166 365.774 279.899 365.027 279.899 Z M 382.179 289.079 L 380.119 289.079 L 379.799 284.519 C 379.759 283.719 379.739 282.899 379.739 282.059 C 379.739 281.446 379.746 280.973 379.759 280.639 L 379.679 280.639 L 377.839 287.339 L 375.939 287.339 L 373.899 280.639 L 373.819 280.639 C 373.846 280.973 373.859 281.486 373.859 282.179 C 373.859 282.993 373.839 283.779 373.799 284.539 L 373.579 289.079 L 371.539 289.079 L 372.279 278.519 L 374.939 278.519 L 376.919 285.459 L 378.699 278.519 L 381.419 278.519 L 382.179 289.079 Z M 390.239 289.119 C 389.813 290.399 389.196 291.403 388.389 292.129 C 387.583 292.856 386.473 293.279 385.059 293.399 L 384.779 291.719 C 385.473 291.613 386.033 291.449 386.459 291.229 C 386.886 291.009 387.226 290.733 387.479 290.399 C 387.733 290.066 387.959 289.626 388.159 289.079 L 387.399 289.079 L 383.839 278.519 L 386.219 278.519 L 388.879 287.519 L 391.579 278.519 L 393.879 278.519 L 390.239 289.119 Z M 417.572 280.259 L 413.972 280.259 L 413.972 289.079 L 411.732 289.079 L 411.732 280.259 L 407.992 280.259 L 407.992 278.519 L 417.832 278.519 L 417.572 280.259 Z M 427.005 283.319 C 428.792 283.519 429.685 284.393 429.685 285.939 C 429.685 286.993 429.249 287.779 428.375 288.299 C 427.502 288.819 426.392 289.079 425.045 289.079 L 420.825 289.079 L 420.825 278.639 C 422.225 278.373 423.519 278.239 424.705 278.239 C 426.065 278.239 427.149 278.483 427.955 278.969 C 428.762 279.456 429.165 280.139 429.165 281.019 C 429.165 281.606 428.992 282.089 428.645 282.469 C 428.299 282.849 427.752 283.133 427.005 283.319 Z M 424.705 279.839 C 424.132 279.839 423.585 279.879 423.065 279.959 L 423.065 282.759 L 424.925 282.759 C 425.579 282.759 426.075 282.643 426.415 282.409 C 426.755 282.176 426.925 281.799 426.925 281.279 C 426.925 280.773 426.745 280.406 426.385 280.179 C 426.025 279.953 425.465 279.839 424.705 279.839 Z M 424.805 287.439 C 425.592 287.439 426.215 287.329 426.675 287.109 C 427.135 286.889 427.365 286.466 427.365 285.839 C 427.365 284.746 426.599 284.199 425.065 284.199 L 423.065 284.199 L 423.065 287.439 L 424.805 287.439 Z M 436.857 278.239 C 438.377 278.239 439.551 278.736 440.377 279.729 C 441.204 280.723 441.617 282.073 441.617 283.779 C 441.617 285.486 441.197 286.839 440.357 287.839 C 439.517 288.839 438.344 289.339 436.837 289.339 C 435.317 289.339 434.141 288.849 433.307 287.869 C 432.474 286.889 432.057 285.533 432.057 283.799 C 432.057 282.119 432.481 280.773 433.327 279.759 C 434.174 278.746 435.351 278.239 436.857 278.239 Z M 436.857 279.979 C 436.044 279.979 435.434 280.293 435.027 280.919 C 434.621 281.546 434.417 282.506 434.417 283.799 C 434.417 285.106 434.617 286.069 435.017 286.689 C 435.417 287.309 436.024 287.619 436.837 287.619 C 437.651 287.619 438.257 287.306 438.657 286.679 C 439.057 286.053 439.257 285.086 439.257 283.779 C 439.257 282.486 439.057 281.529 438.657 280.909 C 438.257 280.289 437.657 279.979 436.857 279.979 Z M 453.057 289.079 L 450.897 289.079 L 450.897 284.739 C 450.897 283.899 450.931 283.109 450.997 282.369 C 451.064 281.629 451.131 281.106 451.197 280.799 L 447.117 289.079 L 444.617 289.079 L 444.617 278.519 L 446.777 278.519 L 446.777 282.879 C 446.777 283.653 446.747 284.419 446.687 285.179 C 446.627 285.939 446.557 286.466 446.477 286.759 L 450.517 278.519 L 453.057 278.519 L 453.057 289.079 Z M 448.797 276.399 C 447.917 276.399 447.197 276.163 446.637 275.689 C 446.077 275.216 445.757 274.599 445.677 273.839 L 447.037 273.559 C 447.291 274.373 447.877 274.779 448.797 274.779 C 449.771 274.779 450.371 274.373 450.597 273.559 L 451.977 273.839 C 451.897 274.599 451.571 275.216 450.997 275.689 C 450.424 276.163 449.691 276.399 448.797 276.399 Z"/>
</svg>