<?xml version="1.0" encoding="utf-8"?>
<svg viewBox="0 0 500 150" xmlns="http://www.w3.org/2000/svg">
  <path d="M 10.982 67.759 L 10.982 96.311 L 0.624 96.311 L 0.624 34.162 L 10.982 34.162 L 10.982 59.652 L 17.647 59.652 L 34.67 34.162 L 45.389 34.162 L 26.384 62.985 L 47.1 96.311 L 35.121 96.311 L 17.647 67.759 L 10.982 67.759 Z M 98.162 65.237 C 98.162 75.085 96.135 82.921 92.082 88.745 C 88.029 94.569 82.189 97.482 74.564 97.482 C 66.938 97.482 61.098 94.614 57.045 88.88 C 52.992 83.146 50.965 75.294 50.965 65.327 C 50.965 55.479 52.992 47.613 57.045 41.728 C 61.098 35.843 66.938 32.901 74.564 32.901 C 82.189 32.901 88.029 35.798 92.082 41.593 C 96.135 47.388 98.162 55.269 98.162 65.237 Z M 87.444 65.237 C 87.444 57.071 86.422 51.005 84.381 47.042 C 82.34 43.079 79.067 41.098 74.564 41.098 C 70.06 41.098 66.787 43.079 64.746 47.042 C 62.705 51.005 61.684 57.1 61.684 65.327 C 61.684 73.433 62.719 79.468 64.791 83.431 C 66.863 87.394 70.12 89.375 74.564 89.375 C 79.067 89.375 82.34 87.394 84.381 83.431 C 86.422 79.468 87.444 73.403 87.444 65.237 Z M 152.377 53.708 C 152.377 60.673 150.216 65.822 145.892 69.155 C 141.569 72.487 135.655 74.153 128.148 74.153 L 120.583 74.153 L 120.583 96.311 L 110.225 96.311 L 110.225 34.162 L 127.428 34.162 C 135.414 34.162 141.569 35.798 145.892 39.071 C 150.216 42.344 152.377 47.223 152.377 53.708 Z M 141.479 53.708 C 141.479 45.902 137.035 41.998 128.148 41.998 L 120.583 41.998 L 120.583 66.227 L 128.239 66.227 C 132.441 66.227 135.7 65.267 138.011 63.345 C 140.323 61.423 141.479 58.211 141.479 53.708 Z M 187.866 32.901 C 191.95 32.901 195.432 33.411 198.314 34.433 C 201.196 35.454 203.958 37.045 206.601 39.206 L 201.196 45.691 C 197.413 42.629 193.12 41.098 188.316 41.098 C 183.272 41.098 179.16 43.034 175.977 46.907 C 172.794 50.78 171.203 56.86 171.203 65.146 C 171.203 73.312 172.765 79.333 175.887 83.206 C 179.009 87.079 183.182 89.015 188.406 89.015 C 191.409 89.015 193.976 88.55 196.107 87.619 C 198.239 86.688 200.355 85.382 202.457 83.701 L 207.501 90.096 C 202.457 95.019 195.972 97.482 188.046 97.482 C 182.702 97.482 177.928 96.235 173.725 93.744 C 169.522 91.252 166.235 87.574 163.862 82.71 C 161.49 77.846 160.305 71.992 160.305 65.146 C 160.305 58.422 161.521 52.627 163.952 47.763 C 166.384 42.899 169.702 39.206 173.905 36.684 C 178.108 34.162 182.762 32.901 187.866 32.901 Z M 359.062 67.759 L 359.062 96.311 L 348.704 96.311 L 348.704 34.162 L 359.062 34.162 L 359.062 59.652 L 365.727 59.652 L 382.75 34.162 L 393.469 34.162 L 374.464 62.985 L 395.18 96.311 L 383.201 96.311 L 365.727 67.759 L 359.062 67.759 Z M 446.242 65.237 C 446.242 75.085 444.215 82.921 440.162 88.745 C 436.109 94.569 430.269 97.482 422.644 97.482 C 415.018 97.482 409.178 94.614 405.125 88.88 C 401.072 83.146 399.045 75.294 399.045 65.327 C 399.045 55.479 401.072 47.613 405.125 41.728 C 409.178 35.843 415.018 32.901 422.644 32.901 C 430.269 32.901 436.109 35.798 440.162 41.593 C 444.215 47.388 446.242 55.269 446.242 65.237 Z M 435.524 65.237 C 435.524 57.071 434.502 51.005 432.461 47.042 C 430.42 43.079 427.147 41.098 422.644 41.098 C 418.14 41.098 414.867 43.079 412.826 47.042 C 410.785 51.005 409.764 57.1 409.764 65.327 C 409.764 73.433 410.799 79.468 412.871 83.431 C 414.943 87.394 418.2 89.375 422.644 89.375 C 427.147 89.375 430.42 87.394 432.461 83.431 C 434.502 79.468 435.524 73.403 435.524 65.237 Z M 499.375 78.387 C 499.375 84.812 497.093 89.406 492.53 92.167 C 487.967 94.929 482.172 96.311 475.147 96.311 L 456.952 96.311 L 456.952 34.162 L 473.976 34.162 C 480.581 34.162 486.015 35.378 490.278 37.81 C 494.542 40.242 496.673 44.281 496.673 49.925 C 496.673 53.527 495.578 56.485 493.386 58.797 C 491.194 61.108 488.446 62.625 485.144 63.345 C 489.228 64.066 492.62 65.582 495.322 67.894 C 498.024 70.205 499.375 73.703 499.375 78.387 Z M 486.045 50.735 C 486.045 47.673 485.099 45.452 483.208 44.07 C 481.316 42.689 478.539 41.998 474.876 41.998 L 467.401 41.998 L 467.401 59.922 L 475.507 59.922 C 479.05 59.922 481.691 59.187 483.433 57.716 C 485.175 56.244 486.045 53.918 486.045 50.735 Z M 488.477 78.387 C 488.477 74.483 487.396 71.736 485.234 70.145 C 483.073 68.555 480.07 67.759 476.227 67.759 L 467.401 67.759 L 467.401 88.204 L 475.867 88.204 C 484.274 88.204 488.477 84.931 488.477 78.387 Z" style="stroke: rgb(255, 255, 255); stroke-width: 2px;"/>
  <path d="M 181.772 125.715 C 182.793 125.715 183.663 125.842 184.384 126.098 C 185.104 126.354 185.794 126.751 186.455 127.291 L 185.104 128.913 C 184.159 128.147 183.086 127.764 181.884 127.764 C 180.623 127.764 179.595 128.248 178.799 129.217 C 178.003 130.185 177.606 131.705 177.606 133.776 C 177.606 135.818 177.997 137.323 178.777 138.291 C 179.557 139.259 180.601 139.744 181.907 139.744 C 182.658 139.744 183.299 139.628 183.832 139.395 C 184.365 139.162 184.894 138.835 185.419 138.415 L 186.68 140.014 C 185.419 141.244 183.798 141.86 181.817 141.86 C 180.48 141.86 179.287 141.548 178.236 140.926 C 177.186 140.303 176.364 139.383 175.771 138.167 C 175.177 136.951 174.881 135.488 174.881 133.776 C 174.881 132.096 175.185 130.647 175.793 129.431 C 176.401 128.215 177.231 127.291 178.281 126.661 C 179.332 126.03 180.496 125.715 181.772 125.715 Z M 196.196 136.479 L 191.738 136.479 L 191.738 141.567 L 189.216 141.567 L 189.216 129.678 L 191.738 129.678 L 191.738 134.52 L 196.196 134.52 L 196.196 129.678 L 198.718 129.678 L 198.718 141.567 L 196.196 141.567 L 196.196 136.479 Z M 207.492 129.363 C 209.204 129.363 210.524 129.923 211.455 131.041 C 212.386 132.159 212.851 133.678 212.851 135.6 C 212.851 137.522 212.379 139.046 211.433 140.171 C 210.487 141.297 209.166 141.86 207.47 141.86 C 205.758 141.86 204.433 141.309 203.495 140.205 C 202.558 139.102 202.088 137.574 202.088 135.623 C 202.088 133.731 202.564 132.215 203.518 131.074 C 204.472 129.934 205.796 129.363 207.492 129.363 Z M 207.492 131.322 C 206.577 131.322 205.89 131.674 205.432 132.38 C 204.974 133.086 204.745 134.167 204.745 135.623 C 204.745 137.094 204.97 138.179 205.421 138.877 C 205.871 139.575 206.554 139.924 207.47 139.924 C 208.385 139.924 209.068 139.571 209.519 138.865 C 209.969 138.159 210.194 137.072 210.194 135.6 C 210.194 134.145 209.969 133.067 209.519 132.369 C 209.068 131.671 208.393 131.322 207.492 131.322 Z M 223.412 135.082 C 225.424 135.308 226.429 136.291 226.429 138.032 C 226.429 139.218 225.937 140.104 224.955 140.689 C 223.972 141.275 222.722 141.567 221.205 141.567 L 216.454 141.567 L 216.454 129.813 C 218.03 129.513 219.486 129.363 220.823 129.363 C 222.354 129.363 223.573 129.637 224.482 130.185 C 225.39 130.733 225.844 131.502 225.844 132.493 C 225.844 133.154 225.649 133.698 225.259 134.125 C 224.868 134.553 224.253 134.872 223.412 135.082 Z M 220.823 131.164 C 220.178 131.164 219.562 131.209 218.976 131.3 L 218.976 134.452 L 221.07 134.452 C 221.806 134.452 222.365 134.32 222.748 134.058 C 223.131 133.796 223.322 133.371 223.322 132.786 C 223.322 132.215 223.119 131.803 222.714 131.547 C 222.309 131.292 221.678 131.164 220.823 131.164 Z M 220.935 139.721 C 221.821 139.721 222.523 139.597 223.041 139.35 C 223.559 139.102 223.817 138.626 223.817 137.92 C 223.817 136.689 222.954 136.073 221.228 136.073 L 218.976 136.073 L 218.976 139.721 L 220.935 139.721 Z M 238.829 138.663 C 238.829 139.113 238.896 139.447 239.031 139.665 C 239.167 139.882 239.4 140.044 239.729 140.149 L 239.144 141.86 C 237.898 141.71 237.08 141.162 236.69 140.216 C 236.254 140.757 235.71 141.166 235.057 141.444 C 234.404 141.722 233.687 141.86 232.907 141.86 C 231.705 141.86 230.753 141.522 230.047 140.847 C 229.341 140.171 228.989 139.279 228.989 138.167 C 228.989 136.921 229.481 135.961 230.463 135.285 C 231.446 134.61 232.839 134.272 234.64 134.272 L 236.329 134.272 L 236.329 133.506 C 236.329 132.755 236.104 132.208 235.654 131.862 C 235.203 131.517 234.55 131.345 233.695 131.345 C 233.275 131.345 232.786 131.397 232.231 131.502 C 231.676 131.607 231.113 131.758 230.542 131.953 L 229.912 130.174 C 231.338 129.633 232.727 129.363 234.078 129.363 C 235.654 129.363 236.839 129.709 237.635 130.399 C 238.431 131.089 238.829 132.073 238.829 133.349 L 238.829 138.663 Z M 233.65 140.014 C 234.176 140.014 234.682 139.879 235.17 139.608 C 235.657 139.338 236.044 138.963 236.329 138.483 L 236.329 135.848 L 234.933 135.848 C 233.793 135.848 232.96 136.039 232.434 136.422 C 231.908 136.805 231.646 137.357 231.646 138.077 C 231.646 138.708 231.815 139.189 232.152 139.518 C 232.49 139.848 232.989 140.014 233.65 140.014 Z M 263.748 131.637 L 259.244 131.637 L 259.244 141.567 L 256.745 141.567 L 256.745 129.678 L 266.247 129.678 L 266.247 141.567 L 263.748 141.567 L 263.748 131.637 Z M 275.02 129.363 C 276.731 129.363 278.052 129.923 278.983 131.041 C 279.914 132.159 280.379 133.678 280.379 135.6 C 280.379 137.522 279.906 139.046 278.961 140.171 C 278.015 141.297 276.694 141.86 274.997 141.86 C 273.286 141.86 271.961 141.309 271.023 140.205 C 270.085 139.102 269.616 137.574 269.616 135.623 C 269.616 133.731 270.092 132.215 271.046 131.074 C 271.999 129.934 273.323 129.363 275.02 129.363 Z M 275.02 131.322 C 274.105 131.322 273.418 131.674 272.96 132.38 C 272.501 133.086 272.273 134.167 272.273 135.623 C 272.273 137.094 272.498 138.179 272.948 138.877 C 273.399 139.575 274.082 139.924 274.997 139.924 C 275.913 139.924 276.596 139.571 277.047 138.865 C 277.497 138.159 277.722 137.072 277.722 135.6 C 277.722 134.145 277.497 133.067 277.047 132.369 C 276.596 131.671 275.921 131.322 275.02 131.322 Z M 284.432 133.484 L 292.584 133.484 L 292.584 135.555 L 284.432 135.555 L 284.432 133.484 Z M 304.24 136.479 L 299.781 136.479 L 299.781 141.567 L 297.259 141.567 L 297.259 129.678 L 299.781 129.678 L 299.781 134.52 L 304.24 134.52 L 304.24 129.678 L 306.762 129.678 L 306.762 141.567 L 304.24 141.567 L 304.24 136.479 Z M 319.867 138.663 C 319.867 139.113 319.935 139.447 320.07 139.665 C 320.205 139.882 320.438 140.044 320.768 140.149 L 320.182 141.86 C 318.936 141.71 318.118 141.162 317.728 140.216 C 317.292 140.757 316.748 141.166 316.095 141.444 C 315.442 141.722 314.725 141.86 313.945 141.86 C 312.744 141.86 311.791 141.522 311.085 140.847 C 310.379 140.171 310.027 139.279 310.027 138.167 C 310.027 136.921 310.519 135.961 311.502 135.285 C 312.485 134.61 313.877 134.272 315.679 134.272 L 317.368 134.272 L 317.368 133.506 C 317.368 132.755 317.142 132.208 316.692 131.862 C 316.242 131.517 315.589 131.345 314.733 131.345 C 314.313 131.345 313.824 131.397 313.269 131.502 C 312.714 131.607 312.151 131.758 311.581 131.953 L 310.95 130.174 C 312.377 129.633 313.765 129.363 315.116 129.363 C 316.692 129.363 317.878 129.709 318.674 130.399 C 319.47 131.089 319.867 132.073 319.867 133.349 L 319.867 138.663 Z M 314.688 140.014 C 315.214 140.014 315.72 139.879 316.208 139.608 C 316.695 139.338 317.083 138.963 317.368 138.483 L 317.368 135.848 L 315.971 135.848 C 314.831 135.848 313.998 136.039 313.472 136.422 C 312.946 136.805 312.684 137.357 312.684 138.077 C 312.684 138.708 312.853 139.189 313.191 139.518 C 313.528 139.848 314.027 140.014 314.688 140.014 Z M 330.014 139.789 C 330.96 139.789 331.936 139.451 332.942 138.775 L 334.09 140.397 C 333.564 140.847 332.934 141.204 332.199 141.466 C 331.463 141.728 330.705 141.86 329.924 141.86 C 328.108 141.86 326.69 141.301 325.669 140.183 C 324.647 139.065 324.137 137.567 324.137 135.69 C 324.137 134.474 324.37 133.39 324.835 132.437 C 325.3 131.483 325.973 130.733 326.851 130.185 C 327.729 129.637 328.768 129.363 329.969 129.363 C 331.546 129.363 332.919 129.844 334.09 130.804 L 332.919 132.38 C 331.959 131.719 330.991 131.39 330.014 131.39 C 329.024 131.39 328.243 131.746 327.673 132.459 C 327.102 133.172 326.817 134.249 326.817 135.69 C 326.817 137.101 327.102 138.137 327.673 138.798 C 328.243 139.459 329.024 139.789 330.014 139.789 Z M 347.839 131.637 L 343.786 131.637 L 343.786 141.567 L 341.264 141.567 L 341.264 131.637 L 337.053 131.637 L 337.053 129.678 L 348.132 129.678 L 347.839 131.637 Z M 356.058 129.363 C 357.77 129.363 359.09 129.923 360.021 131.041 C 360.952 132.159 361.417 133.678 361.417 135.6 C 361.417 137.522 360.945 139.046 359.999 140.171 C 359.053 141.297 357.732 141.86 356.036 141.86 C 354.324 141.86 352.999 141.309 352.061 140.205 C 351.124 139.102 350.654 137.574 350.654 135.623 C 350.654 133.731 351.13 132.215 352.084 131.074 C 353.038 129.934 354.362 129.363 356.058 129.363 Z M 356.058 131.322 C 355.143 131.322 354.456 131.674 353.998 132.38 C 353.54 133.086 353.311 134.167 353.311 135.623 C 353.311 137.094 353.536 138.179 353.987 138.877 C 354.437 139.575 355.12 139.924 356.036 139.924 C 356.951 139.924 357.634 139.571 358.085 138.865 C 358.535 138.159 358.76 137.072 358.76 135.6 C 358.76 134.145 358.535 133.067 358.085 132.369 C 357.634 131.671 356.959 131.322 356.058 131.322 Z M 374.064 129.678 L 374.064 141.567 L 371.542 141.567 L 371.542 137.132 L 368.863 137.132 L 366.453 141.567 L 363.684 141.567 L 366.544 136.569 C 365.868 136.253 365.353 135.829 365.001 135.296 C 364.649 134.764 364.472 134.137 364.472 133.416 C 364.472 132.231 364.911 131.311 365.789 130.658 C 366.667 130.005 367.925 129.678 369.561 129.678 L 374.064 129.678 Z M 371.542 135.375 L 371.542 131.457 L 369.516 131.457 C 368.705 131.457 368.101 131.615 367.703 131.93 C 367.306 132.245 367.106 132.726 367.106 133.371 C 367.106 134.061 367.298 134.568 367.681 134.891 C 368.063 135.214 368.668 135.375 369.493 135.375 L 371.542 135.375 Z M 390.345 139.608 L 390.345 145.103 L 388.34 145.103 L 387.98 141.567 L 377.194 141.567 L 377.194 129.678 L 379.446 129.678 L 379.446 139.586 L 382.013 139.586 L 382.013 129.678 L 384.085 129.678 L 384.085 139.586 L 386.652 139.586 L 386.652 129.678 L 388.903 129.678 L 388.903 139.608 L 390.345 139.608 Z M 393.894 136.434 C 393.97 137.59 394.303 138.457 394.896 139.034 C 395.49 139.612 396.236 139.901 397.137 139.901 C 397.692 139.901 398.221 139.815 398.724 139.642 C 399.228 139.47 399.741 139.211 400.267 138.865 L 401.348 140.397 C 400.793 140.862 400.14 141.222 399.389 141.477 C 398.638 141.733 397.85 141.86 397.024 141.86 C 395.208 141.86 393.796 141.294 392.791 140.16 C 391.786 139.026 391.282 137.514 391.282 135.623 C 391.282 134.437 391.5 133.368 391.935 132.414 C 392.371 131.461 393.002 130.714 393.827 130.174 C 394.652 129.633 395.614 129.363 396.709 129.363 C 398.285 129.363 399.535 129.892 400.458 130.95 C 401.381 132.009 401.843 133.461 401.843 135.308 C 401.843 135.758 401.821 136.133 401.776 136.434 L 393.894 136.434 Z M 396.732 131.232 C 395.921 131.232 395.26 131.525 394.75 132.11 C 394.24 132.696 393.947 133.566 393.872 134.722 L 399.389 134.722 C 399.358 133.596 399.118 132.733 398.668 132.133 C 398.218 131.533 397.573 131.232 396.732 131.232 Z M 416.043 141.567 L 413.723 141.567 L 413.363 136.434 C 413.318 135.533 413.295 134.61 413.295 133.664 C 413.295 132.974 413.303 132.44 413.318 132.065 L 413.228 132.065 L 411.156 139.608 L 409.017 139.608 L 406.72 132.065 L 406.63 132.065 C 406.661 132.44 406.675 133.019 406.675 133.799 C 406.675 134.714 406.653 135.6 406.608 136.456 L 406.36 141.567 L 404.063 141.567 L 404.896 129.678 L 407.891 129.678 L 410.12 137.492 L 412.125 129.678 L 415.187 129.678 L 416.043 141.567 Z M 425.117 141.613 C 424.636 143.054 423.943 144.183 423.034 145.001 C 422.126 145.82 420.876 146.296 419.285 146.431 L 418.97 144.54 C 419.75 144.419 420.381 144.236 420.861 143.988 C 421.342 143.74 421.725 143.429 422.01 143.054 C 422.295 142.679 422.55 142.183 422.775 141.567 L 421.92 141.567 L 417.912 129.678 L 420.591 129.678 L 423.586 139.811 L 426.626 129.678 L 429.215 129.678 L 425.117 141.613 Z M 455.891 131.637 L 451.838 131.637 L 451.838 141.567 L 449.316 141.567 L 449.316 131.637 L 445.105 131.637 L 445.105 129.678 L 456.183 129.678 L 455.891 131.637 Z M 466.511 135.082 C 468.523 135.308 469.528 136.291 469.528 138.032 C 469.528 139.218 469.036 140.104 468.054 140.689 C 467.071 141.275 465.821 141.567 464.304 141.567 L 459.553 141.567 L 459.553 129.813 C 461.129 129.513 462.585 129.363 463.922 129.363 C 465.453 129.363 466.672 129.637 467.581 130.185 C 468.489 130.733 468.943 131.502 468.943 132.493 C 468.943 133.154 468.748 133.698 468.358 134.125 C 467.967 134.553 467.352 134.872 466.511 135.082 Z M 463.922 131.164 C 463.276 131.164 462.661 131.209 462.075 131.3 L 462.075 134.452 L 464.169 134.452 C 464.904 134.452 465.464 134.32 465.847 134.058 C 466.23 133.796 466.421 133.371 466.421 132.786 C 466.421 132.215 466.218 131.803 465.813 131.547 C 465.408 131.292 464.777 131.164 463.922 131.164 Z M 464.034 139.721 C 464.92 139.721 465.622 139.597 466.14 139.35 C 466.657 139.102 466.916 138.626 466.916 137.92 C 466.916 136.689 466.053 136.073 464.327 136.073 L 462.075 136.073 L 462.075 139.721 L 464.034 139.721 Z M 477.603 129.363 C 479.315 129.363 480.635 129.923 481.566 131.041 C 482.497 132.159 482.962 133.678 482.962 135.6 C 482.962 137.522 482.489 139.046 481.544 140.171 C 480.598 141.297 479.277 141.86 477.581 141.86 C 475.869 141.86 474.544 141.309 473.606 140.205 C 472.668 139.102 472.199 137.574 472.199 135.623 C 472.199 133.731 472.675 132.215 473.629 131.074 C 474.582 129.934 475.907 129.363 477.603 129.363 Z M 477.603 131.322 C 476.688 131.322 476.001 131.674 475.543 132.38 C 475.085 133.086 474.856 134.167 474.856 135.623 C 474.856 137.094 475.081 138.179 475.532 138.877 C 475.982 139.575 476.665 139.924 477.581 139.924 C 478.496 139.924 479.179 139.571 479.63 138.865 C 480.08 138.159 480.305 137.072 480.305 135.6 C 480.305 134.145 480.08 133.067 479.63 132.369 C 479.179 131.671 478.504 131.322 477.603 131.322 Z M 495.842 141.567 L 493.41 141.567 L 493.41 136.681 C 493.41 135.735 493.448 134.846 493.523 134.013 C 493.598 133.18 493.673 132.591 493.748 132.245 L 489.155 141.567 L 486.34 141.567 L 486.34 129.678 L 488.772 129.678 L 488.772 134.587 C 488.772 135.457 488.738 136.321 488.671 137.177 C 488.603 138.032 488.524 138.626 488.434 138.955 L 492.983 129.678 L 495.842 129.678 L 495.842 141.567 Z M 491.046 127.291 C 490.055 127.291 489.245 127.025 488.614 126.492 C 487.984 125.959 487.623 125.265 487.533 124.409 L 489.065 124.094 C 489.349 125.009 490.01 125.467 491.046 125.467 C 492.142 125.467 492.817 125.009 493.073 124.094 L 494.626 124.409 C 494.536 125.265 494.168 125.959 493.523 126.492 C 492.878 127.025 492.052 127.291 491.046 127.291 Z" style="stroke: rgb(255, 255, 255); stroke-width: 0.6px;"/>
  <g id="Logo" transform="matrix(0.219921, 0, 0, 0.238649, 277.514954, 59.863697)" style="">
    <linearGradient id="SVGID_SVGID_1__1" gradientUnits="userSpaceOnUse" gradientTransform="matrix(1 0 0 1 0 0)" x1="134.6856" y1="578.1185" x2="481.5801" y2="113.0678">
      <stop offset="0" style="stop-color:#11156D;stop-opacity: 1"/>
      <stop offset="1" style="stop-color:#48569E;stop-opacity: 1"/>
    </linearGradient>
    <path style="stroke-dasharray: none; stroke-linecap: butt; stroke-dashoffset: 0; stroke-linejoin: miter; stroke-miterlimit: 4; fill: url('#SVGID_SVGID_1__1'); fill-rule: nonzero; opacity: 1; filter: url('#SVGID_437'); paint-order: fill; stroke: rgb(255, 255, 255); stroke-width: 13.0842px;" transform=" translate(-256.03, -256.02)" d="M 486.2 405.6 L 298.8 81 c -19.9 -30.2 -43.9 -97.7 -78.7 -35.2 L 4.8 418.7 c -13.6 23.6 3.7 73.2 30.6 73.2 L 220 172 l 0 0 c 33.6 -62.5 58.1 1.4 78.8 35.4 l 127.8 221.4 h -25.5 c -25.5 0 -38.4 -6 -51.1 -18.8 l -60.2 -60.2 c -22.7 -22.7 -34.6 -25.8 -50.4 -25.8 h -20.2 c -31.1 0 -37.3 45.4 -56.1 63.1 h 43.7 c 28.7 0 38.2 7.2 56.8 25.8 l 58.7 58.7 c 17.2 17.2 33.7 20.3 63 20.3 H 512 C 512 466.2 512 448.5 486.2 405.6 z" stroke-linecap="round"/>
  </g>
</svg>