<?xml version="1.0" encoding="utf-8"?>
<svg viewBox="0 0 300 300" xmlns="http://www.w3.org/2000/svg">
  <path d="M 23.483 137.079 L 23.483 188.027 L 5 188.027 L 5 77.126 L 23.483 77.126 L 23.483 122.612 L 35.378 122.612 L 65.754 77.126 L 84.88 77.126 L 50.967 128.56 L 87.933 188.027 L 66.559 188.027 L 35.378 137.079 L 23.483 137.079 Z M 179.051 132.575 C 179.051 150.151 175.435 164.135 168.203 174.526 C 160.971 184.921 150.549 190.119 136.943 190.119 C 123.333 190.119 112.913 185.001 105.68 174.769 C 98.448 164.535 94.831 150.525 94.831 132.74 C 94.831 115.165 98.448 101.128 105.68 90.627 C 112.913 80.125 123.333 74.875 136.943 74.875 C 150.549 74.875 160.971 80.045 168.203 90.386 C 175.435 100.728 179.051 114.79 179.051 132.575 Z M 159.925 132.575 C 159.925 118.006 158.103 107.183 154.461 100.112 C 150.818 93.038 144.978 89.504 136.943 89.504 C 128.907 89.504 123.066 93.038 119.424 100.112 C 115.781 107.183 113.96 118.058 113.96 132.74 C 113.96 147.203 115.805 157.972 119.503 165.044 C 123.201 172.116 129.012 175.652 136.943 175.652 C 144.978 175.652 150.818 172.116 154.461 165.044 C 158.103 157.972 159.925 147.15 159.925 132.575 Z M 275.798 112.004 C 275.798 124.434 271.941 133.622 264.225 139.569 C 256.512 145.516 245.956 148.487 232.561 148.487 L 219.06 148.487 L 219.06 188.027 L 200.577 188.027 L 200.577 77.126 L 231.277 77.126 C 245.529 77.126 256.512 80.045 264.225 85.886 C 271.941 91.725 275.798 100.431 275.798 112.004 Z M 256.352 112.004 C 256.352 98.075 248.42 91.109 232.561 91.109 L 219.06 91.109 L 219.06 134.344 L 232.724 134.344 C 240.223 134.344 246.037 132.633 250.161 129.202 C 254.288 125.772 256.352 120.04 256.352 112.004 Z M 339.126 74.875 C 346.413 74.875 352.626 75.785 357.77 77.609 C 362.912 79.432 367.841 82.271 372.558 86.127 L 362.912 97.698 C 356.161 92.236 348.5 89.504 339.928 89.504 C 330.926 89.504 323.589 92.958 317.908 99.868 C 312.23 106.78 309.391 117.629 309.391 132.415 C 309.391 146.987 312.177 157.733 317.748 164.642 C 323.322 171.554 330.766 175.009 340.087 175.009 C 345.447 175.009 350.028 174.18 353.832 172.515 C 357.637 170.854 361.411 168.528 365.162 165.528 L 374.164 176.939 C 365.162 185.724 353.589 190.119 339.446 190.119 C 329.91 190.119 321.392 187.894 313.89 183.448 C 306.39 179.002 300.527 172.437 296.293 163.757 C 292.059 155.079 289.945 144.631 289.945 132.415 C 289.945 120.417 292.115 110.077 296.454 101.398 C 300.793 92.717 306.712 86.127 314.213 81.626 C 321.713 77.126 330.017 74.875 339.126 74.875 Z M 644.618 137.079 L 644.618 188.027 L 626.133 188.027 L 626.133 77.126 L 644.618 77.126 L 644.618 122.612 L 656.512 122.612 L 686.889 77.126 L 706.016 77.126 L 672.101 128.56 L 709.068 188.027 L 687.692 188.027 L 656.512 137.079 L 644.618 137.079 Z M 800.187 132.575 C 800.187 150.151 796.568 164.135 789.338 174.526 C 782.105 184.921 771.684 190.119 758.076 190.119 C 744.468 190.119 734.046 185.001 726.815 174.769 C 719.582 164.535 715.965 150.525 715.965 132.74 C 715.965 115.165 719.582 101.128 726.815 90.627 C 734.046 80.125 744.468 74.875 758.076 74.875 C 771.684 74.875 782.105 80.045 789.338 90.386 C 796.568 100.728 800.187 114.79 800.187 132.575 Z M 781.061 132.575 C 781.061 118.006 779.238 107.183 775.593 100.112 C 771.951 93.038 766.112 89.504 758.076 89.504 C 750.04 89.504 744.198 93.038 740.557 100.112 C 736.916 107.183 735.093 118.058 735.093 132.74 C 735.093 147.203 736.938 157.972 740.636 165.044 C 744.334 172.116 750.147 175.652 758.076 175.652 C 766.112 175.652 771.951 172.116 775.593 165.044 C 779.238 157.972 781.061 147.15 781.061 132.575 Z M 895 156.043 C 895 167.508 890.927 175.708 882.786 180.633 C 874.643 185.562 864.301 188.027 851.766 188.027 L 819.299 188.027 L 819.299 77.126 L 849.675 77.126 C 861.463 77.126 871.159 79.296 878.766 83.634 C 886.376 87.974 890.177 95.182 890.177 105.254 C 890.177 111.683 888.225 116.962 884.313 121.085 C 880.402 125.211 875.498 127.918 869.605 129.202 C 876.893 130.489 882.946 133.193 887.767 137.319 C 892.59 141.445 895 147.685 895 156.043 Z M 871.213 106.699 C 871.213 101.235 869.526 97.274 866.148 94.805 C 862.775 92.343 857.821 91.109 851.283 91.109 L 837.943 91.109 L 837.943 123.093 L 852.407 123.093 C 858.731 123.093 863.445 121.78 866.554 119.158 C 869.659 116.529 871.213 112.379 871.213 106.699 Z M 875.553 156.043 C 875.553 149.077 873.624 144.176 869.766 141.339 C 865.909 138.5 860.553 137.079 853.693 137.079 L 837.943 137.079 L 837.943 173.561 L 853.051 173.561 C 868.053 173.561 875.553 167.722 875.553 156.043 Z" style="stroke: rgb(255, 255, 255); stroke-width: 2px;"/>
  <path d="M 328.25 240.497 C 330.073 240.497 331.624 240.726 332.912 241.182 C 334.196 241.637 335.429 242.347 336.606 243.31 L 334.196 246.206 C 332.511 244.837 330.595 244.155 328.451 244.155 C 326.2 244.155 324.365 245.018 322.946 246.749 C 321.524 248.475 320.817 251.189 320.817 254.883 C 320.817 258.528 321.513 261.212 322.906 262.939 C 324.298 264.667 326.163 265.533 328.494 265.533 C 329.833 265.533 330.975 265.326 331.926 264.909 C 332.877 264.495 333.821 263.91 334.759 263.162 L 337.011 266.014 C 334.759 268.211 331.868 269.307 328.333 269.307 C 325.944 269.307 323.817 268.751 321.941 267.641 C 320.067 266.529 318.601 264.888 317.543 262.718 C 316.483 260.549 315.955 257.937 315.955 254.883 C 315.955 251.885 316.497 249.299 317.582 247.131 C 318.666 244.961 320.148 243.31 322.02 242.186 C 323.898 241.062 325.971 240.497 328.25 240.497 Z M 353.99 259.709 L 346.036 259.709 L 346.036 268.786 L 341.534 268.786 L 341.534 247.571 L 346.036 247.571 L 346.036 256.21 L 353.99 256.21 L 353.99 247.571 L 358.49 247.571 L 358.49 268.786 L 353.99 268.786 L 353.99 259.709 Z M 374.146 247.008 C 377.2 247.008 379.558 248.006 381.219 250.001 C 382.878 251.997 383.709 254.708 383.709 258.139 C 383.709 261.567 382.867 264.286 381.179 266.294 C 379.492 268.304 377.134 269.307 374.108 269.307 C 371.055 269.307 368.687 268.326 367.014 266.355 C 365.343 264.385 364.505 261.661 364.505 258.178 C 364.505 254.804 365.353 252.098 367.055 250.06 C 368.757 248.027 371.122 247.008 374.146 247.008 Z M 374.146 250.504 C 372.515 250.504 371.288 251.132 370.47 252.393 C 369.655 253.651 369.245 255.581 369.245 258.178 C 369.245 260.803 369.647 262.738 370.451 263.987 C 371.253 265.231 372.473 265.853 374.108 265.853 C 375.74 265.853 376.96 265.225 377.763 263.964 C 378.566 262.705 378.969 260.763 378.969 258.139 C 378.969 255.542 378.566 253.615 377.763 252.374 C 376.96 251.128 375.754 250.504 374.146 250.504 Z M 402.556 257.212 C 406.147 257.617 407.938 259.371 407.938 262.479 C 407.938 264.595 407.06 266.174 405.311 267.219 C 403.554 268.265 401.324 268.786 398.618 268.786 L 390.138 268.786 L 390.138 247.811 C 392.95 247.274 395.55 247.008 397.935 247.008 C 400.667 247.008 402.842 247.497 404.465 248.475 C 406.086 249.45 406.895 250.824 406.895 252.594 C 406.895 253.774 406.548 254.745 405.852 255.506 C 405.154 256.268 404.057 256.839 402.556 257.212 Z M 397.935 250.223 C 396.785 250.223 395.685 250.304 394.64 250.465 L 394.64 256.09 L 398.377 256.09 C 399.691 256.09 400.686 255.853 401.371 255.386 C 402.054 254.92 402.395 254.16 402.395 253.116 C 402.395 252.098 402.034 251.363 401.31 250.906 C 400.589 250.45 399.462 250.223 397.935 250.223 Z M 398.137 265.493 C 399.716 265.493 400.971 265.27 401.893 264.83 C 402.818 264.385 403.277 263.538 403.277 262.277 C 403.277 260.08 401.737 258.982 398.658 258.982 L 394.64 258.982 L 394.64 265.493 L 398.137 265.493 Z M 430.069 263.602 C 430.069 264.406 430.186 265.003 430.427 265.391 C 430.668 265.778 431.085 266.067 431.674 266.253 L 430.628 269.307 C 428.405 269.042 426.947 268.064 426.249 266.375 C 425.472 267.34 424.503 268.07 423.337 268.566 C 422.17 269.062 420.893 269.307 419.5 269.307 C 417.355 269.307 415.656 268.706 414.397 267.501 C 413.135 266.294 412.507 264.704 412.507 262.718 C 412.507 260.496 413.385 258.783 415.138 257.575 C 416.892 256.37 419.377 255.767 422.59 255.767 L 425.604 255.767 L 425.604 254.398 C 425.604 253.061 425.205 252.085 424.402 251.468 C 423.595 250.852 422.43 250.545 420.906 250.545 C 420.157 250.545 419.284 250.639 418.293 250.824 C 417.304 251.013 416.298 251.281 415.279 251.631 L 414.155 248.453 C 416.698 247.49 419.178 247.008 421.589 247.008 C 424.402 247.008 426.515 247.626 427.936 248.859 C 429.358 250.087 430.069 251.843 430.069 254.12 L 430.069 263.602 Z M 420.827 266.014 C 421.763 266.014 422.667 265.773 423.538 265.29 C 424.407 264.808 425.097 264.139 425.604 263.281 L 425.604 258.581 L 423.115 258.581 C 421.08 258.581 419.593 258.923 418.656 259.606 C 417.717 260.289 417.25 261.274 417.25 262.558 C 417.25 263.682 417.551 264.544 418.152 265.128 C 418.754 265.718 419.644 266.014 420.827 266.014 Z M 474.534 251.066 L 466.498 251.066 L 466.498 268.786 L 462.034 268.786 L 462.034 247.571 L 478.993 247.571 L 478.993 268.786 L 474.534 268.786 L 474.534 251.066 Z M 494.649 247.008 C 497.702 247.008 500.06 248.006 501.72 250.001 C 503.381 251.997 504.212 254.708 504.212 258.139 C 504.212 261.567 503.365 264.286 501.68 266.294 C 499.993 268.304 497.633 269.307 494.607 269.307 C 491.554 269.307 489.188 268.326 487.515 266.355 C 485.842 264.385 485.005 261.661 485.005 258.178 C 485.005 254.804 485.856 252.098 487.556 250.06 C 489.258 248.027 491.619 247.008 494.649 247.008 Z M 494.649 250.504 C 493.015 250.504 491.787 251.132 490.974 252.393 C 490.154 253.651 489.746 255.581 489.746 258.178 C 489.746 260.803 490.148 262.738 490.951 263.987 C 491.757 265.231 492.976 265.853 494.607 265.853 C 496.24 265.853 497.461 265.225 498.266 263.964 C 499.068 262.705 499.468 260.763 499.468 258.139 C 499.468 255.542 499.068 253.615 498.266 252.374 C 497.461 251.128 496.255 250.504 494.649 250.504 Z M 511.445 254.363 L 525.991 254.363 L 525.991 258.057 L 511.445 258.057 L 511.445 254.363 Z M 546.789 259.709 L 538.833 259.709 L 538.833 268.786 L 534.333 268.786 L 534.333 247.571 L 538.833 247.571 L 538.833 256.21 L 546.789 256.21 L 546.789 247.571 L 551.291 247.571 L 551.291 268.786 L 546.789 268.786 L 546.789 259.709 Z M 574.673 263.602 C 574.673 264.406 574.798 265.003 575.038 265.391 C 575.278 265.778 575.696 266.067 576.283 266.253 L 575.237 269.307 C 573.014 269.042 571.554 268.064 570.86 266.375 C 570.081 267.34 569.11 268.07 567.943 268.566 C 566.778 269.062 565.5 269.307 564.108 269.307 C 561.965 269.307 560.263 268.706 559.006 267.501 C 557.745 266.294 557.119 264.704 557.119 262.718 C 557.119 260.496 557.994 258.783 559.749 257.575 C 561.504 256.37 563.985 255.767 567.202 255.767 L 570.215 255.767 L 570.215 254.398 C 570.215 253.061 569.813 252.085 569.012 251.468 C 568.207 250.852 567.041 250.545 565.515 250.545 C 564.765 250.545 563.891 250.639 562.903 250.824 C 561.911 251.013 560.905 251.281 559.891 251.631 L 558.763 248.453 C 561.31 247.49 563.787 247.008 566.198 247.008 C 569.012 247.008 571.127 247.626 572.546 248.859 C 573.967 250.087 574.673 251.843 574.673 254.12 L 574.673 263.602 Z M 565.433 266.014 C 566.373 266.014 567.274 265.773 568.145 265.29 C 569.017 264.808 569.706 264.139 570.215 263.281 L 570.215 258.581 L 567.723 258.581 C 565.689 258.581 564.203 258.923 563.264 259.606 C 562.325 260.289 561.857 261.274 561.857 262.558 C 561.857 263.682 562.159 264.544 562.763 265.128 C 563.366 265.718 564.256 266.014 565.433 266.014 Z M 592.783 265.613 C 594.471 265.613 596.214 265.009 598.007 263.803 L 600.056 266.698 C 599.117 267.501 597.994 268.137 596.681 268.607 C 595.366 269.073 594.017 269.307 592.623 269.307 C 589.382 269.307 586.851 268.31 585.029 266.316 C 583.205 264.321 582.294 261.649 582.294 258.297 C 582.294 256.129 582.711 254.194 583.543 252.495 C 584.371 250.791 585.572 249.45 587.138 248.475 C 588.705 247.497 590.56 247.008 592.702 247.008 C 595.516 247.008 597.966 247.866 600.056 249.581 L 597.966 252.393 C 596.253 251.213 594.526 250.625 592.783 250.625 C 591.015 250.625 589.621 251.261 588.605 252.534 C 587.586 253.807 587.077 255.726 587.077 258.297 C 587.077 260.815 587.586 262.665 588.605 263.846 C 589.621 265.023 591.015 265.613 592.783 265.613 Z M 624.592 251.066 L 617.358 251.066 L 617.358 268.786 L 612.858 268.786 L 612.858 251.066 L 605.342 251.066 L 605.342 247.571 L 625.113 247.571 L 624.592 251.066 Z M 639.256 247.008 C 642.31 247.008 644.668 248.006 646.327 250.001 C 647.989 251.997 648.819 254.708 648.819 258.139 C 648.819 261.567 647.978 264.286 646.289 266.294 C 644.6 268.304 642.243 269.307 639.219 269.307 C 636.163 269.307 633.796 268.326 632.123 266.355 C 630.453 264.385 629.614 261.661 629.614 258.178 C 629.614 254.804 630.463 252.098 632.165 250.06 C 633.867 248.027 636.231 247.008 639.256 247.008 Z M 639.256 250.504 C 637.624 250.504 636.399 251.132 635.58 252.393 C 634.765 253.651 634.355 255.581 634.355 258.178 C 634.355 260.803 634.756 262.738 635.562 263.987 C 636.364 265.231 637.583 265.853 639.219 265.853 C 640.85 265.853 642.069 265.225 642.873 263.964 C 643.675 262.705 644.079 260.763 644.079 258.139 C 644.079 255.542 643.675 253.615 642.873 252.374 C 642.069 251.128 640.863 250.504 639.256 250.504 Z M 671.387 247.571 L 671.387 268.786 L 666.887 268.786 L 666.887 260.872 L 662.107 260.872 L 657.806 268.786 L 652.865 268.786 L 657.968 259.868 C 656.763 259.303 655.844 258.546 655.214 257.595 C 654.587 256.648 654.27 255.528 654.27 254.239 C 654.27 252.125 655.054 250.484 656.622 249.318 C 658.19 248.154 660.434 247.571 663.353 247.571 L 671.387 247.571 Z M 666.887 257.736 L 666.887 250.746 L 663.272 250.746 C 661.826 250.746 660.748 251.028 660.037 251.588 C 659.328 252.151 658.972 253.007 658.972 254.16 C 658.972 255.391 659.313 256.294 659.997 256.873 C 660.679 257.449 661.76 257.736 663.231 257.736 L 666.887 257.736 Z M 700.439 265.29 L 700.439 275.094 L 696.863 275.094 L 696.219 268.786 L 676.973 268.786 L 676.973 247.571 L 680.992 247.571 L 680.992 265.251 L 685.572 265.251 L 685.572 247.571 L 689.268 247.571 L 689.268 265.251 L 693.851 265.251 L 693.851 247.571 L 697.866 247.571 L 697.866 265.29 L 700.439 265.29 Z M 706.773 259.626 C 706.909 261.688 707.503 263.237 708.56 264.266 C 709.621 265.297 710.953 265.814 712.561 265.814 C 713.55 265.814 714.496 265.658 715.392 265.351 C 716.29 265.044 717.207 264.58 718.147 263.964 L 720.076 266.698 C 719.084 267.527 717.918 268.171 716.579 268.624 C 715.239 269.081 713.834 269.307 712.361 269.307 C 709.117 269.307 706.599 268.299 704.805 266.275 C 703.014 264.25 702.112 261.552 702.112 258.178 C 702.112 256.063 702.501 254.155 703.277 252.453 C 704.056 250.751 705.183 249.419 706.656 248.453 C 708.126 247.49 709.842 247.008 711.796 247.008 C 714.609 247.008 716.84 247.952 718.487 249.839 C 720.133 251.728 720.959 254.32 720.959 257.617 C 720.959 258.421 720.918 259.089 720.839 259.626 L 706.773 259.626 Z M 711.838 250.343 C 710.39 250.343 709.211 250.865 708.303 251.911 C 707.39 252.954 706.868 254.508 706.735 256.569 L 716.579 256.569 C 716.525 254.563 716.095 253.022 715.292 251.95 C 714.49 250.879 713.339 250.343 711.838 250.343 Z M 746.298 268.786 L 742.157 268.786 L 741.517 259.626 C 741.433 258.017 741.394 256.37 741.394 254.682 C 741.394 253.452 741.407 252.5 741.433 251.83 L 741.273 251.83 L 737.577 265.29 L 733.76 265.29 L 729.663 251.83 L 729.503 251.83 C 729.557 252.5 729.582 253.532 729.582 254.924 C 729.582 256.556 729.541 258.139 729.462 259.666 L 729.017 268.786 L 724.919 268.786 L 726.405 247.571 L 731.75 247.571 L 735.728 261.513 L 739.305 247.571 L 744.77 247.571 L 746.298 268.786 Z M 762.49 268.867 C 761.632 271.439 760.394 273.454 758.774 274.913 C 757.154 276.373 754.922 277.224 752.083 277.466 L 751.522 274.09 C 752.914 273.875 754.038 273.549 754.894 273.106 C 755.755 272.665 756.438 272.109 756.945 271.439 C 757.453 270.771 757.909 269.885 758.312 268.786 L 756.785 268.786 L 749.634 247.571 L 754.415 247.571 L 759.758 265.653 L 765.183 247.571 L 769.802 247.571 L 762.49 268.867 Z M 817.404 251.066 L 810.172 251.066 L 810.172 268.786 L 805.672 268.786 L 805.672 251.066 L 798.157 251.066 L 798.157 247.571 L 817.925 247.571 L 817.404 251.066 Z M 836.357 257.212 C 839.946 257.617 841.739 259.371 841.739 262.479 C 841.739 264.595 840.862 266.174 839.11 267.219 C 837.356 268.265 835.125 268.786 832.417 268.786 L 823.939 268.786 L 823.939 247.811 C 826.752 247.274 829.351 247.008 831.737 247.008 C 834.468 247.008 836.643 247.497 838.265 248.475 C 839.885 249.45 840.695 250.824 840.695 252.594 C 840.695 253.774 840.346 254.745 839.651 255.506 C 838.953 256.268 837.858 256.839 836.357 257.212 Z M 831.737 250.223 C 830.583 250.223 829.486 250.304 828.439 250.465 L 828.439 256.09 L 832.177 256.09 C 833.489 256.09 834.487 255.853 835.17 255.386 C 835.855 254.92 836.195 254.16 836.195 253.116 C 836.195 252.098 835.831 251.363 835.11 250.906 C 834.387 250.45 833.26 250.223 831.737 250.223 Z M 831.935 265.493 C 833.518 265.493 834.768 265.27 835.694 264.83 C 836.615 264.385 837.08 263.538 837.08 262.277 C 837.08 260.08 835.539 258.982 832.458 258.982 L 828.439 258.982 L 828.439 265.493 L 831.935 265.493 Z M 856.15 247.008 C 859.203 247.008 861.56 248.006 863.22 250.001 C 864.884 251.997 865.711 254.708 865.711 258.139 C 865.711 261.567 864.867 264.286 863.181 266.294 C 861.494 268.304 859.135 269.307 856.109 269.307 C 853.054 269.307 850.689 268.326 849.015 266.355 C 847.343 264.385 846.505 261.661 846.505 258.178 C 846.505 254.804 847.355 252.098 849.059 250.06 C 850.759 248.027 853.122 247.008 856.15 247.008 Z M 856.15 250.504 C 854.515 250.504 853.289 251.132 852.472 252.393 C 851.655 253.651 851.246 255.581 851.246 258.178 C 851.246 260.803 851.649 262.738 852.452 263.987 C 853.257 265.231 854.475 265.853 856.109 265.853 C 857.743 265.853 858.96 265.225 859.767 263.964 C 860.569 262.705 860.969 260.763 860.969 258.139 C 860.969 255.542 860.569 253.615 859.767 252.374 C 858.96 251.128 857.756 250.504 856.15 250.504 Z M 888.697 268.786 L 884.357 268.786 L 884.357 260.066 C 884.357 258.378 884.424 256.792 884.557 255.306 C 884.693 253.82 884.825 252.768 884.959 252.151 L 876.761 268.786 L 871.738 268.786 L 871.738 247.571 L 876.078 247.571 L 876.078 256.33 C 876.078 257.883 876.018 259.424 875.899 260.953 C 875.777 262.479 875.637 263.538 875.476 264.125 L 883.593 247.571 L 888.697 247.571 L 888.697 268.786 Z M 880.137 243.31 C 878.369 243.31 876.924 242.834 875.797 241.885 C 874.674 240.933 874.03 239.696 873.869 238.17 L 876.602 237.604 C 877.109 239.239 878.291 240.055 880.137 240.055 C 882.093 240.055 883.298 239.239 883.754 237.604 L 886.527 238.17 C 886.365 239.696 885.708 240.933 884.557 241.885 C 883.408 242.834 881.933 243.31 880.137 243.31 Z" style="stroke: rgb(255, 255, 255); stroke-width: 0.6px;"/>
  <g id="Logo" transform="matrix(0.39244, 0, 0, 0.42586, 499.100983, 122.989571)" style="">
    <linearGradient id="SVGID_SVGID_1__1" gradientUnits="userSpaceOnUse" gradientTransform="matrix(1 0 0 1 0 0)" x1="134.6856" y1="578.1185" x2="481.5801" y2="113.0678">
      <stop offset="0" style="stop-color:#11156D;stop-opacity: 1"/>
      <stop offset="1" style="stop-color:#48569E;stop-opacity: 1"/>
    </linearGradient>
    <path style="stroke-dasharray: none; stroke-linecap: butt; stroke-dashoffset: 0; stroke-linejoin: miter; stroke-miterlimit: 4; fill: url('#SVGID_SVGID_1__1'); fill-rule: nonzero; opacity: 1; filter: url('#SVGID_437'); paint-order: fill; stroke: rgb(255, 255, 255); stroke-width: 13.0842px;" transform=" translate(-256.03, -256.02)" d="M 486.2 405.6 L 298.8 81 c -19.9 -30.2 -43.9 -97.7 -78.7 -35.2 L 4.8 418.7 c -13.6 23.6 3.7 73.2 30.6 73.2 L 220 172 l 0 0 c 33.6 -62.5 58.1 1.4 78.8 35.4 l 127.8 221.4 h -25.5 c -25.5 0 -38.4 -6 -51.1 -18.8 l -60.2 -60.2 c -22.7 -22.7 -34.6 -25.8 -50.4 -25.8 h -20.2 c -31.1 0 -37.3 45.4 -56.1 63.1 h 43.7 c 28.7 0 38.2 7.2 56.8 25.8 l 58.7 58.7 c 17.2 17.2 33.7 20.3 63 20.3 H 512 C 512 466.2 512 448.5 486.2 405.6 z" stroke-linecap="round"/>
  </g>
</svg>