<?xml version="1.0" encoding="utf-8"?>
<svg viewBox="0 0 500 500" xmlns="http://www.w3.org/2000/svg">
  <path d="M 10.982 242.759 L 10.982 271.311 L 0.624 271.311 L 0.624 209.162 L 10.982 209.162 L 10.982 234.652 L 17.647 234.652 L 34.67 209.162 L 45.389 209.162 L 26.384 237.985 L 47.1 271.311 L 35.121 271.311 L 17.647 242.759 L 10.982 242.759 Z M 98.162 240.237 C 98.162 250.085 96.135 257.921 92.082 263.745 C 88.029 269.569 82.189 272.482 74.564 272.482 C 66.938 272.482 61.098 269.614 57.045 263.88 C 52.992 258.146 50.965 250.294 50.965 240.327 C 50.965 230.479 52.992 222.613 57.045 216.728 C 61.098 210.843 66.938 207.901 74.564 207.901 C 82.189 207.901 88.029 210.798 92.082 216.593 C 96.135 222.388 98.162 230.269 98.162 240.237 Z M 87.444 240.237 C 87.444 232.071 86.422 226.005 84.381 222.042 C 82.34 218.079 79.067 216.098 74.564 216.098 C 70.06 216.098 66.787 218.079 64.746 222.042 C 62.705 226.005 61.684 232.1 61.684 240.327 C 61.684 248.433 62.719 254.468 64.791 258.431 C 66.863 262.394 70.12 264.375 74.564 264.375 C 79.067 264.375 82.34 262.394 84.381 258.431 C 86.422 254.468 87.444 248.403 87.444 240.237 Z M 152.377 228.708 C 152.377 235.673 150.216 240.822 145.892 244.155 C 141.569 247.487 135.655 249.153 128.148 249.153 L 120.583 249.153 L 120.583 271.311 L 110.225 271.311 L 110.225 209.162 L 127.428 209.162 C 135.414 209.162 141.569 210.798 145.892 214.071 C 150.216 217.344 152.377 222.223 152.377 228.708 Z M 141.479 228.708 C 141.479 220.902 137.035 216.998 128.148 216.998 L 120.583 216.998 L 120.583 241.227 L 128.239 241.227 C 132.441 241.227 135.7 240.267 138.011 238.345 C 140.323 236.423 141.479 233.211 141.479 228.708 Z M 187.866 207.901 C 191.95 207.901 195.432 208.411 198.314 209.433 C 201.196 210.454 203.958 212.045 206.601 214.206 L 201.196 220.691 C 197.413 217.629 193.12 216.098 188.316 216.098 C 183.272 216.098 179.16 218.034 175.977 221.907 C 172.794 225.78 171.203 231.86 171.203 240.146 C 171.203 248.312 172.765 254.333 175.887 258.206 C 179.009 262.079 183.182 264.015 188.406 264.015 C 191.409 264.015 193.976 263.55 196.107 262.619 C 198.239 261.688 200.355 260.382 202.457 258.701 L 207.501 265.096 C 202.457 270.019 195.972 272.482 188.046 272.482 C 182.702 272.482 177.928 271.235 173.725 268.744 C 169.522 266.252 166.235 262.574 163.862 257.71 C 161.49 252.846 160.305 246.992 160.305 240.146 C 160.305 233.422 161.521 227.627 163.952 222.763 C 166.384 217.899 169.702 214.206 173.905 211.684 C 178.108 209.162 182.762 207.901 187.866 207.901 Z M 359.062 242.759 L 359.062 271.311 L 348.704 271.311 L 348.704 209.162 L 359.062 209.162 L 359.062 234.652 L 365.727 234.652 L 382.75 209.162 L 393.469 209.162 L 374.464 237.985 L 395.18 271.311 L 383.201 271.311 L 365.727 242.759 L 359.062 242.759 Z M 446.242 240.237 C 446.242 250.085 444.215 257.921 440.162 263.745 C 436.109 269.569 430.269 272.482 422.644 272.482 C 415.018 272.482 409.178 269.614 405.125 263.88 C 401.072 258.146 399.045 250.294 399.045 240.327 C 399.045 230.479 401.072 222.613 405.125 216.728 C 409.178 210.843 415.018 207.901 422.644 207.901 C 430.269 207.901 436.109 210.798 440.162 216.593 C 444.215 222.388 446.242 230.269 446.242 240.237 Z M 435.524 240.237 C 435.524 232.071 434.502 226.005 432.461 222.042 C 430.42 218.079 427.147 216.098 422.644 216.098 C 418.14 216.098 414.867 218.079 412.826 222.042 C 410.785 226.005 409.764 232.1 409.764 240.327 C 409.764 248.433 410.799 254.468 412.871 258.431 C 414.943 262.394 418.2 264.375 422.644 264.375 C 427.147 264.375 430.42 262.394 432.461 258.431 C 434.502 254.468 435.524 248.403 435.524 240.237 Z M 499.375 253.387 C 499.375 259.812 497.093 264.406 492.53 267.167 C 487.967 269.929 482.172 271.311 475.147 271.311 L 456.952 271.311 L 456.952 209.162 L 473.976 209.162 C 480.581 209.162 486.015 210.378 490.278 212.81 C 494.542 215.242 496.673 219.281 496.673 224.925 C 496.673 228.527 495.578 231.485 493.386 233.797 C 491.194 236.108 488.446 237.625 485.144 238.345 C 489.228 239.066 492.62 240.582 495.322 242.894 C 498.024 245.205 499.375 248.703 499.375 253.387 Z M 486.045 225.735 C 486.045 222.673 485.099 220.452 483.208 219.07 C 481.316 217.689 478.539 216.998 474.876 216.998 L 467.401 216.998 L 467.401 234.922 L 475.507 234.922 C 479.05 234.922 481.691 234.187 483.433 232.716 C 485.175 231.244 486.045 228.918 486.045 225.735 Z M 488.477 253.387 C 488.477 249.483 487.396 246.736 485.234 245.145 C 483.073 243.555 480.07 242.759 476.227 242.759 L 467.401 242.759 L 467.401 263.204 L 475.867 263.204 C 484.274 263.204 488.477 259.931 488.477 253.387 Z" style=""/>
  <path d="M 181.772 300.715 C 182.793 300.715 183.663 300.842 184.384 301.098 C 185.104 301.354 185.794 301.751 186.455 302.291 L 185.104 303.913 C 184.159 303.147 183.086 302.764 181.884 302.764 C 180.623 302.764 179.595 303.248 178.799 304.217 C 178.003 305.185 177.606 306.705 177.606 308.776 C 177.606 310.818 177.997 312.323 178.777 313.291 C 179.557 314.259 180.601 314.744 181.907 314.744 C 182.658 314.744 183.299 314.628 183.832 314.395 C 184.365 314.162 184.894 313.835 185.419 313.415 L 186.68 315.014 C 185.419 316.244 183.798 316.86 181.817 316.86 C 180.48 316.86 179.287 316.548 178.236 315.926 C 177.186 315.303 176.364 314.383 175.771 313.167 C 175.177 311.951 174.881 310.488 174.881 308.776 C 174.881 307.096 175.185 305.647 175.793 304.431 C 176.401 303.215 177.231 302.291 178.281 301.661 C 179.332 301.03 180.496 300.715 181.772 300.715 Z M 196.196 311.479 L 191.738 311.479 L 191.738 316.567 L 189.216 316.567 L 189.216 304.678 L 191.738 304.678 L 191.738 309.52 L 196.196 309.52 L 196.196 304.678 L 198.718 304.678 L 198.718 316.567 L 196.196 316.567 L 196.196 311.479 Z M 207.492 304.363 C 209.204 304.363 210.524 304.923 211.455 306.041 C 212.386 307.159 212.851 308.678 212.851 310.6 C 212.851 312.522 212.379 314.046 211.433 315.171 C 210.487 316.297 209.166 316.86 207.47 316.86 C 205.758 316.86 204.433 316.309 203.495 315.205 C 202.558 314.102 202.088 312.574 202.088 310.623 C 202.088 308.731 202.564 307.215 203.518 306.074 C 204.472 304.934 205.796 304.363 207.492 304.363 Z M 207.492 306.322 C 206.577 306.322 205.89 306.674 205.432 307.38 C 204.974 308.086 204.745 309.167 204.745 310.623 C 204.745 312.094 204.97 313.179 205.421 313.877 C 205.871 314.575 206.554 314.924 207.47 314.924 C 208.385 314.924 209.068 314.571 209.519 313.865 C 209.969 313.159 210.194 312.072 210.194 310.6 C 210.194 309.145 209.969 308.067 209.519 307.369 C 209.068 306.671 208.393 306.322 207.492 306.322 Z M 223.412 310.082 C 225.424 310.308 226.429 311.291 226.429 313.032 C 226.429 314.218 225.937 315.104 224.955 315.689 C 223.972 316.275 222.722 316.567 221.205 316.567 L 216.454 316.567 L 216.454 304.813 C 218.03 304.513 219.486 304.363 220.823 304.363 C 222.354 304.363 223.573 304.637 224.482 305.185 C 225.39 305.733 225.844 306.502 225.844 307.493 C 225.844 308.154 225.649 308.698 225.259 309.125 C 224.868 309.553 224.253 309.872 223.412 310.082 Z M 220.823 306.164 C 220.178 306.164 219.562 306.209 218.976 306.3 L 218.976 309.452 L 221.07 309.452 C 221.806 309.452 222.365 309.32 222.748 309.058 C 223.131 308.796 223.322 308.371 223.322 307.786 C 223.322 307.215 223.119 306.803 222.714 306.547 C 222.309 306.292 221.678 306.164 220.823 306.164 Z M 220.935 314.721 C 221.821 314.721 222.523 314.597 223.041 314.35 C 223.559 314.102 223.817 313.626 223.817 312.92 C 223.817 311.689 222.954 311.073 221.228 311.073 L 218.976 311.073 L 218.976 314.721 L 220.935 314.721 Z M 238.829 313.663 C 238.829 314.113 238.896 314.447 239.031 314.665 C 239.167 314.882 239.4 315.044 239.729 315.149 L 239.144 316.86 C 237.898 316.71 237.08 316.162 236.69 315.216 C 236.254 315.757 235.71 316.166 235.057 316.444 C 234.404 316.722 233.687 316.86 232.907 316.86 C 231.705 316.86 230.753 316.522 230.047 315.847 C 229.341 315.171 228.989 314.279 228.989 313.167 C 228.989 311.921 229.481 310.961 230.463 310.285 C 231.446 309.61 232.839 309.272 234.64 309.272 L 236.329 309.272 L 236.329 308.506 C 236.329 307.755 236.104 307.208 235.654 306.862 C 235.203 306.517 234.55 306.345 233.695 306.345 C 233.275 306.345 232.786 306.397 232.231 306.502 C 231.676 306.607 231.113 306.758 230.542 306.953 L 229.912 305.174 C 231.338 304.633 232.727 304.363 234.078 304.363 C 235.654 304.363 236.839 304.709 237.635 305.399 C 238.431 306.089 238.829 307.073 238.829 308.349 L 238.829 313.663 Z M 233.65 315.014 C 234.176 315.014 234.682 314.879 235.17 314.608 C 235.657 314.338 236.044 313.963 236.329 313.483 L 236.329 310.848 L 234.933 310.848 C 233.793 310.848 232.96 311.039 232.434 311.422 C 231.908 311.805 231.646 312.357 231.646 313.077 C 231.646 313.708 231.815 314.189 232.152 314.518 C 232.49 314.848 232.989 315.014 233.65 315.014 Z M 263.748 306.637 L 259.244 306.637 L 259.244 316.567 L 256.745 316.567 L 256.745 304.678 L 266.247 304.678 L 266.247 316.567 L 263.748 316.567 L 263.748 306.637 Z M 275.02 304.363 C 276.731 304.363 278.052 304.923 278.983 306.041 C 279.914 307.159 280.379 308.678 280.379 310.6 C 280.379 312.522 279.906 314.046 278.961 315.171 C 278.015 316.297 276.694 316.86 274.997 316.86 C 273.286 316.86 271.961 316.309 271.023 315.205 C 270.085 314.102 269.616 312.574 269.616 310.623 C 269.616 308.731 270.092 307.215 271.046 306.074 C 271.999 304.934 273.323 304.363 275.02 304.363 Z M 275.02 306.322 C 274.105 306.322 273.418 306.674 272.96 307.38 C 272.501 308.086 272.273 309.167 272.273 310.623 C 272.273 312.094 272.498 313.179 272.948 313.877 C 273.399 314.575 274.082 314.924 274.997 314.924 C 275.913 314.924 276.596 314.571 277.047 313.865 C 277.497 313.159 277.722 312.072 277.722 310.6 C 277.722 309.145 277.497 308.067 277.047 307.369 C 276.596 306.671 275.921 306.322 275.02 306.322 Z M 284.432 308.484 L 292.584 308.484 L 292.584 310.555 L 284.432 310.555 L 284.432 308.484 Z M 304.24 311.479 L 299.781 311.479 L 299.781 316.567 L 297.259 316.567 L 297.259 304.678 L 299.781 304.678 L 299.781 309.52 L 304.24 309.52 L 304.24 304.678 L 306.762 304.678 L 306.762 316.567 L 304.24 316.567 L 304.24 311.479 Z M 319.867 313.663 C 319.867 314.113 319.935 314.447 320.07 314.665 C 320.205 314.882 320.438 315.044 320.768 315.149 L 320.182 316.86 C 318.936 316.71 318.118 316.162 317.728 315.216 C 317.292 315.757 316.748 316.166 316.095 316.444 C 315.442 316.722 314.725 316.86 313.945 316.86 C 312.744 316.86 311.791 316.522 311.085 315.847 C 310.379 315.171 310.027 314.279 310.027 313.167 C 310.027 311.921 310.519 310.961 311.502 310.285 C 312.485 309.61 313.877 309.272 315.679 309.272 L 317.368 309.272 L 317.368 308.506 C 317.368 307.755 317.142 307.208 316.692 306.862 C 316.242 306.517 315.589 306.345 314.733 306.345 C 314.313 306.345 313.824 306.397 313.269 306.502 C 312.714 306.607 312.151 306.758 311.581 306.953 L 310.95 305.174 C 312.377 304.633 313.765 304.363 315.116 304.363 C 316.692 304.363 317.878 304.709 318.674 305.399 C 319.47 306.089 319.867 307.073 319.867 308.349 L 319.867 313.663 Z M 314.688 315.014 C 315.214 315.014 315.72 314.879 316.208 314.608 C 316.695 314.338 317.083 313.963 317.368 313.483 L 317.368 310.848 L 315.971 310.848 C 314.831 310.848 313.998 311.039 313.472 311.422 C 312.946 311.805 312.684 312.357 312.684 313.077 C 312.684 313.708 312.853 314.189 313.191 314.518 C 313.528 314.848 314.027 315.014 314.688 315.014 Z M 330.014 314.789 C 330.96 314.789 331.936 314.451 332.942 313.775 L 334.09 315.397 C 333.564 315.847 332.934 316.204 332.199 316.466 C 331.463 316.728 330.705 316.86 329.924 316.86 C 328.108 316.86 326.69 316.301 325.669 315.183 C 324.647 314.065 324.137 312.567 324.137 310.69 C 324.137 309.474 324.37 308.39 324.835 307.437 C 325.3 306.483 325.973 305.733 326.851 305.185 C 327.729 304.637 328.768 304.363 329.969 304.363 C 331.546 304.363 332.919 304.844 334.09 305.804 L 332.919 307.38 C 331.959 306.719 330.991 306.39 330.014 306.39 C 329.024 306.39 328.243 306.746 327.673 307.459 C 327.102 308.172 326.817 309.249 326.817 310.69 C 326.817 312.101 327.102 313.137 327.673 313.798 C 328.243 314.459 329.024 314.789 330.014 314.789 Z M 347.839 306.637 L 343.786 306.637 L 343.786 316.567 L 341.264 316.567 L 341.264 306.637 L 337.053 306.637 L 337.053 304.678 L 348.132 304.678 L 347.839 306.637 Z M 356.058 304.363 C 357.77 304.363 359.09 304.923 360.021 306.041 C 360.952 307.159 361.417 308.678 361.417 310.6 C 361.417 312.522 360.945 314.046 359.999 315.171 C 359.053 316.297 357.732 316.86 356.036 316.86 C 354.324 316.86 352.999 316.309 352.061 315.205 C 351.124 314.102 350.654 312.574 350.654 310.623 C 350.654 308.731 351.13 307.215 352.084 306.074 C 353.038 304.934 354.362 304.363 356.058 304.363 Z M 356.058 306.322 C 355.143 306.322 354.456 306.674 353.998 307.38 C 353.54 308.086 353.311 309.167 353.311 310.623 C 353.311 312.094 353.536 313.179 353.987 313.877 C 354.437 314.575 355.12 314.924 356.036 314.924 C 356.951 314.924 357.634 314.571 358.085 313.865 C 358.535 313.159 358.76 312.072 358.76 310.6 C 358.76 309.145 358.535 308.067 358.085 307.369 C 357.634 306.671 356.959 306.322 356.058 306.322 Z M 374.064 304.678 L 374.064 316.567 L 371.542 316.567 L 371.542 312.132 L 368.863 312.132 L 366.453 316.567 L 363.684 316.567 L 366.544 311.569 C 365.868 311.253 365.353 310.829 365.001 310.296 C 364.649 309.764 364.472 309.137 364.472 308.416 C 364.472 307.231 364.911 306.311 365.789 305.658 C 366.667 305.005 367.925 304.678 369.561 304.678 L 374.064 304.678 Z M 371.542 310.375 L 371.542 306.457 L 369.516 306.457 C 368.705 306.457 368.101 306.615 367.703 306.93 C 367.306 307.245 367.106 307.726 367.106 308.371 C 367.106 309.061 367.298 309.568 367.681 309.891 C 368.063 310.214 368.668 310.375 369.493 310.375 L 371.542 310.375 Z M 390.345 314.608 L 390.345 320.103 L 388.34 320.103 L 387.98 316.567 L 377.194 316.567 L 377.194 304.678 L 379.446 304.678 L 379.446 314.586 L 382.013 314.586 L 382.013 304.678 L 384.085 304.678 L 384.085 314.586 L 386.652 314.586 L 386.652 304.678 L 388.903 304.678 L 388.903 314.608 L 390.345 314.608 Z M 393.894 311.434 C 393.97 312.59 394.303 313.457 394.896 314.034 C 395.49 314.612 396.236 314.901 397.137 314.901 C 397.692 314.901 398.221 314.815 398.724 314.642 C 399.228 314.47 399.741 314.211 400.267 313.865 L 401.348 315.397 C 400.793 315.862 400.14 316.222 399.389 316.477 C 398.638 316.733 397.85 316.86 397.024 316.86 C 395.208 316.86 393.796 316.294 392.791 315.16 C 391.786 314.026 391.282 312.514 391.282 310.623 C 391.282 309.437 391.5 308.368 391.935 307.414 C 392.371 306.461 393.002 305.714 393.827 305.174 C 394.652 304.633 395.614 304.363 396.709 304.363 C 398.285 304.363 399.535 304.892 400.458 305.95 C 401.381 307.009 401.843 308.461 401.843 310.308 C 401.843 310.758 401.821 311.133 401.776 311.434 L 393.894 311.434 Z M 396.732 306.232 C 395.921 306.232 395.26 306.525 394.75 307.11 C 394.24 307.696 393.947 308.566 393.872 309.722 L 399.389 309.722 C 399.358 308.596 399.118 307.733 398.668 307.133 C 398.218 306.533 397.573 306.232 396.732 306.232 Z M 416.043 316.567 L 413.723 316.567 L 413.363 311.434 C 413.318 310.533 413.295 309.61 413.295 308.664 C 413.295 307.974 413.303 307.44 413.318 307.065 L 413.228 307.065 L 411.156 314.608 L 409.017 314.608 L 406.72 307.065 L 406.63 307.065 C 406.661 307.44 406.675 308.019 406.675 308.799 C 406.675 309.714 406.653 310.6 406.608 311.456 L 406.36 316.567 L 404.063 316.567 L 404.896 304.678 L 407.891 304.678 L 410.12 312.492 L 412.125 304.678 L 415.187 304.678 L 416.043 316.567 Z M 425.117 316.613 C 424.636 318.054 423.943 319.183 423.034 320.001 C 422.126 320.82 420.876 321.296 419.285 321.431 L 418.97 319.54 C 419.75 319.419 420.381 319.236 420.861 318.988 C 421.342 318.74 421.725 318.429 422.01 318.054 C 422.295 317.679 422.55 317.183 422.775 316.567 L 421.92 316.567 L 417.912 304.678 L 420.591 304.678 L 423.586 314.811 L 426.626 304.678 L 429.215 304.678 L 425.117 316.613 Z M 455.891 306.637 L 451.838 306.637 L 451.838 316.567 L 449.316 316.567 L 449.316 306.637 L 445.105 306.637 L 445.105 304.678 L 456.183 304.678 L 455.891 306.637 Z M 466.511 310.082 C 468.523 310.308 469.528 311.291 469.528 313.032 C 469.528 314.218 469.036 315.104 468.054 315.689 C 467.071 316.275 465.821 316.567 464.304 316.567 L 459.553 316.567 L 459.553 304.813 C 461.129 304.513 462.585 304.363 463.922 304.363 C 465.453 304.363 466.672 304.637 467.581 305.185 C 468.489 305.733 468.943 306.502 468.943 307.493 C 468.943 308.154 468.748 308.698 468.358 309.125 C 467.967 309.553 467.352 309.872 466.511 310.082 Z M 463.922 306.164 C 463.276 306.164 462.661 306.209 462.075 306.3 L 462.075 309.452 L 464.169 309.452 C 464.904 309.452 465.464 309.32 465.847 309.058 C 466.23 308.796 466.421 308.371 466.421 307.786 C 466.421 307.215 466.218 306.803 465.813 306.547 C 465.408 306.292 464.777 306.164 463.922 306.164 Z M 464.034 314.721 C 464.92 314.721 465.622 314.597 466.14 314.35 C 466.657 314.102 466.916 313.626 466.916 312.92 C 466.916 311.689 466.053 311.073 464.327 311.073 L 462.075 311.073 L 462.075 314.721 L 464.034 314.721 Z M 477.603 304.363 C 479.315 304.363 480.635 304.923 481.566 306.041 C 482.497 307.159 482.962 308.678 482.962 310.6 C 482.962 312.522 482.489 314.046 481.544 315.171 C 480.598 316.297 479.277 316.86 477.581 316.86 C 475.869 316.86 474.544 316.309 473.606 315.205 C 472.668 314.102 472.199 312.574 472.199 310.623 C 472.199 308.731 472.675 307.215 473.629 306.074 C 474.582 304.934 475.907 304.363 477.603 304.363 Z M 477.603 306.322 C 476.688 306.322 476.001 306.674 475.543 307.38 C 475.085 308.086 474.856 309.167 474.856 310.623 C 474.856 312.094 475.081 313.179 475.532 313.877 C 475.982 314.575 476.665 314.924 477.581 314.924 C 478.496 314.924 479.179 314.571 479.63 313.865 C 480.08 313.159 480.305 312.072 480.305 310.6 C 480.305 309.145 480.08 308.067 479.63 307.369 C 479.179 306.671 478.504 306.322 477.603 306.322 Z M 495.842 316.567 L 493.41 316.567 L 493.41 311.681 C 493.41 310.735 493.448 309.846 493.523 309.013 C 493.598 308.18 493.673 307.591 493.748 307.245 L 489.155 316.567 L 486.34 316.567 L 486.34 304.678 L 488.772 304.678 L 488.772 309.587 C 488.772 310.457 488.738 311.321 488.671 312.177 C 488.603 313.032 488.524 313.626 488.434 313.955 L 492.983 304.678 L 495.842 304.678 L 495.842 316.567 Z M 491.046 302.291 C 490.055 302.291 489.245 302.025 488.614 301.492 C 487.984 300.959 487.623 300.265 487.533 299.409 L 489.065 299.094 C 489.349 300.009 490.01 300.467 491.046 300.467 C 492.142 300.467 492.817 300.009 493.073 299.094 L 494.626 299.409 C 494.536 300.265 494.168 300.959 493.523 301.492 C 492.878 302.025 492.052 302.291 491.046 302.291 Z" style=""/>
  <g id="Logo" transform="matrix(0.219921, 0, 0, 0.238649, 277.514679, 234.863678)" style="">
    <linearGradient id="SVGID_SVGID_1__1" gradientUnits="userSpaceOnUse" gradientTransform="matrix(1 0 0 1 0 0)" x1="134.6856" y1="578.1185" x2="481.5801" y2="113.0678">
      <stop offset="0" style="stop-color:#11156D;stop-opacity: 1"/>
      <stop offset="1" style="stop-color:#48569E;stop-opacity: 1"/>
    </linearGradient>
    <path style="stroke: none; stroke-width: 1; stroke-dasharray: none; stroke-linecap: butt; stroke-dashoffset: 0; stroke-linejoin: miter; stroke-miterlimit: 4; fill: url('#SVGID_SVGID_1__1'); fill-rule: nonzero; opacity: 1; filter: url('#SVGID_437'); paint-order: fill;" transform=" translate(-256.03, -256.02)" d="M 486.2 405.6 L 298.8 81 c -19.9 -30.2 -43.9 -97.7 -78.7 -35.2 L 4.8 418.7 c -13.6 23.6 3.7 73.2 30.6 73.2 L 220 172 l 0 0 c 33.6 -62.5 58.1 1.4 78.8 35.4 l 127.8 221.4 h -25.5 c -25.5 0 -38.4 -6 -51.1 -18.8 l -60.2 -60.2 c -22.7 -22.7 -34.6 -25.8 -50.4 -25.8 h -20.2 c -31.1 0 -37.3 45.4 -56.1 63.1 h 43.7 c 28.7 0 38.2 7.2 56.8 25.8 l 58.7 58.7 c 17.2 17.2 33.7 20.3 63 20.3 H 512 C 512 466.2 512 448.5 486.2 405.6 z" stroke-linecap="round"/>
  </g>
</svg>