<?xml version="1.0" encoding="utf-8"?>
<svg viewBox="600 0 300 300" xmlns="http://www.w3.org/2000/svg">
  <path d="M 18.692 136.933 L 18.692 188.455 L 0 188.455 L 0 76.308 L 18.692 76.308 L 18.692 122.304 L 30.719 122.304 L 61.436 76.308 L 80.779 76.308 L 46.484 128.319 L 83.866 188.455 L 62.251 188.455 L 30.719 136.933 L 18.692 136.933 Z M 176.008 132.383 C 176.008 150.153 172.351 164.293 165.036 174.803 C 157.723 185.313 147.185 190.568 133.426 190.568 C 119.664 190.568 109.126 185.394 101.813 175.046 C 94.498 164.7 90.841 150.53 90.841 132.545 C 90.841 114.775 94.498 100.579 101.813 89.96 C 109.126 79.341 119.664 74.031 133.426 74.031 C 147.185 74.031 157.723 79.26 165.036 89.717 C 172.351 100.174 176.008 114.395 176.008 132.383 Z M 156.668 132.383 C 156.668 117.647 154.824 106.701 151.141 99.55 C 147.458 92.399 141.551 88.824 133.426 88.824 C 125.298 88.824 119.391 92.399 115.708 99.55 C 112.025 106.701 110.184 117.7 110.184 132.545 C 110.184 147.173 112.051 158.062 115.789 165.213 C 119.529 172.366 125.406 175.939 133.426 175.939 C 141.551 175.939 147.458 172.366 151.141 165.213 C 154.824 158.062 156.668 147.119 156.668 132.383 Z M 273.839 111.578 C 273.839 124.147 269.94 133.438 262.138 139.453 C 254.337 145.465 243.665 148.471 230.118 148.471 L 216.467 148.471 L 216.467 188.455 L 197.776 188.455 L 197.776 76.308 L 228.819 76.308 C 243.23 76.308 254.337 79.26 262.138 85.165 C 269.94 91.072 273.839 99.877 273.839 111.578 Z M 254.174 111.578 C 254.174 97.492 246.155 90.448 230.118 90.448 L 216.467 90.448 L 216.467 134.169 L 230.283 134.169 C 237.865 134.169 243.746 132.437 247.916 128.969 C 252.088 125.501 254.174 119.705 254.174 111.578 Z M 337.88 74.031 C 345.25 74.031 351.532 74.953 356.733 76.797 C 361.934 78.638 366.918 81.509 371.687 85.41 L 361.934 97.111 C 355.107 91.587 347.36 88.824 338.692 88.824 C 329.59 88.824 322.17 92.318 316.426 99.305 C 310.682 106.294 307.811 117.266 307.811 132.218 C 307.811 146.954 310.63 157.819 316.263 164.808 C 321.897 171.797 329.428 175.291 338.854 175.291 C 344.273 175.291 348.905 174.452 352.751 172.771 C 356.598 171.092 360.416 168.734 364.209 165.701 L 373.311 177.24 C 364.209 186.125 352.507 190.568 338.204 190.568 C 328.561 190.568 319.946 188.319 312.362 183.824 C 304.778 179.326 298.847 172.69 294.564 163.912 C 290.284 155.136 288.145 144.572 288.145 132.218 C 288.145 120.084 290.34 109.627 294.726 100.851 C 299.116 92.073 305.102 85.41 312.687 80.858 C 320.272 76.308 328.67 74.031 337.88 74.031 Z M 646.804 136.933 L 646.804 188.455 L 628.113 188.455 L 628.113 76.308 L 646.804 76.308 L 646.804 122.304 L 658.831 122.304 L 689.549 76.308 L 708.892 76.308 L 674.597 128.319 L 711.979 188.455 L 690.363 188.455 L 658.831 136.933 L 646.804 136.933 Z M 804.121 132.383 C 804.121 150.153 800.464 164.293 793.149 174.803 C 785.836 185.313 775.298 190.568 761.539 190.568 C 747.777 190.568 737.239 185.394 729.925 175.046 C 722.611 164.7 718.954 150.53 718.954 132.545 C 718.954 114.775 722.611 100.579 729.925 89.96 C 737.239 79.341 747.777 74.031 761.539 74.031 C 775.298 74.031 785.836 79.26 793.149 89.717 C 800.464 100.174 804.121 114.395 804.121 132.383 Z M 784.781 132.383 C 784.781 117.647 782.937 106.701 779.254 99.55 C 775.571 92.399 769.664 88.824 761.539 88.824 C 753.411 88.824 747.504 92.399 743.821 99.55 C 740.138 106.701 738.297 117.7 738.297 132.545 C 738.297 147.173 740.164 158.062 743.902 165.213 C 747.642 172.366 753.519 175.939 761.539 175.939 C 769.664 175.939 775.571 172.366 779.254 165.213 C 782.937 158.062 784.781 147.119 784.781 132.383 Z M 900 156.111 C 900 167.706 895.882 175.996 887.649 180.979 C 879.414 185.963 868.957 188.455 856.28 188.455 L 823.447 188.455 L 823.447 76.308 L 854.167 76.308 C 866.086 76.308 875.892 78.502 883.585 82.89 C 891.279 87.278 895.124 94.567 895.124 104.751 C 895.124 111.251 893.149 116.589 889.193 120.761 C 885.237 124.932 880.279 127.669 874.321 128.969 C 881.689 130.27 887.811 133.006 892.687 137.178 C 897.563 141.347 900 147.659 900 156.111 Z M 875.946 106.213 C 875.946 100.689 874.238 96.68 870.827 94.186 C 867.413 91.695 862.402 90.448 855.791 90.448 L 842.302 90.448 L 842.302 122.792 L 856.93 122.792 C 863.323 122.792 868.09 121.465 871.232 118.81 C 874.376 116.154 875.946 111.958 875.946 106.213 Z M 880.334 156.111 C 880.334 149.067 878.383 144.11 874.483 141.239 C 870.582 138.369 865.163 136.933 858.23 136.933 L 842.302 136.933 L 842.302 173.826 L 857.58 173.826 C 872.751 173.826 880.334 167.921 880.334 156.111 Z" style="stroke: rgb(255, 255, 255); stroke-width: 0px;"/>
  <path d="M 326.883 241.515 C 328.725 241.515 330.295 241.744 331.596 242.206 C 332.896 242.668 334.141 243.385 335.333 244.359 L 332.896 247.287 C 331.191 245.905 329.254 245.214 327.085 245.214 C 324.809 245.214 322.955 246.086 321.518 247.835 C 320.082 249.581 319.366 252.325 319.366 256.062 C 319.366 259.746 320.071 262.463 321.479 264.209 C 322.886 265.955 324.77 266.832 327.127 266.832 C 328.482 266.832 329.639 266.622 330.6 266.201 C 331.562 265.78 332.516 265.191 333.464 264.433 L 335.74 267.318 C 333.464 269.538 330.539 270.65 326.964 270.65 C 324.552 270.65 322.399 270.086 320.502 268.964 C 318.608 267.839 317.124 266.179 316.054 263.985 C 314.983 261.791 314.448 259.152 314.448 256.062 C 314.448 253.03 314.997 250.415 316.094 248.221 C 317.191 246.027 318.689 244.359 320.583 243.223 C 322.48 242.084 324.58 241.515 326.883 241.515 Z M 352.911 260.939 L 344.867 260.939 L 344.867 270.121 L 340.316 270.121 L 340.316 248.666 L 344.867 248.666 L 344.867 257.404 L 352.911 257.404 L 352.911 248.666 L 357.462 248.666 L 357.462 270.121 L 352.911 270.121 L 352.911 260.939 Z M 373.295 248.099 C 376.384 248.099 378.766 249.109 380.446 251.127 C 382.126 253.143 382.965 255.886 382.965 259.354 C 382.965 262.822 382.113 265.572 380.407 267.601 C 378.699 269.633 376.316 270.65 373.255 270.65 C 370.166 270.65 367.775 269.655 366.083 267.663 C 364.392 265.672 363.544 262.916 363.544 259.395 C 363.544 255.981 364.402 253.245 366.124 251.186 C 367.846 249.128 370.234 248.099 373.295 248.099 Z M 373.295 251.634 C 371.644 251.634 370.404 252.268 369.578 253.542 C 368.751 254.816 368.338 256.767 368.338 259.395 C 368.338 262.05 368.744 264.007 369.558 265.267 C 370.37 266.527 371.602 267.156 373.255 267.156 C 374.907 267.156 376.139 266.519 376.953 265.245 C 377.765 263.971 378.171 262.01 378.171 259.354 C 378.171 256.727 377.765 254.783 376.953 253.523 C 376.139 252.263 374.921 251.634 373.295 251.634 Z M 402.023 258.418 C 405.653 258.826 407.467 260.601 407.467 263.742 C 407.467 265.882 406.579 267.48 404.807 268.537 C 403.033 269.593 400.778 270.121 398.04 270.121 L 389.467 270.121 L 389.467 248.911 C 392.311 248.369 394.938 248.099 397.351 248.099 C 400.114 248.099 402.313 248.593 403.954 249.581 C 405.592 250.571 406.411 251.958 406.411 253.747 C 406.411 254.94 406.059 255.922 405.356 256.691 C 404.65 257.463 403.54 258.04 402.023 258.418 Z M 397.351 251.348 C 396.187 251.348 395.075 251.429 394.018 251.594 L 394.018 257.282 L 397.796 257.282 C 399.125 257.282 400.133 257.044 400.824 256.57 C 401.516 256.098 401.86 255.331 401.86 254.276 C 401.86 253.245 401.494 252.501 400.763 252.039 C 400.032 251.58 398.894 251.348 397.351 251.348 Z M 397.553 266.789 C 399.152 266.789 400.419 266.565 401.353 266.12 C 402.288 265.672 402.753 264.814 402.753 263.54 C 402.753 261.319 401.196 260.207 398.082 260.207 L 394.018 260.207 L 394.018 266.789 L 397.553 266.789 Z M 429.843 264.881 C 429.843 265.693 429.964 266.295 430.207 266.689 C 430.453 267.08 430.873 267.372 431.467 267.561 L 430.411 270.65 C 428.163 270.378 426.687 269.39 425.983 267.682 C 425.196 268.659 424.214 269.398 423.036 269.898 C 421.858 270.4 420.564 270.65 419.157 270.65 C 416.987 270.65 415.269 270.04 413.996 268.821 C 412.722 267.601 412.087 265.993 412.087 263.985 C 412.087 261.737 412.974 260.005 414.746 258.785 C 416.52 257.566 419.034 256.956 422.284 256.956 L 425.331 256.956 L 425.331 255.574 C 425.331 254.219 424.926 253.232 424.114 252.608 C 423.3 251.985 422.121 251.675 420.579 251.675 C 419.821 251.675 418.938 251.769 417.937 251.958 C 416.935 252.147 415.919 252.42 414.889 252.773 L 413.752 249.562 C 416.325 248.585 418.832 248.099 421.27 248.099 C 424.114 248.099 426.252 248.723 427.688 249.969 C 429.125 251.213 429.843 252.989 429.843 255.291 L 429.843 264.881 Z M 420.497 267.318 C 421.446 267.318 422.36 267.075 423.24 266.586 C 424.119 266.098 424.817 265.421 425.331 264.555 L 425.331 259.8 L 422.813 259.8 C 420.755 259.8 419.252 260.145 418.303 260.836 C 417.354 261.527 416.881 262.523 416.881 263.823 C 416.881 264.962 417.186 265.829 417.794 266.424 C 418.404 267.018 419.305 267.318 420.497 267.318 Z M 474.809 252.203 L 466.682 252.203 L 466.682 270.121 L 462.172 270.121 L 462.172 248.666 L 479.319 248.666 L 479.319 270.121 L 474.809 270.121 L 474.809 252.203 Z M 495.15 248.099 C 498.237 248.099 500.621 249.109 502.301 251.127 C 503.981 253.143 504.82 255.886 504.82 259.354 C 504.82 262.822 503.967 265.572 502.261 267.601 C 500.554 269.633 498.17 270.65 495.108 270.65 C 492.021 270.65 489.63 269.655 487.937 267.663 C 486.244 265.672 485.398 262.916 485.398 259.395 C 485.398 255.981 486.257 253.245 487.979 251.186 C 489.698 249.128 492.087 248.099 495.15 248.099 Z M 495.15 251.634 C 493.499 251.634 492.259 252.268 491.432 253.542 C 490.604 254.816 490.193 256.767 490.193 259.395 C 490.193 262.05 490.599 264.007 491.411 265.267 C 492.225 266.527 493.457 267.156 495.108 267.156 C 496.761 267.156 497.994 266.519 498.807 265.245 C 499.619 263.971 500.025 262.01 500.025 259.354 C 500.025 256.727 499.619 254.783 498.807 253.523 C 497.994 252.263 496.776 251.634 495.15 251.634 Z M 512.134 255.534 L 526.844 255.534 L 526.844 259.273 L 512.134 259.273 L 512.134 255.534 Z M 547.877 260.939 L 539.831 260.939 L 539.831 270.121 L 535.28 270.121 L 535.28 248.666 L 539.831 248.666 L 539.831 257.404 L 547.877 257.404 L 547.877 248.666 L 552.428 248.666 L 552.428 270.121 L 547.877 270.121 L 547.877 260.939 Z M 576.076 264.881 C 576.076 265.693 576.199 266.295 576.443 266.689 C 576.686 267.08 577.107 267.372 577.702 267.561 L 576.645 270.65 C 574.397 270.378 572.92 269.39 572.217 267.682 C 571.43 268.659 570.448 269.398 569.27 269.898 C 568.091 270.4 566.798 270.65 565.39 270.65 C 563.223 270.65 561.503 270.04 560.229 268.821 C 558.955 267.601 558.32 265.993 558.32 263.985 C 558.32 261.737 559.208 260.005 560.982 258.785 C 562.756 257.566 565.268 256.956 568.519 256.956 L 571.567 256.956 L 571.567 255.574 C 571.567 254.219 571.159 253.232 570.347 252.608 C 569.535 251.985 568.357 251.675 566.812 251.675 C 566.054 251.675 565.172 251.769 564.17 251.958 C 563.169 252.147 562.153 252.42 561.124 252.773 L 559.985 249.562 C 562.561 248.585 565.065 248.099 567.503 248.099 C 570.347 248.099 572.487 248.723 573.923 249.969 C 575.36 251.213 576.076 252.989 576.076 255.291 L 576.076 264.881 Z M 566.731 267.318 C 567.68 267.318 568.593 267.075 569.474 266.586 C 570.352 266.098 571.053 265.421 571.567 264.555 L 571.567 259.8 L 569.046 259.8 C 566.989 259.8 565.486 260.145 564.537 260.836 C 563.587 261.527 563.115 262.523 563.115 263.823 C 563.115 264.962 563.42 265.829 564.03 266.424 C 564.637 267.018 565.538 267.318 566.731 267.318 Z M 594.387 266.913 C 596.094 266.913 597.855 266.303 599.671 265.083 L 601.742 268.009 C 600.793 268.821 599.656 269.466 598.33 269.938 C 597.002 270.412 595.634 270.65 594.225 270.65 C 590.947 270.65 588.389 269.641 586.546 267.623 C 584.702 265.605 583.782 262.903 583.782 259.516 C 583.782 257.322 584.202 255.366 585.041 253.645 C 585.88 251.925 587.095 250.571 588.679 249.581 C 590.264 248.593 592.139 248.099 594.306 248.099 C 597.151 248.099 599.629 248.966 601.742 250.698 L 599.629 253.542 C 597.896 252.349 596.15 251.756 594.387 251.756 C 592.6 251.756 591.191 252.398 590.162 253.685 C 589.132 254.972 588.618 256.915 588.618 259.516 C 588.618 262.061 589.132 263.931 590.162 265.124 C 591.191 266.317 592.6 266.913 594.387 266.913 Z M 626.552 252.203 L 619.239 252.203 L 619.239 270.121 L 614.687 270.121 L 614.687 252.203 L 607.088 252.203 L 607.088 248.666 L 627.081 248.666 L 626.552 252.203 Z M 641.383 248.099 C 644.473 248.099 646.855 249.109 648.534 251.127 C 650.215 253.143 651.054 255.886 651.054 259.354 C 651.054 262.822 650.202 265.572 648.495 267.601 C 646.788 269.633 644.404 270.65 641.343 270.65 C 638.255 270.65 635.864 269.655 634.17 267.663 C 632.48 265.672 631.632 262.916 631.632 259.395 C 631.632 255.981 632.491 253.245 634.212 251.186 C 635.933 249.128 638.323 248.099 641.383 248.099 Z M 641.383 251.634 C 639.732 251.634 638.493 252.268 637.666 253.542 C 636.839 254.816 636.426 256.767 636.426 259.395 C 636.426 262.05 636.833 264.007 637.646 265.267 C 638.458 266.527 639.691 267.156 641.343 267.156 C 642.994 267.156 644.227 266.519 645.041 265.245 C 645.853 263.971 646.259 262.01 646.259 259.354 C 646.259 256.727 645.853 254.783 645.041 253.523 C 644.227 252.263 643.009 251.634 641.383 251.634 Z M 673.875 248.666 L 673.875 270.121 L 669.325 270.121 L 669.325 262.118 L 664.49 262.118 L 660.141 270.121 L 655.145 270.121 L 660.305 261.101 C 659.085 260.531 658.156 259.767 657.521 258.804 C 656.886 257.844 656.567 256.713 656.567 255.412 C 656.567 253.273 657.358 251.613 658.943 250.436 C 660.528 249.257 662.798 248.666 665.75 248.666 L 673.875 248.666 Z M 669.325 258.947 L 669.325 251.877 L 665.669 251.877 C 664.205 251.877 663.115 252.163 662.397 252.73 C 661.681 253.299 661.319 254.168 661.319 255.331 C 661.319 256.577 661.666 257.492 662.357 258.073 C 663.046 258.656 664.138 258.947 665.627 258.947 L 669.325 258.947 Z M 703.254 266.586 L 703.254 276.501 L 699.637 276.501 L 698.987 270.121 L 679.523 270.121 L 679.523 248.666 L 683.587 248.666 L 683.587 266.546 L 688.22 266.546 L 688.22 248.666 L 691.958 248.666 L 691.958 266.546 L 696.591 266.546 L 696.591 248.666 L 700.652 248.666 L 700.652 266.586 L 703.254 266.586 Z M 709.659 260.858 C 709.795 262.944 710.396 264.509 711.467 265.55 C 712.539 266.592 713.885 267.115 715.51 267.115 C 716.513 267.115 717.466 266.959 718.375 266.648 C 719.283 266.336 720.21 265.869 721.158 265.245 L 723.109 268.009 C 722.108 268.848 720.929 269.498 719.574 269.959 C 718.219 270.421 716.797 270.65 715.307 270.65 C 712.029 270.65 709.481 269.628 707.668 267.582 C 705.855 265.536 704.945 262.808 704.945 259.395 C 704.945 257.255 705.339 255.326 706.124 253.604 C 706.91 251.885 708.049 250.536 709.538 249.562 C 711.027 248.585 712.763 248.099 714.738 248.099 C 717.582 248.099 719.838 249.054 721.503 250.962 C 723.169 252.873 724.002 255.493 724.002 258.826 C 724.002 259.638 723.963 260.315 723.881 260.858 L 709.659 260.858 Z M 714.779 251.472 C 713.316 251.472 712.123 251.999 711.203 253.056 C 710.283 254.112 709.754 255.682 709.619 257.768 L 719.574 257.768 C 719.519 255.738 719.085 254.179 718.273 253.097 C 717.461 252.015 716.298 251.472 714.779 251.472 Z M 749.626 270.121 L 745.44 270.121 L 744.79 260.858 C 744.709 259.233 744.668 257.566 744.668 255.86 C 744.668 254.614 744.682 253.652 744.709 252.975 L 744.547 252.975 L 740.808 266.586 L 736.948 266.586 L 732.803 252.975 L 732.641 252.975 C 732.696 253.652 732.722 254.695 732.722 256.103 C 732.722 257.754 732.682 259.354 732.601 260.898 L 732.153 270.121 L 728.008 270.121 L 729.511 248.666 L 734.916 248.666 L 738.939 262.768 L 742.556 248.666 L 748.082 248.666 L 749.626 270.121 Z M 766 270.203 C 765.133 272.804 763.882 274.841 762.242 276.317 C 760.603 277.796 758.347 278.654 755.476 278.897 L 754.909 275.486 C 756.316 275.267 757.454 274.938 758.32 274.49 C 759.189 274.042 759.88 273.481 760.395 272.804 C 760.908 272.127 761.369 271.233 761.774 270.121 L 760.231 270.121 L 752.999 248.666 L 757.834 248.666 L 763.239 266.953 L 768.723 248.666 L 773.396 248.666 L 766 270.203 Z M 821.532 252.203 L 814.219 252.203 L 814.219 270.121 L 809.669 270.121 L 809.669 252.203 L 802.07 252.203 L 802.07 248.666 L 822.06 248.666 L 821.532 252.203 Z M 840.696 258.418 C 844.328 258.826 846.141 260.601 846.141 263.742 C 846.141 265.882 845.253 267.48 843.481 268.537 C 841.708 269.593 839.452 270.121 836.715 270.121 L 828.14 270.121 L 828.14 248.911 C 830.984 248.369 833.612 248.099 836.025 248.099 C 838.788 248.099 840.987 248.593 842.628 249.581 C 844.266 250.571 845.086 251.958 845.086 253.747 C 845.086 254.94 844.733 255.922 844.029 256.691 C 843.324 257.463 842.215 258.04 840.696 258.418 Z M 836.025 251.348 C 834.859 251.348 833.75 251.429 832.692 251.594 L 832.692 257.282 L 836.47 257.282 C 837.797 257.282 838.807 257.044 839.498 256.57 C 840.189 256.098 840.534 255.331 840.534 254.276 C 840.534 253.245 840.167 252.501 839.438 252.039 C 838.707 251.58 837.568 251.348 836.025 251.348 Z M 836.227 266.789 C 837.825 266.789 839.093 266.565 840.027 266.12 C 840.96 265.672 841.427 264.814 841.427 263.54 C 841.427 261.319 839.87 260.207 836.756 260.207 L 832.692 260.207 L 832.692 266.789 L 836.227 266.789 Z M 860.712 248.099 C 863.802 248.099 866.184 249.109 867.863 251.127 C 869.544 253.143 870.383 255.886 870.383 259.354 C 870.383 262.822 869.53 265.572 867.823 267.601 C 866.117 269.633 863.732 270.65 860.672 270.65 C 857.584 270.65 855.193 269.655 853.499 267.663 C 851.807 265.672 850.96 262.916 850.96 259.395 C 850.96 255.981 851.82 253.245 853.542 251.186 C 855.261 249.128 857.652 248.099 860.712 248.099 Z M 860.712 251.634 C 859.061 251.634 857.822 252.268 856.994 253.542 C 856.168 254.816 855.755 256.767 855.755 259.395 C 855.755 262.05 856.162 264.007 856.975 265.267 C 857.787 266.527 859.02 267.156 860.672 267.156 C 862.323 267.156 863.556 266.519 864.369 265.245 C 865.181 263.971 865.588 262.01 865.588 259.354 C 865.588 256.727 865.181 254.783 864.369 253.523 C 863.556 252.263 862.339 251.634 860.712 251.634 Z M 893.625 270.121 L 889.237 270.121 L 889.237 261.303 C 889.237 259.597 889.305 257.992 889.44 256.489 C 889.575 254.986 889.71 253.923 889.847 253.299 L 881.558 270.121 L 876.479 270.121 L 876.479 248.666 L 880.867 248.666 L 880.867 257.525 C 880.867 259.095 880.805 260.655 880.684 262.199 C 880.562 263.742 880.419 264.814 880.257 265.407 L 888.466 248.666 L 893.625 248.666 L 893.625 270.121 Z M 884.971 244.359 C 883.182 244.359 881.72 243.879 880.581 242.918 C 879.445 241.955 878.794 240.703 878.63 239.159 L 881.396 238.59 C 881.908 240.241 883.101 241.069 884.971 241.069 C 886.947 241.069 888.166 240.241 888.628 238.59 L 891.431 239.159 C 891.267 240.703 890.603 241.955 889.44 242.918 C 888.277 243.879 886.785 244.359 884.971 244.359 Z" style="stroke: rgb(255, 255, 255); vector-effect: non-scaling-stroke; stroke-width: 0px;"/>
  <g id="Logo" transform="matrix(0.396849, 0, 0, 0.430644, 499.651855, 122.687012)" style="">
    <linearGradient id="SVGID_SVGID_1__1" gradientUnits="userSpaceOnUse" gradientTransform="matrix(1 0 0 1 0 0)" x1="134.6856" y1="578.1185" x2="481.5801" y2="113.0678">
      <stop offset="0" style="stop-color:#11156D;stop-opacity: 1"/>
      <stop offset="1" style="stop-color:#48569E;stop-opacity: 1"/>
    </linearGradient>
    <path style="stroke-dasharray: none; stroke-linecap: butt; stroke-dashoffset: 0; stroke-linejoin: miter; stroke-miterlimit: 4; fill: url('#SVGID_SVGID_1__1'); fill-rule: nonzero; opacity: 1; filter: url('#SVGID_437'); paint-order: fill; stroke: rgb(255, 255, 255); stroke-width: 0px;" transform=" translate(-256.03, -256.02)" d="M 486.2 405.6 L 298.8 81 c -19.9 -30.2 -43.9 -97.7 -78.7 -35.2 L 4.8 418.7 c -13.6 23.6 3.7 73.2 30.6 73.2 L 220 172 l 0 0 c 33.6 -62.5 58.1 1.4 78.8 35.4 l 127.8 221.4 h -25.5 c -25.5 0 -38.4 -6 -51.1 -18.8 l -60.2 -60.2 c -22.7 -22.7 -34.6 -25.8 -50.4 -25.8 h -20.2 c -31.1 0 -37.3 45.4 -56.1 63.1 h 43.7 c 28.7 0 38.2 7.2 56.8 25.8 l 58.7 58.7 c 17.2 17.2 33.7 20.3 63 20.3 H 512 C 512 466.2 512 448.5 486.2 405.6 z" stroke-linecap="round"/>
  </g>
</svg>