<?xml version="1.0" encoding="utf-8"?>
<svg viewBox="0 0 500 500" xmlns="http://www.w3.org/2000/svg" xmlns:bx="https://boxy-svg.com">
  <defs>
    <bx:grid x="-0.191" y="0.191" width="100" height="100"/>
  </defs>
  <rect style="stroke-width: 0px; fill: rgb(255, 255, 255);" y="150" width="500" height="200" rx="10" ry="10"/>
  <path d="M 18.789 242.799 L 18.789 270.441 L 8.761 270.441 L 8.761 210.272 L 18.789 210.272 L 18.789 234.95 L 25.242 234.95 L 41.722 210.272 L 52.1 210.272 L 33.701 238.176 L 53.757 270.441 L 42.159 270.441 L 25.242 242.799 L 18.789 242.799 Z M 103.191 240.357 C 103.191 249.891 101.229 257.477 97.305 263.116 C 93.381 268.755 87.727 271.574 80.346 271.574 C 72.962 271.574 67.308 268.798 63.384 263.246 C 59.461 257.696 57.499 250.094 57.499 240.444 C 57.499 230.91 59.461 223.295 63.384 217.597 C 67.308 211.899 72.962 209.051 80.346 209.051 C 87.727 209.051 93.381 211.856 97.305 217.466 C 101.229 223.076 103.191 230.707 103.191 240.357 Z M 92.814 240.357 C 92.814 232.452 91.825 226.579 89.849 222.742 C 87.874 218.905 84.705 216.987 80.346 216.987 C 75.984 216.987 72.816 218.905 70.84 222.742 C 68.864 226.579 67.876 232.48 67.876 240.444 C 67.876 248.291 68.878 254.134 70.883 257.971 C 72.89 261.808 76.043 263.726 80.346 263.726 C 84.705 263.726 87.874 261.808 89.849 257.971 C 91.825 254.134 92.814 248.262 92.814 240.357 Z M 155.679 229.196 C 155.679 235.939 153.587 240.924 149.4 244.151 C 145.215 247.376 139.489 248.989 132.222 248.989 L 124.898 248.989 L 124.898 270.441 L 114.87 270.441 L 114.87 210.272 L 131.525 210.272 C 139.256 210.272 145.215 211.856 149.4 215.025 C 153.587 218.194 155.679 222.917 155.679 229.196 Z M 145.128 229.196 C 145.128 221.638 140.826 217.858 132.222 217.858 L 124.898 217.858 L 124.898 241.315 L 132.31 241.315 C 136.378 241.315 139.533 240.386 141.77 238.525 C 144.009 236.665 145.128 233.555 145.128 229.196 Z M 190.038 209.051 C 193.991 209.051 197.362 209.545 200.153 210.535 C 202.943 211.523 205.616 213.064 208.175 215.155 L 202.943 221.434 C 199.281 218.469 195.124 216.987 190.473 216.987 C 185.589 216.987 181.608 218.861 178.527 222.611 C 175.445 226.36 173.905 232.246 173.905 240.269 C 173.905 248.174 175.417 254.004 178.44 257.754 C 181.462 261.503 185.502 263.377 190.56 263.377 C 193.468 263.377 195.953 262.927 198.016 262.026 C 200.079 261.125 202.128 259.86 204.163 258.232 L 209.046 264.424 C 204.163 269.19 197.885 271.574 190.212 271.574 C 185.038 271.574 180.416 270.368 176.347 267.956 C 172.277 265.543 169.096 261.983 166.798 257.273 C 164.501 252.565 163.355 246.897 163.355 240.269 C 163.355 233.759 164.531 228.149 166.885 223.44 C 169.24 218.73 172.452 215.155 176.521 212.713 C 180.59 210.272 185.096 209.051 190.038 209.051 Z M 355.778 242.799 L 355.778 270.441 L 345.751 270.441 L 345.751 210.272 L 355.778 210.272 L 355.778 234.95 L 362.231 234.95 L 378.712 210.272 L 389.089 210.272 L 370.69 238.176 L 390.746 270.441 L 379.148 270.441 L 362.231 242.799 L 355.778 242.799 Z M 440.181 240.357 C 440.181 249.891 438.219 257.477 434.294 263.116 C 430.371 268.755 424.717 271.574 417.335 271.574 C 409.951 271.574 404.298 268.798 400.374 263.246 C 396.45 257.696 394.488 250.094 394.488 240.444 C 394.488 230.91 396.45 223.295 400.374 217.597 C 404.298 211.899 409.951 209.051 417.335 209.051 C 424.717 209.051 430.371 211.856 434.294 217.466 C 438.219 223.076 440.181 230.707 440.181 240.357 Z M 429.805 240.357 C 429.805 232.452 428.815 226.579 426.84 222.742 C 424.863 218.905 421.694 216.987 417.335 216.987 C 412.974 216.987 409.805 218.905 407.83 222.742 C 405.854 226.579 404.865 232.48 404.865 240.444 C 404.865 248.291 405.868 254.134 407.873 257.971 C 409.879 261.808 413.032 263.726 417.335 263.726 C 421.694 263.726 424.863 261.808 426.84 257.971 C 428.815 254.134 429.805 248.262 429.805 240.357 Z M 491.621 253.088 C 491.621 259.309 489.412 263.756 484.994 266.429 C 480.577 269.103 474.966 270.441 468.165 270.441 L 450.55 270.441 L 450.55 210.272 L 467.032 210.272 C 473.426 210.272 478.687 211.45 482.814 213.803 C 486.943 216.158 489.005 220.069 489.005 225.532 C 489.005 229.02 487.945 231.884 485.823 234.123 C 483.701 236.359 481.041 237.828 477.844 238.525 C 481.797 239.224 485.081 240.691 487.697 242.929 C 490.314 245.167 491.621 248.553 491.621 253.088 Z M 478.716 226.317 C 478.716 223.353 477.8 221.202 475.969 219.865 C 474.137 218.527 471.449 217.858 467.903 217.858 L 460.666 217.858 L 460.666 235.211 L 468.514 235.211 C 471.944 235.211 474.501 234.5 476.187 233.075 C 477.874 231.651 478.716 229.399 478.716 226.317 Z M 481.071 253.088 C 481.071 249.309 480.024 246.649 477.931 245.109 C 475.838 243.569 472.931 242.799 469.21 242.799 L 460.666 242.799 L 460.666 262.593 L 468.862 262.593 C 477.002 262.593 481.071 259.424 481.071 253.088 Z" style="stroke: rgb(255, 255, 255); stroke-width: 0px;"/>
  <path d="M 184.137 298.908 C 185.126 298.908 185.968 299.031 186.666 299.279 C 187.363 299.527 188.031 299.911 188.671 300.434 L 187.363 302.005 C 186.448 301.263 185.409 300.892 184.246 300.892 C 183.025 300.892 182.03 301.36 181.259 302.299 C 180.488 303.235 180.104 304.707 180.104 306.712 C 180.104 308.69 180.483 310.146 181.238 311.084 C 181.992 312.02 183.004 312.491 184.268 312.491 C 184.995 312.491 185.616 312.378 186.132 312.152 C 186.648 311.927 187.16 311.61 187.668 311.204 L 188.889 312.752 C 187.668 313.942 186.099 314.539 184.181 314.539 C 182.887 314.539 181.731 314.236 180.714 313.634 C 179.698 313.031 178.901 312.14 178.327 310.964 C 177.752 309.786 177.466 308.37 177.466 306.712 C 177.466 305.086 177.761 303.683 178.349 302.506 C 178.937 301.328 179.741 300.434 180.758 299.824 C 181.775 299.213 182.902 298.908 184.137 298.908 Z M 198.102 309.329 L 193.786 309.329 L 193.786 314.255 L 191.344 314.255 L 191.344 302.745 L 193.786 302.745 L 193.786 307.433 L 198.102 307.433 L 198.102 302.745 L 200.543 302.745 L 200.543 314.255 L 198.102 314.255 L 198.102 309.329 Z M 209.038 302.44 C 210.696 302.44 211.973 302.982 212.874 304.064 C 213.776 305.147 214.226 306.618 214.226 308.478 C 214.226 310.339 213.769 311.814 212.854 312.904 C 211.938 313.994 210.658 314.539 209.016 314.539 C 207.359 314.539 206.076 314.005 205.168 312.936 C 204.261 311.869 203.807 310.39 203.807 308.5 C 203.807 306.668 204.267 305.201 205.191 304.096 C 206.114 302.993 207.396 302.44 209.038 302.44 Z M 209.038 304.337 C 208.152 304.337 207.487 304.677 207.044 305.361 C 206.601 306.044 206.379 307.091 206.379 308.5 C 206.379 309.924 206.596 310.975 207.033 311.65 C 207.469 312.327 208.13 312.665 209.016 312.665 C 209.902 312.665 210.564 312.323 211 311.639 C 211.436 310.955 211.654 309.903 211.654 308.478 C 211.654 307.069 211.436 306.026 211 305.35 C 210.564 304.674 209.91 304.337 209.038 304.337 Z M 224.451 307.977 C 226.399 308.195 227.371 309.148 227.371 310.833 C 227.371 311.981 226.895 312.839 225.945 313.405 C 224.993 313.972 223.783 314.255 222.314 314.255 L 217.714 314.255 L 217.714 302.876 C 219.24 302.585 220.65 302.44 221.944 302.44 C 223.427 302.44 224.607 302.705 225.487 303.235 C 226.366 303.766 226.805 304.511 226.805 305.47 C 226.805 306.11 226.616 306.636 226.239 307.05 C 225.86 307.464 225.265 307.773 224.451 307.977 Z M 221.944 304.183 C 221.319 304.183 220.724 304.227 220.156 304.315 L 220.156 307.367 L 222.183 307.367 C 222.896 307.367 223.437 307.239 223.808 306.985 C 224.179 306.732 224.363 306.32 224.363 305.754 C 224.363 305.201 224.167 304.802 223.775 304.554 C 223.383 304.308 222.772 304.183 221.944 304.183 Z M 222.053 312.468 C 222.911 312.468 223.59 312.348 224.092 312.108 C 224.593 311.869 224.843 311.408 224.843 310.724 C 224.843 309.533 224.008 308.936 222.337 308.936 L 220.156 308.936 L 220.156 312.468 L 222.053 312.468 Z M 239.376 311.443 C 239.376 311.879 239.441 312.203 239.572 312.414 C 239.704 312.624 239.929 312.781 240.247 312.882 L 239.682 314.539 C 238.475 314.394 237.683 313.863 237.305 312.947 C 236.884 313.471 236.357 313.866 235.724 314.136 C 235.092 314.405 234.398 314.539 233.643 314.539 C 232.48 314.539 231.558 314.211 230.874 313.558 C 230.19 312.904 229.85 312.04 229.85 310.964 C 229.85 309.757 230.326 308.827 231.277 308.173 C 232.229 307.52 233.577 307.193 235.321 307.193 L 236.956 307.193 L 236.956 306.451 C 236.956 305.724 236.739 305.194 236.302 304.86 C 235.866 304.525 235.233 304.358 234.406 304.358 C 234 304.358 233.526 304.409 232.988 304.511 C 232.452 304.612 231.906 304.758 231.354 304.948 L 230.744 303.225 C 232.124 302.701 233.469 302.44 234.777 302.44 C 236.302 302.44 237.45 302.774 238.22 303.443 C 238.991 304.111 239.376 305.064 239.376 306.299 L 239.376 311.443 Z M 234.362 312.752 C 234.872 312.752 235.362 312.621 235.834 312.358 C 236.306 312.097 236.681 311.734 236.956 311.269 L 236.956 308.719 L 235.604 308.719 C 234.501 308.719 233.695 308.903 233.185 309.274 C 232.676 309.645 232.423 310.179 232.423 310.877 C 232.423 311.487 232.585 311.953 232.912 312.271 C 233.239 312.591 233.723 312.752 234.362 312.752 Z M 263.501 304.641 L 259.141 304.641 L 259.141 314.255 L 256.721 314.255 L 256.721 302.745 L 265.92 302.745 L 265.92 314.255 L 263.501 314.255 L 263.501 304.641 Z M 274.414 302.44 C 276.071 302.44 277.35 302.982 278.251 304.064 C 279.153 305.147 279.602 306.618 279.602 308.478 C 279.602 310.339 279.144 311.814 278.23 312.904 C 277.314 313.994 276.036 314.539 274.392 314.539 C 272.736 314.539 271.452 314.005 270.545 312.936 C 269.636 311.869 269.183 310.39 269.183 308.5 C 269.183 306.668 269.644 305.201 270.567 304.096 C 271.49 302.993 272.771 302.44 274.414 302.44 Z M 274.414 304.337 C 273.529 304.337 272.863 304.677 272.42 305.361 C 271.976 306.044 271.755 307.091 271.755 308.5 C 271.755 309.924 271.973 310.975 272.409 311.65 C 272.845 312.327 273.507 312.665 274.392 312.665 C 275.279 312.665 275.94 312.323 276.376 311.639 C 276.812 310.955 277.03 309.903 277.03 308.478 C 277.03 307.069 276.812 306.026 276.376 305.35 C 275.94 304.674 275.287 304.337 274.414 304.337 Z M 283.527 306.429 L 291.418 306.429 L 291.418 308.435 L 283.527 308.435 L 283.527 306.429 Z M 302.703 309.329 L 298.386 309.329 L 298.386 314.255 L 295.945 314.255 L 295.945 302.745 L 298.386 302.745 L 298.386 307.433 L 302.703 307.433 L 302.703 302.745 L 305.145 302.745 L 305.145 314.255 L 302.703 314.255 L 302.703 309.329 Z M 317.832 311.443 C 317.832 311.879 317.898 312.203 318.029 312.414 C 318.16 312.624 318.385 312.781 318.704 312.882 L 318.138 314.539 C 316.931 314.394 316.139 313.863 315.761 312.947 C 315.34 313.471 314.812 313.866 314.18 314.136 C 313.549 314.405 312.854 314.539 312.099 314.539 C 310.937 314.539 310.014 314.211 309.33 313.558 C 308.646 312.904 308.306 312.04 308.306 310.964 C 308.306 309.757 308.782 308.827 309.734 308.173 C 310.686 307.52 312.033 307.193 313.777 307.193 L 315.413 307.193 L 315.413 306.451 C 315.413 305.724 315.195 305.194 314.759 304.86 C 314.323 304.525 313.69 304.358 312.862 304.358 C 312.456 304.358 311.982 304.409 311.444 304.511 C 310.908 304.612 310.362 304.758 309.811 304.948 L 309.2 303.225 C 310.582 302.701 311.925 302.44 313.233 302.44 C 314.759 302.44 315.907 302.774 316.677 303.443 C 317.448 304.111 317.832 305.064 317.832 306.299 L 317.832 311.443 Z M 312.818 312.752 C 313.328 312.752 313.818 312.621 314.29 312.358 C 314.762 312.097 315.138 311.734 315.413 311.269 L 315.413 308.719 L 314.06 308.719 C 312.957 308.719 312.151 308.903 311.641 309.274 C 311.132 309.645 310.879 310.179 310.879 310.877 C 310.879 311.487 311.042 311.953 311.369 312.271 C 311.695 312.591 312.179 312.752 312.818 312.752 Z M 327.656 312.534 C 328.572 312.534 329.517 312.207 330.491 311.552 L 331.602 313.122 C 331.093 313.558 330.483 313.904 329.772 314.157 C 329.059 314.411 328.325 314.539 327.569 314.539 C 325.811 314.539 324.438 313.998 323.449 312.915 C 322.46 311.833 321.967 310.382 321.967 308.565 C 321.967 307.388 322.193 306.339 322.642 305.416 C 323.093 304.492 323.744 303.766 324.594 303.235 C 325.444 302.705 326.45 302.44 327.613 302.44 C 329.14 302.44 330.469 302.906 331.602 303.835 L 330.469 305.361 C 329.54 304.721 328.602 304.402 327.656 304.402 C 326.698 304.402 325.942 304.747 325.389 305.437 C 324.837 306.128 324.561 307.17 324.561 308.565 C 324.561 309.932 324.837 310.935 325.389 311.574 C 325.942 312.214 326.698 312.534 327.656 312.534 Z M 344.913 304.641 L 340.99 304.641 L 340.99 314.255 L 338.548 314.255 L 338.548 304.641 L 334.471 304.641 L 334.471 302.745 L 345.197 302.745 L 344.913 304.641 Z M 352.87 302.44 C 354.528 302.44 355.806 302.982 356.707 304.064 C 357.609 305.147 358.058 306.618 358.058 308.478 C 358.058 310.339 357.601 311.814 356.686 312.904 C 355.77 313.994 354.492 314.539 352.85 314.539 C 351.192 314.539 349.908 314.005 349.001 312.936 C 348.093 311.869 347.639 310.39 347.639 308.5 C 347.639 306.668 348.1 305.201 349.023 304.096 C 349.947 302.993 351.228 302.44 352.87 302.44 Z M 352.87 304.337 C 351.985 304.337 351.319 304.677 350.876 305.361 C 350.433 306.044 350.211 307.091 350.211 308.5 C 350.211 309.924 350.429 310.975 350.866 311.65 C 351.301 312.327 351.963 312.665 352.85 312.665 C 353.735 312.665 354.396 312.323 354.832 311.639 C 355.269 310.955 355.486 309.903 355.486 308.478 C 355.486 307.069 355.269 306.026 354.832 305.35 C 354.396 304.674 353.743 304.337 352.87 304.337 Z M 370.302 302.745 L 370.302 314.255 L 367.862 314.255 L 367.862 309.962 L 365.268 309.962 L 362.935 314.255 L 360.254 314.255 L 363.023 309.416 C 362.368 309.11 361.87 308.7 361.529 308.184 C 361.188 307.669 361.016 307.062 361.016 306.364 C 361.016 305.216 361.442 304.326 362.291 303.693 C 363.142 303.061 364.359 302.745 365.943 302.745 L 370.302 302.745 Z M 367.862 308.261 L 367.862 304.467 L 365.9 304.467 C 365.114 304.467 364.53 304.62 364.145 304.925 C 363.76 305.23 363.567 305.696 363.567 306.32 C 363.567 306.989 363.752 307.479 364.123 307.791 C 364.493 308.104 365.079 308.261 365.878 308.261 L 367.862 308.261 Z M 386.065 312.358 L 386.065 317.679 L 384.124 317.679 L 383.775 314.255 L 373.334 314.255 L 373.334 302.745 L 375.513 302.745 L 375.513 312.337 L 377.998 312.337 L 377.998 302.745 L 380.004 302.745 L 380.004 312.337 L 382.489 312.337 L 382.489 302.745 L 384.669 302.745 L 384.669 312.358 L 386.065 312.358 Z M 389.501 309.285 C 389.574 310.405 389.896 311.244 390.471 311.803 C 391.046 312.362 391.768 312.642 392.641 312.642 C 393.178 312.642 393.69 312.559 394.177 312.391 C 394.665 312.224 395.162 311.974 395.671 311.639 L 396.717 313.122 C 396.18 313.572 395.548 313.921 394.821 314.168 C 394.094 314.415 393.331 314.539 392.531 314.539 C 390.773 314.539 389.406 313.991 388.433 312.892 C 387.46 311.795 386.972 310.332 386.972 308.5 C 386.972 307.352 387.183 306.317 387.605 305.393 C 388.026 304.471 388.638 303.748 389.436 303.225 C 390.235 302.701 391.166 302.44 392.226 302.44 C 393.752 302.44 394.962 302.951 395.856 303.976 C 396.749 305.002 397.197 306.407 397.197 308.195 C 397.197 308.631 397.175 308.994 397.132 309.285 L 389.501 309.285 Z M 392.248 304.25 C 391.464 304.25 390.824 304.533 390.329 305.099 C 389.836 305.667 389.552 306.509 389.48 307.628 L 394.821 307.628 C 394.791 306.538 394.558 305.703 394.123 305.122 C 393.687 304.541 393.062 304.25 392.248 304.25 Z M 410.944 314.255 L 408.698 314.255 L 408.35 309.285 C 408.306 308.413 408.284 307.52 408.284 306.604 C 408.284 305.936 408.292 305.419 408.306 305.055 L 408.219 305.055 L 406.213 312.358 L 404.142 312.358 L 401.919 305.055 L 401.832 305.055 C 401.862 305.419 401.875 305.98 401.875 306.735 C 401.875 307.621 401.853 308.478 401.81 309.307 L 401.57 314.255 L 399.346 314.255 L 400.152 302.745 L 403.052 302.745 L 405.21 310.31 L 407.151 302.745 L 410.115 302.745 L 410.944 314.255 Z M 419.729 314.299 C 419.264 315.695 418.592 316.788 417.713 317.579 C 416.833 318.373 415.623 318.834 414.083 318.964 L 413.778 317.134 C 414.533 317.017 415.144 316.838 415.609 316.599 C 416.074 316.359 416.445 316.057 416.721 315.695 C 416.997 315.331 417.244 314.851 417.462 314.255 L 416.634 314.255 L 412.754 302.745 L 415.348 302.745 L 418.247 312.555 L 421.191 302.745 L 423.697 302.745 L 419.729 314.299 Z M 449.523 304.641 L 445.599 304.641 L 445.599 314.255 L 443.157 314.255 L 443.157 304.641 L 439.08 304.641 L 439.08 302.745 L 449.806 302.745 L 449.523 304.641 Z M 459.805 307.977 C 461.752 308.195 462.725 309.148 462.725 310.833 C 462.725 311.981 462.249 312.839 461.299 313.405 C 460.347 313.972 459.137 314.255 457.668 314.255 L 453.068 314.255 L 453.068 302.876 C 454.594 302.585 456.004 302.44 457.298 302.44 C 458.78 302.44 459.96 302.705 460.84 303.235 C 461.719 303.766 462.158 304.511 462.158 305.47 C 462.158 306.11 461.97 306.636 461.593 307.05 C 461.214 307.464 460.618 307.773 459.805 307.977 Z M 457.298 304.183 C 456.672 304.183 456.077 304.227 455.51 304.315 L 455.51 307.367 L 457.537 307.367 C 458.249 307.367 458.791 307.239 459.161 306.985 C 459.532 306.732 459.717 306.32 459.717 305.754 C 459.717 305.201 459.521 304.802 459.128 304.554 C 458.737 304.308 458.125 304.183 457.298 304.183 Z M 457.407 312.468 C 458.264 312.468 458.944 312.348 459.445 312.108 C 459.946 311.869 460.196 311.408 460.196 310.724 C 460.196 309.533 459.361 308.936 457.689 308.936 L 455.51 308.936 L 455.51 312.468 L 457.407 312.468 Z M 470.542 302.44 C 472.2 302.44 473.478 302.982 474.38 304.064 C 475.281 305.147 475.732 306.618 475.732 308.478 C 475.732 310.339 475.274 311.814 474.358 312.904 C 473.442 313.994 472.164 314.539 470.522 314.539 C 468.864 314.539 467.582 314.005 466.673 312.936 C 465.765 311.869 465.311 310.39 465.311 308.5 C 465.311 306.668 465.772 305.201 466.696 304.096 C 467.618 302.993 468.9 302.44 470.542 302.44 Z M 470.542 304.337 C 469.657 304.337 468.992 304.677 468.548 305.361 C 468.105 306.044 467.883 307.091 467.883 308.5 C 467.883 309.924 468.102 310.975 468.538 311.65 C 468.974 312.327 469.635 312.665 470.522 312.665 C 471.407 312.665 472.068 312.323 472.506 311.639 C 472.941 310.955 473.159 309.903 473.159 308.478 C 473.159 307.069 472.941 306.026 472.506 305.35 C 472.068 304.674 471.415 304.337 470.542 304.337 Z M 488.2 314.255 L 485.847 314.255 L 485.847 309.525 C 485.847 308.609 485.883 307.748 485.955 306.942 C 486.028 306.135 486.1 305.565 486.174 305.23 L 481.727 314.255 L 479.001 314.255 L 479.001 302.745 L 481.356 302.745 L 481.356 307.497 C 481.356 308.339 481.323 309.177 481.258 310.005 C 481.192 310.833 481.115 311.408 481.028 311.726 L 485.433 302.745 L 488.2 302.745 L 488.2 314.255 Z M 483.557 300.434 C 482.598 300.434 481.814 300.176 481.203 299.66 C 480.593 299.144 480.243 298.472 480.156 297.643 L 481.64 297.339 C 481.914 298.224 482.554 298.668 483.557 298.668 C 484.619 298.668 485.272 298.224 485.52 297.339 L 487.023 297.643 C 486.936 298.472 486.58 299.144 485.955 299.66 C 485.331 300.176 484.532 300.434 483.557 300.434 Z" style="stroke: rgb(255, 255, 255); vector-effect: non-scaling-stroke; stroke-width: 0px;"/>
  <g id="Logo" transform="matrix(0.212914, 0, 0, 0.231045, 276.831024, 235.15506)" style="">
    <linearGradient id="SVGID_SVGID_1__1" gradientUnits="userSpaceOnUse" gradientTransform="matrix(1 0 0 1 0 0)" x1="134.6856" y1="578.1185" x2="481.5801" y2="113.0678">
      <stop offset="0" style="stop-color:#11156D;stop-opacity: 1"/>
      <stop offset="1" style="stop-color:#48569E;stop-opacity: 1"/>
    </linearGradient>
    <path style="stroke-dasharray: none; stroke-linecap: butt; stroke-dashoffset: 0; stroke-linejoin: miter; stroke-miterlimit: 4; fill: url('#SVGID_SVGID_1__1'); fill-rule: nonzero; opacity: 1; filter: url('#SVGID_437'); paint-order: fill; stroke: rgb(255, 255, 255); stroke-width: 0px;" transform=" translate(-256.03, -256.02)" d="M 486.2 405.6 L 298.8 81 c -19.9 -30.2 -43.9 -97.7 -78.7 -35.2 L 4.8 418.7 c -13.6 23.6 3.7 73.2 30.6 73.2 L 220 172 l 0 0 c 33.6 -62.5 58.1 1.4 78.8 35.4 l 127.8 221.4 h -25.5 c -25.5 0 -38.4 -6 -51.1 -18.8 l -60.2 -60.2 c -22.7 -22.7 -34.6 -25.8 -50.4 -25.8 h -20.2 c -31.1 0 -37.3 45.4 -56.1 63.1 h 43.7 c 28.7 0 38.2 7.2 56.8 25.8 l 58.7 58.7 c 17.2 17.2 33.7 20.3 63 20.3 H 512 C 512 466.2 512 448.5 486.2 405.6 z" stroke-linecap="round"/>
  </g>
</svg>