<?xml version="1.0" encoding="utf-8"?>
<svg viewBox="600 0 300 300" xmlns="http://www.w3.org/2000/svg" xmlns:bx="https://boxy-svg.com">
  <defs>
    <bx:grid x="-0.191" y="0.191" width="100" height="100"/>
  </defs>
  <rect style="stroke-width: 0px; fill: rgb(255, 255, 255);" width="750" height="300" rx="10" ry="10" x="75"/>
  <path d="M 103.183 139.198 L 103.183 180.662 L 88.142 180.662 L 88.142 90.409 L 103.183 90.409 L 103.183 127.425 L 112.864 127.425 L 137.584 90.409 L 153.15 90.409 L 125.552 132.264 L 155.636 180.662 L 138.238 180.662 L 112.864 139.198 L 103.183 139.198 Z M 229.787 135.536 C 229.787 149.837 226.843 161.216 220.958 169.674 C 215.072 178.133 206.591 182.361 195.519 182.361 C 184.444 182.361 175.961 178.196 170.076 169.869 C 164.192 161.544 161.248 150.141 161.248 135.666 C 161.248 121.365 164.192 109.943 170.076 101.396 C 175.961 92.848 184.444 88.577 195.519 88.577 C 206.591 88.577 215.072 92.784 220.958 101.199 C 226.843 109.614 229.787 121.061 229.787 135.536 Z M 214.221 135.536 C 214.221 123.679 212.738 114.868 209.773 109.114 C 206.811 103.357 202.058 100.481 195.519 100.481 C 188.976 100.481 184.224 103.357 181.26 109.114 C 178.296 114.868 176.814 123.72 176.814 135.666 C 176.814 147.437 178.316 156.201 181.324 161.957 C 184.335 167.711 189.064 170.589 195.519 170.589 C 202.058 170.589 206.811 167.711 209.773 161.957 C 212.738 156.201 214.221 147.394 214.221 135.536 Z M 308.518 118.794 C 308.518 128.908 305.381 136.386 299.1 141.227 C 292.823 146.064 284.233 148.483 273.334 148.483 L 262.346 148.483 L 262.346 180.662 L 247.305 180.662 L 247.305 90.409 L 272.288 90.409 C 283.884 90.409 292.823 92.784 299.1 97.538 C 305.381 102.291 308.518 109.376 308.518 118.794 Z M 292.691 118.794 C 292.691 107.456 286.239 101.786 273.334 101.786 L 262.346 101.786 L 262.346 136.973 L 273.465 136.973 C 279.566 136.973 284.299 135.579 287.655 132.788 C 291.013 129.998 292.691 125.332 292.691 118.794 Z M 360.056 88.577 C 365.987 88.577 371.044 89.318 375.229 90.803 C 379.414 92.284 383.424 94.596 387.263 97.732 L 379.414 107.151 C 373.922 102.703 367.686 100.481 360.709 100.481 C 353.383 100.481 347.411 103.292 342.791 108.917 C 338.168 114.54 335.858 123.369 335.858 135.403 C 335.858 147.261 338.126 156.006 342.66 161.631 C 347.194 167.254 353.254 170.066 360.84 170.066 C 365.201 170.066 368.929 169.391 372.024 168.039 C 375.118 166.688 378.191 164.79 381.244 162.349 L 388.569 171.636 C 381.244 178.785 371.828 182.361 360.319 182.361 C 352.556 182.361 345.624 180.551 339.521 176.934 C 333.416 173.314 328.644 167.974 325.196 160.909 C 321.752 153.848 320.033 145.346 320.033 135.403 C 320.033 125.638 321.797 117.223 325.328 110.16 C 328.86 103.095 333.679 97.732 339.782 94.069 C 345.885 90.409 352.644 88.577 360.056 88.577 Z M 608.666 139.198 L 608.666 180.662 L 593.627 180.662 L 593.627 90.409 L 608.666 90.409 L 608.666 127.425 L 618.347 127.425 L 643.069 90.409 L 658.633 90.409 L 631.035 132.264 L 661.119 180.662 L 643.721 180.662 L 618.347 139.198 L 608.666 139.198 Z M 735.272 135.536 C 735.272 149.837 732.328 161.216 726.441 169.674 C 720.557 178.133 712.076 182.361 701.003 182.361 C 689.927 182.361 681.446 178.196 675.561 169.869 C 669.675 161.544 666.731 150.141 666.731 135.666 C 666.731 121.365 669.675 109.943 675.561 101.396 C 681.446 92.848 689.927 88.577 701.003 88.577 C 712.076 88.577 720.557 92.784 726.441 101.199 C 732.328 109.614 735.272 121.061 735.272 135.536 Z M 719.708 135.536 C 719.708 123.679 718.223 114.868 715.26 109.114 C 712.294 103.357 707.541 100.481 701.003 100.481 C 694.461 100.481 689.708 103.357 686.745 109.114 C 683.781 114.868 682.298 123.72 682.298 135.666 C 682.298 147.437 683.801 156.201 686.809 161.957 C 689.818 167.711 694.549 170.589 701.003 170.589 C 707.541 170.589 712.294 167.711 715.26 161.957 C 718.223 156.201 719.708 147.394 719.708 135.536 Z M 812.432 154.631 C 812.432 163.963 809.119 170.634 802.491 174.643 C 795.866 178.654 787.449 180.662 777.248 180.662 L 750.825 180.662 L 750.825 90.409 L 775.549 90.409 C 785.139 90.409 793.031 92.175 799.221 95.704 C 805.414 99.236 808.508 105.103 808.508 113.299 C 808.508 118.53 806.918 122.826 803.734 126.184 C 800.552 129.538 796.562 131.741 791.766 132.788 C 797.696 133.836 802.622 136.037 806.546 139.393 C 810.471 142.751 812.432 147.829 812.432 154.631 Z M 793.074 114.476 C 793.074 110.029 791.7 106.804 788.953 104.797 C 786.206 102.791 782.173 101.786 776.854 101.786 L 765.999 101.786 L 765.999 127.817 L 777.771 127.817 C 782.916 127.817 786.752 126.75 789.281 124.612 C 791.811 122.477 793.074 119.098 793.074 114.476 Z M 796.607 154.631 C 796.607 148.963 795.036 144.973 791.897 142.663 C 788.756 140.353 784.397 139.198 778.815 139.198 L 765.999 139.198 L 765.999 168.889 L 778.294 168.889 C 790.504 168.889 796.607 164.136 796.607 154.631 Z" style="stroke: rgb(255, 255, 255); stroke-width: 0px;"/>
  <path d="M 351.206 223.361 C 352.689 223.361 353.951 223.547 354.999 223.918 C 356.044 224.291 357.047 224.867 358.007 225.651 L 356.044 228.008 C 354.671 226.894 353.113 226.339 351.369 226.339 C 349.538 226.339 348.045 227.04 346.888 228.448 C 345.731 229.852 345.156 232.061 345.156 235.069 C 345.156 238.035 345.724 240.219 346.856 241.626 C 347.989 243.03 349.506 243.737 351.401 243.737 C 352.493 243.737 353.424 243.566 354.199 243.229 C 354.971 242.891 355.74 242.415 356.501 241.806 L 358.333 244.129 C 356.501 245.914 354.148 246.808 351.272 246.808 C 349.331 246.808 347.597 246.354 346.071 245.451 C 344.546 244.547 343.352 243.21 342.491 241.446 C 341.629 239.679 341.199 237.555 341.199 235.069 C 341.199 232.629 341.642 230.524 342.523 228.759 C 343.406 226.991 344.612 225.651 346.136 224.736 C 347.663 223.819 349.354 223.361 351.206 223.361 Z M 372.154 238.993 L 365.679 238.993 L 365.679 246.383 L 362.016 246.383 L 362.016 229.118 L 365.679 229.118 L 365.679 236.149 L 372.154 236.149 L 372.154 229.118 L 375.814 229.118 L 375.814 246.383 L 372.154 246.383 L 372.154 238.993 Z M 388.556 228.66 C 391.044 228.66 392.959 229.474 394.311 231.096 C 395.664 232.721 396.339 234.926 396.339 237.716 C 396.339 240.508 395.653 242.721 394.281 244.356 C 392.906 245.991 390.986 246.808 388.524 246.808 C 386.038 246.808 384.114 246.008 382.751 244.404 C 381.392 242.803 380.711 240.585 380.711 237.75 C 380.711 235.001 381.401 232.802 382.787 231.144 C 384.171 229.489 386.094 228.66 388.556 228.66 Z M 388.556 231.506 C 387.229 231.506 386.231 232.016 385.566 233.042 C 384.902 234.066 384.568 235.637 384.568 237.75 C 384.568 239.886 384.894 241.462 385.549 242.475 C 386.203 243.491 387.195 243.998 388.524 243.998 C 389.854 243.998 390.846 243.484 391.5 242.458 C 392.154 241.433 392.481 239.854 392.481 237.716 C 392.481 235.603 392.154 234.039 391.5 233.025 C 390.846 232.011 389.865 231.506 388.556 231.506 Z M 411.677 236.966 C 414.598 237.293 416.057 238.721 416.057 241.249 C 416.057 242.972 415.343 244.258 413.918 245.107 C 412.489 245.959 410.674 246.383 408.471 246.383 L 401.571 246.383 L 401.571 229.314 C 403.86 228.878 405.975 228.66 407.916 228.66 C 410.141 228.66 411.911 229.058 413.231 229.852 C 414.549 230.649 415.208 231.767 415.208 233.205 C 415.208 234.165 414.924 234.954 414.358 235.575 C 413.79 236.196 412.898 236.659 411.677 236.966 Z M 407.916 231.274 C 406.978 231.274 406.086 231.341 405.234 231.472 L 405.234 236.051 L 408.274 236.051 C 409.344 236.051 410.156 235.858 410.711 235.477 C 411.268 235.099 411.544 234.48 411.544 233.631 C 411.544 232.802 411.251 232.204 410.663 231.831 C 410.074 231.461 409.159 231.274 407.916 231.274 Z M 408.079 243.701 C 409.367 243.701 410.385 243.521 411.139 243.161 C 411.889 242.803 412.264 242.111 412.264 241.086 C 412.264 239.299 411.011 238.404 408.506 238.404 L 405.234 238.404 L 405.234 243.701 L 408.079 243.701 Z M 434.064 242.164 C 434.064 242.818 434.162 243.304 434.359 243.621 C 434.556 243.936 434.893 244.172 435.371 244.324 L 434.524 246.808 C 432.713 246.591 431.524 245.794 430.958 244.421 C 430.326 245.207 429.536 245.799 428.586 246.204 C 427.639 246.608 426.596 246.808 425.464 246.808 C 423.72 246.808 422.336 246.317 421.311 245.336 C 420.285 244.356 419.775 243.06 419.775 241.446 C 419.775 239.636 420.489 238.241 421.916 237.259 C 423.343 236.28 425.366 235.789 427.982 235.789 L 430.434 235.789 L 430.434 234.677 C 430.434 233.586 430.108 232.791 429.454 232.29 C 428.799 231.788 427.849 231.536 426.609 231.536 C 426 231.536 425.289 231.613 424.481 231.767 C 423.679 231.919 422.859 232.136 422.031 232.421 L 421.116 229.838 C 423.186 229.052 425.203 228.66 427.166 228.66 C 429.454 228.66 431.175 229.161 432.33 230.164 C 433.487 231.167 434.064 232.596 434.064 234.448 L 434.064 242.164 Z M 426.544 244.129 C 427.309 244.129 428.044 243.932 428.751 243.536 C 429.459 243.146 430.022 242.601 430.434 241.903 L 430.434 238.078 L 428.406 238.078 C 426.752 238.078 425.543 238.354 424.778 238.911 C 424.014 239.468 423.634 240.268 423.634 241.316 C 423.634 242.231 423.878 242.929 424.369 243.407 C 424.858 243.887 425.584 244.129 426.544 244.129 Z M 470.252 231.962 L 463.712 231.962 L 463.712 246.383 L 460.082 246.383 L 460.082 229.118 L 473.88 229.118 L 473.88 246.383 L 470.252 246.383 L 470.252 231.962 Z M 486.621 228.66 C 489.107 228.66 491.025 229.474 492.377 231.096 C 493.729 232.721 494.404 234.926 494.404 237.716 C 494.404 240.508 493.716 242.721 492.345 244.356 C 490.971 245.991 489.054 246.808 486.589 246.808 C 484.104 246.808 482.179 246.008 480.818 244.404 C 479.454 242.803 478.774 240.585 478.774 237.75 C 478.774 235.001 479.466 232.802 480.851 231.144 C 482.235 229.489 484.157 228.66 486.621 228.66 Z M 486.621 231.506 C 485.293 231.506 484.294 232.016 483.63 233.042 C 482.964 234.066 482.633 235.637 482.633 237.75 C 482.633 239.886 482.959 241.462 483.613 242.475 C 484.268 243.491 485.261 243.998 486.589 243.998 C 487.918 243.998 488.91 243.484 489.564 242.458 C 490.219 241.433 490.545 239.854 490.545 237.716 C 490.545 235.603 490.219 234.039 489.564 233.025 C 488.91 232.011 487.931 231.506 486.621 231.506 Z M 500.291 234.643 L 512.126 234.643 L 512.126 237.652 L 500.291 237.652 L 500.291 234.643 Z M 529.054 238.993 L 522.579 238.993 L 522.579 246.383 L 518.918 246.383 L 518.918 229.118 L 522.579 229.118 L 522.579 236.149 L 529.054 236.149 L 529.054 229.118 L 532.718 229.118 L 532.718 246.383 L 529.054 246.383 L 529.054 238.993 Z M 551.749 242.164 C 551.749 242.818 551.846 243.304 552.043 243.621 C 552.24 243.936 552.578 244.172 553.056 244.324 L 552.206 246.808 C 550.397 246.591 549.208 245.794 548.642 244.421 C 548.01 245.207 547.219 245.799 546.27 246.204 C 545.323 246.608 544.281 246.808 543.148 246.808 C 541.406 246.808 540.021 246.317 538.995 245.336 C 537.969 244.356 537.459 243.06 537.459 241.446 C 537.459 239.636 538.174 238.241 539.601 237.259 C 541.029 236.28 543.049 235.789 545.666 235.789 L 548.119 235.789 L 548.119 234.677 C 548.119 233.586 547.793 232.791 547.138 232.29 C 546.484 231.788 545.535 231.536 544.294 231.536 C 543.684 231.536 542.974 231.613 542.166 231.767 C 541.361 231.919 540.544 232.136 539.717 232.421 L 538.8 229.838 C 540.874 229.052 542.888 228.66 544.849 228.66 C 547.138 228.66 548.861 229.161 550.016 230.164 C 551.171 231.167 551.749 232.596 551.749 234.448 L 551.749 242.164 Z M 544.226 244.129 C 544.991 244.129 545.726 243.932 546.435 243.536 C 547.144 243.146 547.706 242.601 548.119 241.903 L 548.119 238.078 L 546.09 238.078 C 544.436 238.078 543.227 238.354 542.462 238.911 C 541.699 239.468 541.318 240.268 541.318 241.316 C 541.318 242.231 541.564 242.929 542.053 243.407 C 542.543 243.887 543.268 244.129 544.226 244.129 Z M 566.484 243.801 C 567.859 243.801 569.276 243.311 570.737 242.329 L 572.404 244.684 C 571.639 245.336 570.724 245.856 569.659 246.236 C 568.588 246.617 567.488 246.808 566.353 246.808 C 563.717 246.808 561.656 245.996 560.173 244.373 C 558.69 242.749 557.951 240.574 557.951 237.848 C 557.951 236.081 558.289 234.508 558.964 233.124 C 559.639 231.739 560.616 230.649 561.891 229.852 C 563.166 229.058 564.675 228.66 566.419 228.66 C 568.71 228.66 570.703 229.359 572.404 230.753 L 570.703 233.042 C 569.31 232.082 567.904 231.604 566.484 231.604 C 565.046 231.604 563.914 232.121 563.083 233.156 C 562.256 234.191 561.842 235.755 561.842 237.848 C 561.842 239.899 562.256 241.402 563.083 242.361 C 563.914 243.321 565.046 243.801 566.484 243.801 Z M 592.369 231.962 L 586.485 231.962 L 586.485 246.383 L 582.821 246.383 L 582.821 231.962 L 576.707 231.962 L 576.707 229.118 L 592.796 229.118 L 592.369 231.962 Z M 604.305 228.66 C 606.791 228.66 608.709 229.474 610.061 231.096 C 611.413 232.721 612.086 234.926 612.086 237.716 C 612.086 240.508 611.402 242.721 610.029 244.356 C 608.655 245.991 606.739 246.808 604.275 246.808 C 601.789 246.808 599.861 246.008 598.502 244.404 C 597.139 242.803 596.458 240.585 596.458 237.75 C 596.458 235.001 597.15 232.802 598.534 231.144 C 599.921 229.489 601.841 228.66 604.305 228.66 Z M 604.305 231.506 C 602.978 231.506 601.978 232.016 601.314 233.042 C 600.649 234.066 600.317 235.637 600.317 237.75 C 600.317 239.886 600.643 241.462 601.299 242.475 C 601.952 243.491 602.944 243.998 604.275 243.998 C 605.603 243.998 606.594 243.484 607.249 242.458 C 607.903 241.433 608.229 239.854 608.229 237.716 C 608.229 235.603 607.903 234.039 607.249 233.025 C 606.594 232.011 605.614 231.506 604.305 231.506 Z M 630.454 229.118 L 630.454 246.383 L 626.794 246.383 L 626.794 239.944 L 622.901 239.944 L 619.403 246.383 L 615.381 246.383 L 619.534 239.124 C 618.551 238.665 617.805 238.05 617.293 237.276 C 616.781 236.503 616.524 235.594 616.524 234.546 C 616.524 232.824 617.164 231.489 618.437 230.539 C 619.714 229.592 621.538 229.118 623.914 229.118 L 630.454 229.118 Z M 626.794 237.392 L 626.794 231.701 L 623.85 231.701 C 622.671 231.701 621.795 231.93 621.218 232.388 C 620.64 232.845 620.351 233.544 620.351 234.48 C 620.351 235.483 620.629 236.218 621.184 236.687 C 621.739 237.156 622.618 237.392 623.816 237.392 L 626.794 237.392 Z M 654.098 243.536 L 654.098 251.518 L 651.186 251.518 L 650.663 246.383 L 635.001 246.383 L 635.001 229.118 L 638.269 229.118 L 638.269 243.506 L 641.996 243.506 L 641.996 229.118 L 645.006 229.118 L 645.006 243.506 L 648.733 243.506 L 648.733 229.118 L 652.003 229.118 L 652.003 243.536 L 654.098 243.536 Z M 659.252 238.928 C 659.361 240.608 659.844 241.866 660.707 242.704 C 661.569 243.544 662.651 243.964 663.962 243.964 C 664.766 243.964 665.535 243.838 666.266 243.587 C 666.998 243.336 667.744 242.961 668.507 242.458 L 670.076 244.684 C 669.27 245.359 668.321 245.882 667.232 246.251 C 666.141 246.623 664.997 246.808 663.797 246.808 C 661.159 246.808 659.109 245.987 657.649 244.339 C 656.19 242.693 655.459 240.499 655.459 237.75 C 655.459 236.029 655.774 234.476 656.408 233.089 C 657.039 231.707 657.956 230.621 659.154 229.838 C 660.353 229.052 661.749 228.66 663.339 228.66 C 665.629 228.66 667.444 229.427 668.784 230.964 C 670.123 232.504 670.796 234.611 670.796 237.293 C 670.796 237.947 670.763 238.491 670.699 238.928 L 659.252 238.928 Z M 663.371 231.375 C 662.196 231.375 661.236 231.799 660.493 232.648 C 659.754 233.501 659.329 234.763 659.22 236.441 L 667.232 236.441 C 667.187 234.806 666.836 233.554 666.184 232.684 C 665.531 231.812 664.594 231.375 663.371 231.375 Z M 691.416 246.383 L 688.046 246.383 L 687.525 238.928 C 687.459 237.619 687.426 236.28 687.426 234.906 C 687.426 233.904 687.439 233.128 687.459 232.583 L 687.328 232.583 L 684.319 243.536 L 681.214 243.536 L 677.878 232.583 L 677.749 232.583 C 677.794 233.128 677.813 233.97 677.813 235.103 C 677.813 236.432 677.779 237.716 677.715 238.961 L 677.355 246.383 L 674.019 246.383 L 675.229 229.118 L 679.579 229.118 L 682.815 240.465 L 685.727 229.118 L 690.173 229.118 L 691.416 246.383 Z M 704.593 246.448 C 703.896 248.543 702.889 250.181 701.569 251.368 C 700.249 252.559 698.434 253.251 696.124 253.446 L 695.666 250.701 C 696.799 250.526 697.716 250.256 698.413 249.898 C 699.111 249.538 699.668 249.086 700.082 248.543 C 700.496 247.997 700.866 247.277 701.194 246.383 L 699.951 246.383 L 694.131 229.118 L 698.021 229.118 L 702.371 243.833 L 706.787 229.118 L 710.546 229.118 L 704.593 246.448 Z M 749.284 231.962 L 743.398 231.962 L 743.398 246.383 L 739.736 246.383 L 739.736 231.962 L 733.62 231.962 L 733.62 229.118 L 749.709 229.118 L 749.284 231.962 Z M 764.708 236.966 C 767.629 237.293 769.088 238.721 769.088 241.249 C 769.088 242.972 768.373 244.258 766.948 245.107 C 765.521 245.959 763.706 246.383 761.501 246.383 L 754.601 246.383 L 754.601 229.314 C 756.891 228.878 759.006 228.66 760.946 228.66 C 763.17 228.66 764.94 229.058 766.26 229.852 C 767.578 230.649 768.236 231.767 768.236 233.205 C 768.236 234.165 767.955 234.954 767.389 235.575 C 766.821 236.196 765.926 236.659 764.708 236.966 Z M 760.946 231.274 C 760.009 231.274 759.116 231.341 758.265 231.472 L 758.265 236.051 L 761.306 236.051 C 762.373 236.051 763.187 235.858 763.742 235.477 C 764.299 235.099 764.576 234.48 764.576 233.631 C 764.576 232.802 764.282 232.204 763.691 231.831 C 763.106 231.461 762.188 231.274 760.946 231.274 Z M 761.111 243.701 C 762.396 243.701 763.416 243.521 764.168 243.161 C 764.919 242.803 765.294 242.111 765.294 241.086 C 765.294 239.299 764.042 238.404 761.533 238.404 L 758.265 238.404 L 758.265 243.701 L 761.111 243.701 Z M 780.814 228.66 C 783.3 228.66 785.216 229.474 786.57 231.096 C 787.922 232.721 788.599 234.926 788.599 237.716 C 788.599 240.508 787.911 242.721 786.536 244.356 C 785.164 245.991 783.246 246.808 780.784 246.808 C 778.296 246.808 776.374 246.008 775.009 244.404 C 773.648 242.803 772.967 240.585 772.967 237.75 C 772.967 235.001 773.659 232.802 775.044 231.144 C 776.426 229.489 778.35 228.66 780.814 228.66 Z M 780.814 231.506 C 779.486 231.506 778.489 232.016 777.821 233.042 C 777.158 234.066 776.824 235.637 776.824 237.75 C 776.824 239.886 777.154 241.462 777.806 242.475 C 778.461 243.491 779.453 243.998 780.784 243.998 C 782.111 243.998 783.101 243.484 783.759 242.458 C 784.412 241.433 784.738 239.854 784.738 237.716 C 784.738 235.603 784.412 234.039 783.759 233.025 C 783.101 232.011 782.123 231.506 780.814 231.506 Z M 807.3 246.383 L 803.771 246.383 L 803.771 239.288 C 803.771 237.913 803.824 236.621 803.933 235.414 C 804.041 234.203 804.15 233.347 804.261 232.845 L 797.591 246.383 L 793.502 246.383 L 793.502 229.118 L 797.034 229.118 L 797.034 236.246 C 797.034 237.508 796.984 238.766 796.886 240.008 C 796.789 241.249 796.673 242.111 796.541 242.589 L 803.149 229.118 L 807.3 229.118 L 807.3 246.383 Z M 800.336 225.651 C 798.896 225.651 797.721 225.264 796.804 224.49 C 795.889 223.716 795.364 222.709 795.234 221.464 L 797.46 221.008 C 797.871 222.336 798.831 223.001 800.336 223.001 C 801.928 223.001 802.909 222.336 803.28 221.008 L 805.534 221.464 C 805.404 222.709 804.87 223.716 803.933 224.49 C 802.997 225.264 801.799 225.651 800.336 225.651 Z" style="stroke: rgb(255, 255, 255); vector-effect: non-scaling-stroke; stroke-width: 0px;"/>
  <g id="Logo" transform="matrix(0.319371, 0, 0, 0.346568, 490.246521, 127.732574)" style="">
    <linearGradient id="SVGID_SVGID_1__1" gradientUnits="userSpaceOnUse" gradientTransform="matrix(1 0 0 1 0 0)" x1="134.6856" y1="578.1185" x2="481.5801" y2="113.0678">
      <stop offset="0" style="stop-color:#11156D;stop-opacity: 1"/>
      <stop offset="1" style="stop-color:#48569E;stop-opacity: 1"/>
    </linearGradient>
    <path style="stroke-dasharray: none; stroke-linecap: butt; stroke-dashoffset: 0; stroke-linejoin: miter; stroke-miterlimit: 4; fill: url('#SVGID_SVGID_1__1'); fill-rule: nonzero; opacity: 1; filter: url('#SVGID_437'); paint-order: fill; stroke: rgb(255, 255, 255); stroke-width: 0px;" transform=" translate(-256.03, -256.02)" d="M 486.2 405.6 L 298.8 81 c -19.9 -30.2 -43.9 -97.7 -78.7 -35.2 L 4.8 418.7 c -13.6 23.6 3.7 73.2 30.6 73.2 L 220 172 l 0 0 c 33.6 -62.5 58.1 1.4 78.8 35.4 l 127.8 221.4 h -25.5 c -25.5 0 -38.4 -6 -51.1 -18.8 l -60.2 -60.2 c -22.7 -22.7 -34.6 -25.8 -50.4 -25.8 h -20.2 c -31.1 0 -37.3 45.4 -56.1 63.1 h 43.7 c 28.7 0 38.2 7.2 56.8 25.8 l 58.7 58.7 c 17.2 17.2 33.7 20.3 63 20.3 H 512 C 512 466.2 512 448.5 486.2 405.6 z" stroke-linecap="round"/>
  </g>
</svg>