<?xml version="1.0" encoding="utf-8"?>
<svg viewBox="0 0 900 300" xmlns="http://www.w3.org/2000/svg" xmlns:bx="https://boxy-svg.com">
  <defs>
    <bx:grid x="-0.191" y="0.191" width="100" height="100"/>
  </defs>
  <rect style="stroke-width: 0px; fill: rgb(255, 255, 255);" width="750" height="300" rx="10" ry="10" x="75"/>
  <path d="M 103.183 139.199 L 103.183 180.661 L 88.141 180.661 L 88.141 90.408 L 103.183 90.408 L 103.183 127.425 L 112.863 127.425 L 137.583 90.408 L 153.15 90.408 L 125.551 132.264 L 155.635 180.661 L 138.238 180.661 L 112.863 139.199 L 103.183 139.199 Z M 229.786 135.535 C 229.786 149.836 226.843 161.216 220.957 169.674 C 215.071 178.132 206.59 182.361 195.519 182.361 C 184.443 182.361 175.962 178.197 170.076 169.869 C 164.191 161.544 161.248 150.141 161.248 135.666 C 161.248 121.365 164.191 109.942 170.076 101.395 C 175.962 92.848 184.443 88.576 195.519 88.576 C 206.59 88.576 215.071 92.784 220.957 101.199 C 226.843 109.614 229.786 121.06 229.786 135.535 Z M 214.221 135.535 C 214.221 123.678 212.737 114.868 209.773 109.113 C 206.811 103.357 202.057 100.48 195.519 100.48 C 188.976 100.48 184.224 103.357 181.26 109.113 C 178.296 114.868 176.814 123.72 176.814 135.666 C 176.814 147.436 178.317 156.201 181.324 161.956 C 184.335 167.712 189.064 170.589 195.519 170.589 C 202.057 170.589 206.811 167.712 209.773 161.956 C 212.737 156.201 214.221 147.393 214.221 135.535 Z M 308.518 118.794 C 308.518 128.908 305.38 136.386 299.1 141.226 C 292.822 146.064 284.233 148.483 273.333 148.483 L 262.347 148.483 L 262.347 180.661 L 247.305 180.661 L 247.305 90.408 L 272.287 90.408 C 283.884 90.408 292.822 92.784 299.1 97.537 C 305.38 102.291 308.518 109.375 308.518 118.794 Z M 292.692 118.794 C 292.692 107.457 286.239 101.787 273.333 101.787 L 262.347 101.787 L 262.347 136.972 L 273.465 136.972 C 279.567 136.972 284.299 135.579 287.655 132.788 C 291.013 129.997 292.692 125.332 292.692 118.794 Z M 360.057 88.576 C 365.986 88.576 371.043 89.317 375.229 90.802 C 379.414 92.284 383.424 94.596 387.262 97.732 L 379.414 107.151 C 373.921 102.703 367.686 100.48 360.709 100.48 C 353.383 100.48 347.412 103.291 342.79 108.916 C 338.167 114.54 335.857 123.369 335.857 135.403 C 335.857 147.261 338.125 156.006 342.66 161.631 C 347.193 167.254 353.253 170.065 360.84 170.065 C 365.202 170.065 368.929 169.39 372.024 168.039 C 375.118 166.687 378.192 164.79 381.244 162.348 L 388.569 171.636 C 381.244 178.785 371.827 182.361 360.318 182.361 C 352.557 182.361 345.624 180.552 339.52 176.934 C 333.415 173.314 328.644 167.974 325.197 160.909 C 321.751 153.847 320.032 145.346 320.032 135.403 C 320.032 125.638 321.796 117.223 325.327 110.16 C 328.86 103.095 333.678 97.732 339.781 94.069 C 345.885 90.408 352.644 88.576 360.057 88.576 Z M 608.667 139.199 L 608.667 180.661 L 593.626 180.661 L 593.626 90.408 L 608.667 90.408 L 608.667 127.425 L 618.346 127.425 L 643.068 90.408 L 658.633 90.408 L 631.035 132.264 L 661.119 180.661 L 643.722 180.661 L 618.346 139.199 L 608.667 139.199 Z M 735.271 135.535 C 735.271 149.836 732.328 161.216 726.441 169.674 C 720.556 178.132 712.075 182.361 701.002 182.361 C 689.926 182.361 681.447 178.197 675.561 169.869 C 669.675 161.544 666.732 150.141 666.732 135.666 C 666.732 121.365 669.675 109.942 675.561 101.395 C 681.447 92.848 689.926 88.576 701.002 88.576 C 712.075 88.576 720.556 92.784 726.441 101.199 C 732.328 109.614 735.271 121.06 735.271 135.535 Z M 719.707 135.535 C 719.707 123.678 718.222 114.868 715.26 109.113 C 712.294 103.357 707.541 100.48 701.002 100.48 C 694.461 100.48 689.707 103.357 686.745 109.113 C 683.781 114.868 682.297 123.72 682.297 135.666 C 682.297 147.436 683.802 156.201 686.809 161.956 C 689.818 167.712 694.548 170.589 701.002 170.589 C 707.541 170.589 712.294 167.712 715.26 161.956 C 718.222 156.201 719.707 147.393 719.707 135.535 Z M 812.431 154.632 C 812.431 163.963 809.118 170.634 802.491 174.644 C 795.865 178.654 787.449 180.661 777.247 180.661 L 750.825 180.661 L 750.825 90.408 L 775.548 90.408 C 785.139 90.408 793.03 92.175 799.221 95.704 C 805.414 99.237 808.507 105.103 808.507 113.298 C 808.507 118.53 806.917 122.826 803.734 126.184 C 800.551 129.538 796.561 131.742 791.766 132.788 C 797.695 133.836 802.621 136.036 806.545 139.394 C 810.471 142.75 812.431 147.829 812.431 154.632 Z M 793.074 114.475 C 793.074 110.029 791.7 106.803 788.953 104.797 C 786.205 102.79 782.173 101.787 776.854 101.787 L 765.999 101.787 L 765.999 127.816 L 777.771 127.816 C 782.916 127.816 786.751 126.75 789.28 124.612 C 791.811 122.476 793.074 119.098 793.074 114.475 Z M 796.606 154.632 C 796.606 148.963 795.036 144.973 791.896 142.663 C 788.757 140.353 784.396 139.199 778.815 139.199 L 765.999 139.199 L 765.999 168.889 L 778.293 168.889 C 790.503 168.889 796.606 164.136 796.606 154.632 Z" style="stroke: rgb(255, 255, 255); stroke-width: 0px;"/>
  <path d="M 351.205 223.362 C 352.689 223.362 353.952 223.546 354.999 223.918 C 356.044 224.29 357.046 224.866 358.006 225.651 L 356.044 228.007 C 354.672 226.894 353.113 226.338 351.369 226.338 C 349.537 226.338 348.045 227.04 346.888 228.449 C 345.732 229.853 345.156 232.06 345.156 235.068 C 345.156 238.035 345.724 240.219 346.857 241.626 C 347.988 243.03 349.506 243.737 351.402 243.737 C 352.492 243.737 353.424 243.567 354.198 243.228 C 354.972 242.89 355.74 242.415 356.502 241.806 L 358.333 244.128 C 356.502 245.913 354.148 246.808 351.271 246.808 C 349.33 246.808 347.596 246.354 346.071 245.451 C 344.547 244.546 343.351 243.21 342.49 241.446 C 341.628 239.679 341.199 237.555 341.199 235.068 C 341.199 232.629 341.641 230.524 342.523 228.759 C 343.405 226.992 344.611 225.651 346.137 224.736 C 347.662 223.819 349.353 223.362 351.205 223.362 Z M 372.153 238.993 L 365.679 238.993 L 365.679 246.382 L 362.016 246.382 L 362.016 229.117 L 365.679 229.117 L 365.679 236.149 L 372.153 236.149 L 372.153 229.117 L 375.814 229.117 L 375.814 246.382 L 372.153 246.382 L 372.153 238.993 Z M 388.557 228.66 C 391.044 228.66 392.959 229.473 394.311 231.096 C 395.664 232.72 396.339 234.927 396.339 237.717 C 396.339 240.508 395.653 242.721 394.281 244.356 C 392.907 245.991 390.987 246.808 388.524 246.808 C 386.038 246.808 384.114 246.007 382.752 244.404 C 381.391 242.803 380.71 240.585 380.71 237.75 C 380.71 235.002 381.4 232.801 382.786 231.144 C 384.171 229.489 386.094 228.66 388.557 228.66 Z M 388.557 231.505 C 387.228 231.505 386.23 232.015 385.566 233.041 C 384.901 234.066 384.568 235.636 384.568 237.75 C 384.568 239.886 384.894 241.462 385.549 242.475 C 386.203 243.49 387.195 243.997 388.524 243.997 C 389.853 243.997 390.846 243.485 391.5 242.459 C 392.154 241.432 392.481 239.854 392.481 237.717 C 392.481 235.603 392.154 234.039 391.5 233.025 C 390.846 232.011 389.865 231.505 388.557 231.505 Z M 411.676 236.966 C 414.598 237.292 416.056 238.722 416.056 241.249 C 416.056 242.971 415.342 244.258 413.917 245.108 C 412.489 245.958 410.674 246.382 408.471 246.382 L 401.571 246.382 L 401.571 229.314 C 403.86 228.877 405.975 228.66 407.916 228.66 C 410.14 228.66 411.91 229.057 413.23 229.853 C 414.549 230.649 415.207 231.766 415.207 233.205 C 415.207 234.165 414.924 234.954 414.358 235.575 C 413.79 236.196 412.897 236.659 411.676 236.966 Z M 407.916 231.274 C 406.978 231.274 406.086 231.341 405.234 231.472 L 405.234 236.05 L 408.274 236.05 C 409.344 236.05 410.155 235.858 410.712 235.478 C 411.268 235.098 411.544 234.48 411.544 233.631 C 411.544 232.801 411.25 232.203 410.662 231.831 C 410.074 231.462 409.158 231.274 407.916 231.274 Z M 408.079 243.702 C 409.366 243.702 410.385 243.522 411.138 243.162 C 411.889 242.803 412.264 242.112 412.264 241.086 C 412.264 239.299 411.012 238.404 408.505 238.404 L 405.234 238.404 L 405.234 243.702 L 408.079 243.702 Z M 434.064 242.165 C 434.064 242.818 434.161 243.305 434.358 243.621 C 434.556 243.936 434.893 244.171 435.37 244.323 L 434.523 246.808 C 432.712 246.591 431.524 245.794 430.957 244.42 C 430.326 245.206 429.535 245.799 428.586 246.204 C 427.638 246.608 426.597 246.808 425.464 246.808 C 423.72 246.808 422.337 246.317 421.311 245.337 C 420.285 244.356 419.775 243.06 419.775 241.446 C 419.775 239.635 420.489 238.24 421.915 237.259 C 423.343 236.28 425.365 235.79 427.981 235.79 L 430.434 235.79 L 430.434 234.676 C 430.434 233.586 430.108 232.791 429.453 232.29 C 428.799 231.788 427.849 231.537 426.609 231.537 C 426 231.537 425.289 231.613 424.482 231.766 C 423.678 231.918 422.859 232.137 422.031 232.422 L 421.116 229.837 C 423.186 229.051 425.203 228.66 427.165 228.66 C 429.453 228.66 431.175 229.161 432.33 230.165 C 433.486 231.166 434.064 232.596 434.064 234.449 L 434.064 242.165 Z M 426.543 244.128 C 427.308 244.128 428.043 243.932 428.751 243.537 C 429.459 243.146 430.021 242.601 430.434 241.903 L 430.434 238.078 L 428.406 238.078 C 426.751 238.078 425.542 238.354 424.777 238.911 C 424.014 239.468 423.634 240.269 423.634 241.316 C 423.634 242.23 423.877 242.93 424.368 243.406 C 424.858 243.886 425.584 244.128 426.543 244.128 Z M 470.251 231.961 L 463.711 231.961 L 463.711 246.382 L 460.081 246.382 L 460.081 229.117 L 473.88 229.117 L 473.88 246.382 L 470.251 246.382 L 470.251 231.961 Z M 486.621 228.66 C 489.106 228.66 491.025 229.473 492.376 231.096 C 493.729 232.72 494.403 234.927 494.403 237.717 C 494.403 240.508 493.716 242.721 492.345 244.356 C 490.971 245.991 489.054 246.808 486.588 246.808 C 484.104 246.808 482.178 246.007 480.817 244.404 C 479.454 242.803 478.774 240.585 478.774 237.75 C 478.774 235.002 479.466 232.801 480.85 231.144 C 482.235 229.489 484.156 228.66 486.621 228.66 Z M 486.621 231.505 C 485.293 231.505 484.294 232.015 483.63 233.041 C 482.964 234.066 482.632 235.636 482.632 237.75 C 482.632 239.886 482.959 241.462 483.613 242.475 C 484.267 243.49 485.26 243.997 486.588 243.997 C 487.918 243.997 488.91 243.485 489.564 242.459 C 490.218 241.432 490.545 239.854 490.545 237.717 C 490.545 235.603 490.218 234.039 489.564 233.025 C 488.91 232.011 487.93 231.505 486.621 231.505 Z M 500.29 234.644 L 512.127 234.644 L 512.127 237.652 L 500.29 237.652 L 500.29 234.644 Z M 529.054 238.993 L 522.579 238.993 L 522.579 246.382 L 518.917 246.382 L 518.917 229.117 L 522.579 229.117 L 522.579 236.149 L 529.054 236.149 L 529.054 229.117 L 532.717 229.117 L 532.717 246.382 L 529.054 246.382 L 529.054 238.993 Z M 551.748 242.165 C 551.748 242.818 551.847 243.305 552.043 243.621 C 552.24 243.936 552.577 244.171 553.056 244.323 L 552.207 246.808 C 550.396 246.591 549.208 245.794 548.641 244.42 C 548.01 245.206 547.218 245.799 546.27 246.204 C 545.323 246.608 544.281 246.808 543.148 246.808 C 541.405 246.808 540.021 246.317 538.995 245.337 C 537.969 244.356 537.459 243.06 537.459 241.446 C 537.459 239.635 538.173 238.24 539.601 237.259 C 541.029 236.28 543.049 235.79 545.665 235.79 L 548.119 235.79 L 548.119 234.676 C 548.119 233.586 547.792 232.791 547.138 232.29 C 546.484 231.788 545.535 231.537 544.293 231.537 C 543.684 231.537 542.973 231.613 542.166 231.766 C 541.362 231.918 540.543 232.137 539.716 232.422 L 538.8 229.837 C 540.873 229.051 542.887 228.66 544.849 228.66 C 547.138 228.66 548.86 229.161 550.015 230.165 C 551.172 231.166 551.748 232.596 551.748 234.449 L 551.748 242.165 Z M 544.227 244.128 C 544.992 244.128 545.727 243.932 546.435 243.537 C 547.143 243.146 547.707 242.601 548.119 241.903 L 548.119 238.078 L 546.09 238.078 C 544.435 238.078 543.226 238.354 542.461 238.911 C 541.698 239.468 541.318 240.269 541.318 241.316 C 541.318 242.23 541.563 242.93 542.053 243.406 C 542.542 243.886 543.268 244.128 544.227 244.128 Z M 566.484 243.801 C 567.858 243.801 569.275 243.31 570.736 242.328 L 572.403 244.683 C 571.639 245.337 570.724 245.856 569.658 246.235 C 568.588 246.616 567.487 246.808 566.353 246.808 C 563.716 246.808 561.657 245.997 560.173 244.372 C 558.69 242.749 557.95 240.573 557.95 237.847 C 557.95 236.082 558.289 234.508 558.963 233.124 C 559.639 231.738 560.616 230.649 561.891 229.853 C 563.166 229.057 564.675 228.66 566.419 228.66 C 568.71 228.66 570.703 229.359 572.403 230.752 L 570.703 233.041 C 569.31 232.081 567.903 231.603 566.484 231.603 C 565.047 231.603 563.913 232.121 563.083 233.156 C 562.255 234.192 561.841 235.755 561.841 237.847 C 561.841 239.898 562.255 241.402 563.083 242.361 C 563.913 243.321 565.047 243.801 566.484 243.801 Z M 592.369 231.961 L 586.485 231.961 L 586.485 246.382 L 582.822 246.382 L 582.822 231.961 L 576.706 231.961 L 576.706 229.117 L 592.795 229.117 L 592.369 231.961 Z M 604.305 228.66 C 606.792 228.66 608.709 229.473 610.06 231.096 C 611.413 232.72 612.087 234.927 612.087 237.717 C 612.087 240.508 611.401 242.721 610.029 244.356 C 608.655 245.991 606.738 246.808 604.275 246.808 C 601.788 246.808 599.862 246.007 598.501 244.404 C 597.139 242.803 596.458 240.585 596.458 237.75 C 596.458 235.002 597.15 232.801 598.534 231.144 C 599.92 229.489 601.842 228.66 604.305 228.66 Z M 604.305 231.505 C 602.977 231.505 601.978 232.015 601.314 233.041 C 600.649 234.066 600.316 235.636 600.316 237.75 C 600.316 239.886 600.643 241.462 601.299 242.475 C 601.951 243.49 602.944 243.997 604.275 243.997 C 605.602 243.997 606.594 243.485 607.248 242.459 C 607.903 241.432 608.229 239.854 608.229 237.717 C 608.229 235.603 607.903 234.039 607.248 233.025 C 606.594 232.011 605.614 231.505 604.305 231.505 Z M 630.453 229.117 L 630.453 246.382 L 626.793 246.382 L 626.793 239.943 L 622.902 239.943 L 619.402 246.382 L 615.381 246.382 L 619.534 239.124 C 618.552 238.665 617.805 238.05 617.293 237.276 C 616.782 236.504 616.524 235.593 616.524 234.546 C 616.524 232.824 617.163 231.489 618.436 230.54 C 619.713 229.591 621.538 229.117 623.914 229.117 L 630.453 229.117 Z M 626.793 237.391 L 626.793 231.701 L 623.85 231.701 C 622.671 231.701 621.795 231.93 621.217 232.388 C 620.64 232.845 620.35 233.544 620.35 234.48 C 620.35 235.483 620.628 236.218 621.184 236.686 C 621.739 237.156 622.618 237.391 623.817 237.391 L 626.793 237.391 Z M 654.097 243.537 L 654.097 251.519 L 651.186 251.519 L 650.662 246.382 L 635.001 246.382 L 635.001 229.117 L 638.269 229.117 L 638.269 243.505 L 641.997 243.505 L 641.997 229.117 L 645.006 229.117 L 645.006 243.505 L 648.733 243.505 L 648.733 229.117 L 652.003 229.117 L 652.003 243.537 L 654.097 243.537 Z M 659.251 238.927 C 659.361 240.608 659.844 241.866 660.706 242.704 C 661.569 243.543 662.652 243.963 663.961 243.963 C 664.767 243.963 665.535 243.838 666.265 243.586 C 666.997 243.336 667.743 242.961 668.506 242.459 L 670.075 244.683 C 669.27 245.358 668.322 245.881 667.231 246.252 C 666.141 246.622 664.996 246.808 663.796 246.808 C 661.159 246.808 659.109 245.987 657.649 244.338 C 656.19 242.692 655.458 240.498 655.458 237.75 C 655.458 236.028 655.774 234.475 656.407 233.089 C 657.039 231.706 657.957 230.622 659.154 229.837 C 660.352 229.051 661.749 228.66 663.339 228.66 C 665.628 228.66 667.443 229.426 668.784 230.964 C 670.123 232.503 670.795 234.61 670.795 237.292 C 670.795 237.947 670.762 238.491 670.698 238.927 L 659.251 238.927 Z M 663.372 231.375 C 662.196 231.375 661.236 231.799 660.493 232.648 C 659.754 233.5 659.328 234.763 659.22 236.442 L 667.231 236.442 C 667.186 234.807 666.837 233.555 666.184 232.683 C 665.53 231.811 664.593 231.375 663.372 231.375 Z M 691.416 246.382 L 688.047 246.382 L 687.525 238.927 C 687.459 237.62 687.426 236.28 687.426 234.906 C 687.426 233.904 687.438 233.129 687.459 232.582 L 687.328 232.582 L 684.319 243.537 L 681.213 243.537 L 677.878 232.582 L 677.748 232.582 C 677.793 233.129 677.812 233.97 677.812 235.103 C 677.812 236.432 677.779 237.717 677.715 238.96 L 677.355 246.382 L 674.019 246.382 L 675.228 229.117 L 679.578 229.117 L 682.815 240.465 L 685.726 229.117 L 690.172 229.117 L 691.416 246.382 Z M 704.593 246.449 C 703.896 248.542 702.888 250.182 701.569 251.368 C 700.249 252.559 698.434 253.251 696.124 253.446 L 695.667 250.701 C 696.799 250.525 697.716 250.257 698.413 249.898 C 699.111 249.538 699.667 249.085 700.081 248.542 C 700.495 247.996 700.866 247.276 701.193 246.382 L 699.951 246.382 L 694.131 229.117 L 698.022 229.117 L 702.37 243.832 L 706.786 229.117 L 710.545 229.117 L 704.593 246.449 Z M 749.284 231.961 L 743.398 231.961 L 743.398 246.382 L 739.735 246.382 L 739.735 231.961 L 733.62 231.961 L 733.62 229.117 L 749.709 229.117 L 749.284 231.961 Z M 764.707 236.966 C 767.628 237.292 769.087 238.722 769.087 241.249 C 769.087 242.971 768.373 244.258 766.948 245.108 C 765.52 245.958 763.705 246.382 761.502 246.382 L 754.602 246.382 L 754.602 229.314 C 756.891 228.877 759.006 228.66 760.947 228.66 C 763.17 228.66 764.94 229.057 766.26 229.853 C 767.578 230.649 768.237 231.766 768.237 233.205 C 768.237 234.165 767.955 234.954 767.389 235.575 C 766.821 236.196 765.927 236.659 764.707 236.966 Z M 760.947 231.274 C 760.008 231.274 759.115 231.341 758.265 231.472 L 758.265 236.05 L 761.305 236.05 C 762.373 236.05 763.186 235.858 763.741 235.478 C 764.298 235.098 764.575 234.48 764.575 233.631 C 764.575 232.801 764.281 232.203 763.692 231.831 C 763.105 231.462 762.187 231.274 760.947 231.274 Z M 761.11 243.702 C 762.396 243.702 763.416 243.522 764.167 243.162 C 764.919 242.803 765.294 242.112 765.294 241.086 C 765.294 239.299 764.041 238.404 761.533 238.404 L 758.265 238.404 L 758.265 243.702 L 761.11 243.702 Z M 780.813 228.66 C 783.3 228.66 785.217 229.473 786.57 231.096 C 787.921 232.72 788.598 234.927 788.598 237.717 C 788.598 240.508 787.911 242.721 786.537 244.356 C 785.163 245.991 783.246 246.808 780.783 246.808 C 778.296 246.808 776.373 246.007 775.009 244.404 C 773.647 242.803 772.966 240.585 772.966 237.75 C 772.966 235.002 773.658 232.801 775.044 231.144 C 776.427 229.489 778.35 228.66 780.813 228.66 Z M 780.813 231.505 C 779.485 231.505 778.488 232.015 777.822 233.041 C 777.157 234.066 776.824 235.636 776.824 237.75 C 776.824 239.886 777.153 241.462 777.807 242.475 C 778.461 243.49 779.452 243.997 780.783 243.997 C 782.11 243.997 783.102 243.485 783.759 242.459 C 784.411 241.432 784.738 239.854 784.738 237.717 C 784.738 235.603 784.411 234.039 783.759 233.025 C 783.102 232.011 782.122 231.505 780.813 231.505 Z M 807.3 246.382 L 803.77 246.382 L 803.77 239.288 C 803.77 237.913 803.824 236.622 803.932 235.413 C 804.042 234.202 804.15 233.347 804.261 232.845 L 797.59 246.382 L 793.501 246.382 L 793.501 229.117 L 797.034 229.117 L 797.034 236.246 C 797.034 237.508 796.984 238.765 796.887 240.007 C 796.788 241.249 796.672 242.112 796.542 242.589 L 803.149 229.117 L 807.3 229.117 L 807.3 246.382 Z M 800.335 225.651 C 798.897 225.651 797.721 225.264 796.804 224.49 C 795.889 223.716 795.364 222.708 795.234 221.464 L 797.46 221.008 C 797.871 222.336 798.831 223.002 800.335 223.002 C 801.928 223.002 802.908 222.336 803.28 221.008 L 805.534 221.464 C 805.404 222.708 804.87 223.716 803.932 224.49 C 802.996 225.264 801.798 225.651 800.335 225.651 Z" style="stroke: rgb(255, 255, 255); vector-effect: non-scaling-stroke; stroke-width: 0px;"/>
  <g id="Logo" transform="matrix(0.319371, 0, 0, 0.346568, 490.246521, 127.73259)" style="">
    <linearGradient id="SVGID_SVGID_1__1" gradientUnits="userSpaceOnUse" gradientTransform="matrix(1 0 0 1 0 0)" x1="134.6856" y1="578.1185" x2="481.5801" y2="113.0678">
      <stop offset="0" style="stop-color:#11156D;stop-opacity: 1"/>
      <stop offset="1" style="stop-color:#48569E;stop-opacity: 1"/>
    </linearGradient>
    <path style="stroke-dasharray: none; stroke-linecap: butt; stroke-dashoffset: 0; stroke-linejoin: miter; stroke-miterlimit: 4; fill: url('#SVGID_SVGID_1__1'); fill-rule: nonzero; opacity: 1; filter: url('#SVGID_437'); paint-order: fill; stroke: rgb(255, 255, 255); stroke-width: 0px;" transform=" translate(-256.03, -256.02)" d="M 486.2 405.6 L 298.8 81 c -19.9 -30.2 -43.9 -97.7 -78.7 -35.2 L 4.8 418.7 c -13.6 23.6 3.7 73.2 30.6 73.2 L 220 172 l 0 0 c 33.6 -62.5 58.1 1.4 78.8 35.4 l 127.8 221.4 h -25.5 c -25.5 0 -38.4 -6 -51.1 -18.8 l -60.2 -60.2 c -22.7 -22.7 -34.6 -25.8 -50.4 -25.8 h -20.2 c -31.1 0 -37.3 45.4 -56.1 63.1 h 43.7 c 28.7 0 38.2 7.2 56.8 25.8 l 58.7 58.7 c 17.2 17.2 33.7 20.3 63 20.3 H 512 C 512 466.2 512 448.5 486.2 405.6 z" stroke-linecap="round"/>
  </g>
</svg>