<?xml version="1.0" encoding="utf-8"?>
<svg viewBox="0 0 500 200" xmlns="http://www.w3.org/2000/svg" xmlns:bx="https://boxy-svg.com">
  <defs>
    <bx:grid x="-0.191" y="0.191" width="100" height="100"/>
  </defs>
  <rect style="stroke-width: 0px; fill: rgb(255, 255, 255);" width="500" height="200" rx="10" ry="10"/>
  <path d="M 18.789 92.799 L 18.789 120.441 L 8.761 120.441 L 8.761 60.272 L 18.789 60.272 L 18.789 84.95 L 25.242 84.95 L 41.722 60.272 L 52.1 60.272 L 33.701 88.176 L 53.757 120.441 L 42.159 120.441 L 25.242 92.799 L 18.789 92.799 Z M 103.191 90.357 C 103.191 99.891 101.229 107.477 97.305 113.116 C 93.381 118.755 87.727 121.574 80.346 121.574 C 72.962 121.574 67.308 118.798 63.384 113.246 C 59.461 107.696 57.499 100.094 57.499 90.444 C 57.499 80.91 59.461 73.295 63.384 67.597 C 67.308 61.899 72.962 59.051 80.346 59.051 C 87.727 59.051 93.381 61.856 97.305 67.466 C 101.229 73.076 103.191 80.707 103.191 90.357 Z M 92.814 90.357 C 92.814 82.452 91.825 76.579 89.849 72.742 C 87.874 68.905 84.705 66.987 80.346 66.987 C 75.984 66.987 72.816 68.905 70.84 72.742 C 68.864 76.579 67.876 82.48 67.876 90.444 C 67.876 98.291 68.878 104.134 70.883 107.971 C 72.89 111.808 76.043 113.726 80.346 113.726 C 84.705 113.726 87.874 111.808 89.849 107.971 C 91.825 104.134 92.814 98.262 92.814 90.357 Z M 155.679 79.196 C 155.679 85.939 153.587 90.924 149.4 94.151 C 145.215 97.376 139.489 98.989 132.222 98.989 L 124.898 98.989 L 124.898 120.441 L 114.87 120.441 L 114.87 60.272 L 131.525 60.272 C 139.256 60.272 145.215 61.856 149.4 65.025 C 153.587 68.194 155.679 72.917 155.679 79.196 Z M 145.128 79.196 C 145.128 71.638 140.826 67.858 132.222 67.858 L 124.898 67.858 L 124.898 91.315 L 132.31 91.315 C 136.378 91.315 139.533 90.386 141.77 88.525 C 144.009 86.665 145.128 83.555 145.128 79.196 Z M 190.038 59.051 C 193.991 59.051 197.362 59.545 200.153 60.535 C 202.943 61.523 205.616 63.064 208.175 65.155 L 202.943 71.434 C 199.281 68.469 195.124 66.987 190.473 66.987 C 185.589 66.987 181.608 68.861 178.527 72.611 C 175.445 76.36 173.905 82.246 173.905 90.269 C 173.905 98.174 175.417 104.004 178.44 107.754 C 181.462 111.503 185.502 113.377 190.56 113.377 C 193.468 113.377 195.953 112.927 198.016 112.026 C 200.079 111.125 202.128 109.86 204.163 108.232 L 209.046 114.424 C 204.163 119.19 197.885 121.574 190.212 121.574 C 185.038 121.574 180.416 120.368 176.347 117.956 C 172.277 115.543 169.096 111.983 166.798 107.273 C 164.501 102.565 163.355 96.897 163.355 90.269 C 163.355 83.759 164.531 78.149 166.885 73.44 C 169.24 68.73 172.452 65.155 176.521 62.713 C 180.59 60.272 185.096 59.051 190.038 59.051 Z M 355.778 92.799 L 355.778 120.441 L 345.751 120.441 L 345.751 60.272 L 355.778 60.272 L 355.778 84.95 L 362.231 84.95 L 378.712 60.272 L 389.089 60.272 L 370.69 88.176 L 390.746 120.441 L 379.148 120.441 L 362.231 92.799 L 355.778 92.799 Z M 440.181 90.357 C 440.181 99.891 438.219 107.477 434.294 113.116 C 430.371 118.755 424.717 121.574 417.335 121.574 C 409.951 121.574 404.298 118.798 400.374 113.246 C 396.45 107.696 394.488 100.094 394.488 90.444 C 394.488 80.91 396.45 73.295 400.374 67.597 C 404.298 61.899 409.951 59.051 417.335 59.051 C 424.717 59.051 430.371 61.856 434.294 67.466 C 438.219 73.076 440.181 80.707 440.181 90.357 Z M 429.805 90.357 C 429.805 82.452 428.815 76.579 426.84 72.742 C 424.863 68.905 421.694 66.987 417.335 66.987 C 412.974 66.987 409.805 68.905 407.83 72.742 C 405.854 76.579 404.865 82.48 404.865 90.444 C 404.865 98.291 405.868 104.134 407.873 107.971 C 409.879 111.808 413.032 113.726 417.335 113.726 C 421.694 113.726 424.863 111.808 426.84 107.971 C 428.815 104.134 429.805 98.262 429.805 90.357 Z M 491.621 103.088 C 491.621 109.309 489.412 113.756 484.994 116.429 C 480.577 119.103 474.966 120.441 468.165 120.441 L 450.55 120.441 L 450.55 60.272 L 467.032 60.272 C 473.426 60.272 478.687 61.45 482.814 63.803 C 486.943 66.158 489.005 70.069 489.005 75.532 C 489.005 79.02 487.945 81.884 485.823 84.123 C 483.701 86.359 481.041 87.828 477.844 88.525 C 481.797 89.224 485.081 90.691 487.697 92.929 C 490.314 95.167 491.621 98.553 491.621 103.088 Z M 478.716 76.317 C 478.716 73.353 477.8 71.202 475.969 69.865 C 474.137 68.527 471.449 67.858 467.903 67.858 L 460.666 67.858 L 460.666 85.211 L 468.514 85.211 C 471.944 85.211 474.501 84.5 476.187 83.075 C 477.874 81.651 478.716 79.399 478.716 76.317 Z M 481.071 103.088 C 481.071 99.309 480.024 96.649 477.931 95.109 C 475.838 93.569 472.931 92.799 469.21 92.799 L 460.666 92.799 L 460.666 112.593 L 468.862 112.593 C 477.002 112.593 481.071 109.424 481.071 103.088 Z" style="stroke: rgb(255, 255, 255); stroke-width: 0px;"/>
  <path d="M 184.137 148.908 C 185.126 148.908 185.968 149.031 186.666 149.279 C 187.363 149.527 188.031 149.911 188.671 150.434 L 187.363 152.005 C 186.448 151.263 185.409 150.892 184.246 150.892 C 183.025 150.892 182.03 151.36 181.259 152.299 C 180.488 153.235 180.104 154.707 180.104 156.712 C 180.104 158.69 180.483 160.146 181.238 161.084 C 181.992 162.02 183.004 162.491 184.268 162.491 C 184.995 162.491 185.616 162.378 186.132 162.152 C 186.648 161.927 187.16 161.61 187.668 161.204 L 188.889 162.752 C 187.668 163.942 186.099 164.539 184.181 164.539 C 182.887 164.539 181.731 164.236 180.714 163.634 C 179.698 163.031 178.901 162.14 178.327 160.964 C 177.752 159.786 177.466 158.37 177.466 156.712 C 177.466 155.086 177.761 153.683 178.349 152.506 C 178.937 151.328 179.741 150.434 180.758 149.824 C 181.775 149.213 182.902 148.908 184.137 148.908 Z M 198.102 159.329 L 193.786 159.329 L 193.786 164.255 L 191.344 164.255 L 191.344 152.745 L 193.786 152.745 L 193.786 157.433 L 198.102 157.433 L 198.102 152.745 L 200.543 152.745 L 200.543 164.255 L 198.102 164.255 L 198.102 159.329 Z M 209.038 152.44 C 210.696 152.44 211.973 152.982 212.874 154.064 C 213.776 155.147 214.226 156.618 214.226 158.478 C 214.226 160.339 213.769 161.814 212.854 162.904 C 211.938 163.994 210.658 164.539 209.016 164.539 C 207.359 164.539 206.076 164.005 205.168 162.936 C 204.261 161.869 203.807 160.39 203.807 158.5 C 203.807 156.668 204.267 155.201 205.191 154.096 C 206.114 152.993 207.396 152.44 209.038 152.44 Z M 209.038 154.337 C 208.152 154.337 207.487 154.677 207.044 155.361 C 206.601 156.044 206.379 157.091 206.379 158.5 C 206.379 159.924 206.596 160.975 207.033 161.65 C 207.469 162.327 208.13 162.665 209.016 162.665 C 209.902 162.665 210.564 162.323 211 161.639 C 211.436 160.955 211.654 159.903 211.654 158.478 C 211.654 157.069 211.436 156.026 211 155.35 C 210.564 154.674 209.91 154.337 209.038 154.337 Z M 224.451 157.977 C 226.399 158.195 227.371 159.148 227.371 160.833 C 227.371 161.981 226.895 162.839 225.945 163.405 C 224.993 163.972 223.783 164.255 222.314 164.255 L 217.714 164.255 L 217.714 152.876 C 219.24 152.585 220.65 152.44 221.944 152.44 C 223.427 152.44 224.607 152.705 225.487 153.235 C 226.366 153.766 226.805 154.511 226.805 155.47 C 226.805 156.11 226.616 156.636 226.239 157.05 C 225.86 157.464 225.265 157.773 224.451 157.977 Z M 221.944 154.183 C 221.319 154.183 220.724 154.227 220.156 154.315 L 220.156 157.367 L 222.183 157.367 C 222.896 157.367 223.437 157.239 223.808 156.985 C 224.179 156.732 224.363 156.32 224.363 155.754 C 224.363 155.201 224.167 154.802 223.775 154.554 C 223.383 154.308 222.772 154.183 221.944 154.183 Z M 222.053 162.468 C 222.911 162.468 223.59 162.348 224.092 162.108 C 224.593 161.869 224.843 161.408 224.843 160.724 C 224.843 159.533 224.008 158.936 222.337 158.936 L 220.156 158.936 L 220.156 162.468 L 222.053 162.468 Z M 239.376 161.443 C 239.376 161.879 239.441 162.203 239.572 162.414 C 239.704 162.624 239.929 162.781 240.247 162.882 L 239.682 164.539 C 238.475 164.394 237.683 163.863 237.305 162.947 C 236.884 163.471 236.357 163.866 235.724 164.136 C 235.092 164.405 234.398 164.539 233.643 164.539 C 232.48 164.539 231.558 164.211 230.874 163.558 C 230.19 162.904 229.85 162.04 229.85 160.964 C 229.85 159.757 230.326 158.827 231.277 158.173 C 232.229 157.52 233.577 157.193 235.321 157.193 L 236.956 157.193 L 236.956 156.451 C 236.956 155.724 236.739 155.194 236.302 154.86 C 235.866 154.525 235.233 154.358 234.406 154.358 C 234 154.358 233.526 154.409 232.988 154.511 C 232.452 154.612 231.906 154.758 231.354 154.948 L 230.744 153.225 C 232.124 152.701 233.469 152.44 234.777 152.44 C 236.302 152.44 237.45 152.774 238.22 153.443 C 238.991 154.111 239.376 155.064 239.376 156.299 L 239.376 161.443 Z M 234.362 162.752 C 234.872 162.752 235.362 162.621 235.834 162.358 C 236.306 162.097 236.681 161.734 236.956 161.269 L 236.956 158.719 L 235.604 158.719 C 234.501 158.719 233.695 158.903 233.185 159.274 C 232.676 159.645 232.423 160.179 232.423 160.877 C 232.423 161.487 232.585 161.953 232.912 162.271 C 233.239 162.591 233.723 162.752 234.362 162.752 Z M 263.501 154.641 L 259.141 154.641 L 259.141 164.255 L 256.721 164.255 L 256.721 152.745 L 265.92 152.745 L 265.92 164.255 L 263.501 164.255 L 263.501 154.641 Z M 274.414 152.44 C 276.071 152.44 277.35 152.982 278.251 154.064 C 279.153 155.147 279.602 156.618 279.602 158.478 C 279.602 160.339 279.144 161.814 278.23 162.904 C 277.314 163.994 276.036 164.539 274.392 164.539 C 272.736 164.539 271.452 164.005 270.545 162.936 C 269.636 161.869 269.183 160.39 269.183 158.5 C 269.183 156.668 269.644 155.201 270.567 154.096 C 271.49 152.993 272.771 152.44 274.414 152.44 Z M 274.414 154.337 C 273.529 154.337 272.863 154.677 272.42 155.361 C 271.976 156.044 271.755 157.091 271.755 158.5 C 271.755 159.924 271.973 160.975 272.409 161.65 C 272.845 162.327 273.507 162.665 274.392 162.665 C 275.279 162.665 275.94 162.323 276.376 161.639 C 276.812 160.955 277.03 159.903 277.03 158.478 C 277.03 157.069 276.812 156.026 276.376 155.35 C 275.94 154.674 275.287 154.337 274.414 154.337 Z M 283.527 156.429 L 291.418 156.429 L 291.418 158.435 L 283.527 158.435 L 283.527 156.429 Z M 302.703 159.329 L 298.386 159.329 L 298.386 164.255 L 295.945 164.255 L 295.945 152.745 L 298.386 152.745 L 298.386 157.433 L 302.703 157.433 L 302.703 152.745 L 305.145 152.745 L 305.145 164.255 L 302.703 164.255 L 302.703 159.329 Z M 317.832 161.443 C 317.832 161.879 317.898 162.203 318.029 162.414 C 318.16 162.624 318.385 162.781 318.704 162.882 L 318.138 164.539 C 316.931 164.394 316.139 163.863 315.761 162.947 C 315.34 163.471 314.812 163.866 314.18 164.136 C 313.549 164.405 312.854 164.539 312.099 164.539 C 310.937 164.539 310.014 164.211 309.33 163.558 C 308.646 162.904 308.306 162.04 308.306 160.964 C 308.306 159.757 308.782 158.827 309.734 158.173 C 310.686 157.52 312.033 157.193 313.777 157.193 L 315.413 157.193 L 315.413 156.451 C 315.413 155.724 315.195 155.194 314.759 154.86 C 314.323 154.525 313.69 154.358 312.862 154.358 C 312.456 154.358 311.982 154.409 311.444 154.511 C 310.908 154.612 310.362 154.758 309.811 154.948 L 309.2 153.225 C 310.582 152.701 311.925 152.44 313.233 152.44 C 314.759 152.44 315.907 152.774 316.677 153.443 C 317.448 154.111 317.832 155.064 317.832 156.299 L 317.832 161.443 Z M 312.818 162.752 C 313.328 162.752 313.818 162.621 314.29 162.358 C 314.762 162.097 315.138 161.734 315.413 161.269 L 315.413 158.719 L 314.06 158.719 C 312.957 158.719 312.151 158.903 311.641 159.274 C 311.132 159.645 310.879 160.179 310.879 160.877 C 310.879 161.487 311.042 161.953 311.369 162.271 C 311.695 162.591 312.179 162.752 312.818 162.752 Z M 327.656 162.534 C 328.572 162.534 329.517 162.207 330.491 161.552 L 331.602 163.122 C 331.093 163.558 330.483 163.904 329.772 164.157 C 329.059 164.411 328.325 164.539 327.569 164.539 C 325.811 164.539 324.438 163.998 323.449 162.915 C 322.46 161.833 321.967 160.382 321.967 158.565 C 321.967 157.388 322.193 156.339 322.642 155.416 C 323.093 154.492 323.744 153.766 324.594 153.235 C 325.444 152.705 326.45 152.44 327.613 152.44 C 329.14 152.44 330.469 152.906 331.602 153.835 L 330.469 155.361 C 329.54 154.721 328.602 154.402 327.656 154.402 C 326.698 154.402 325.942 154.747 325.389 155.437 C 324.837 156.128 324.561 157.17 324.561 158.565 C 324.561 159.932 324.837 160.935 325.389 161.574 C 325.942 162.214 326.698 162.534 327.656 162.534 Z M 344.913 154.641 L 340.99 154.641 L 340.99 164.255 L 338.548 164.255 L 338.548 154.641 L 334.471 154.641 L 334.471 152.745 L 345.197 152.745 L 344.913 154.641 Z M 352.87 152.44 C 354.528 152.44 355.806 152.982 356.707 154.064 C 357.609 155.147 358.058 156.618 358.058 158.478 C 358.058 160.339 357.601 161.814 356.686 162.904 C 355.77 163.994 354.492 164.539 352.85 164.539 C 351.192 164.539 349.908 164.005 349.001 162.936 C 348.093 161.869 347.639 160.39 347.639 158.5 C 347.639 156.668 348.1 155.201 349.023 154.096 C 349.947 152.993 351.228 152.44 352.87 152.44 Z M 352.87 154.337 C 351.985 154.337 351.319 154.677 350.876 155.361 C 350.433 156.044 350.211 157.091 350.211 158.5 C 350.211 159.924 350.429 160.975 350.866 161.65 C 351.301 162.327 351.963 162.665 352.85 162.665 C 353.735 162.665 354.396 162.323 354.832 161.639 C 355.269 160.955 355.486 159.903 355.486 158.478 C 355.486 157.069 355.269 156.026 354.832 155.35 C 354.396 154.674 353.743 154.337 352.87 154.337 Z M 370.302 152.745 L 370.302 164.255 L 367.862 164.255 L 367.862 159.962 L 365.268 159.962 L 362.935 164.255 L 360.254 164.255 L 363.023 159.416 C 362.368 159.11 361.87 158.7 361.529 158.184 C 361.188 157.669 361.016 157.062 361.016 156.364 C 361.016 155.216 361.442 154.326 362.291 153.693 C 363.142 153.061 364.359 152.745 365.943 152.745 L 370.302 152.745 Z M 367.862 158.261 L 367.862 154.467 L 365.9 154.467 C 365.114 154.467 364.53 154.62 364.145 154.925 C 363.76 155.23 363.567 155.696 363.567 156.32 C 363.567 156.989 363.752 157.479 364.123 157.791 C 364.493 158.104 365.079 158.261 365.878 158.261 L 367.862 158.261 Z M 386.065 162.358 L 386.065 167.679 L 384.124 167.679 L 383.775 164.255 L 373.334 164.255 L 373.334 152.745 L 375.513 152.745 L 375.513 162.337 L 377.998 162.337 L 377.998 152.745 L 380.004 152.745 L 380.004 162.337 L 382.489 162.337 L 382.489 152.745 L 384.669 152.745 L 384.669 162.358 L 386.065 162.358 Z M 389.501 159.285 C 389.574 160.405 389.896 161.244 390.471 161.803 C 391.046 162.362 391.768 162.642 392.641 162.642 C 393.178 162.642 393.69 162.559 394.177 162.391 C 394.665 162.224 395.162 161.974 395.671 161.639 L 396.717 163.122 C 396.18 163.572 395.548 163.921 394.821 164.168 C 394.094 164.415 393.331 164.539 392.531 164.539 C 390.773 164.539 389.406 163.991 388.433 162.892 C 387.46 161.795 386.972 160.332 386.972 158.5 C 386.972 157.352 387.183 156.317 387.605 155.393 C 388.026 154.471 388.638 153.748 389.436 153.225 C 390.235 152.701 391.166 152.44 392.226 152.44 C 393.752 152.44 394.962 152.951 395.856 153.976 C 396.749 155.002 397.197 156.407 397.197 158.195 C 397.197 158.631 397.175 158.994 397.132 159.285 L 389.501 159.285 Z M 392.248 154.25 C 391.464 154.25 390.824 154.533 390.329 155.099 C 389.836 155.667 389.552 156.509 389.48 157.628 L 394.821 157.628 C 394.791 156.538 394.558 155.703 394.123 155.122 C 393.687 154.541 393.062 154.25 392.248 154.25 Z M 410.944 164.255 L 408.698 164.255 L 408.35 159.285 C 408.306 158.413 408.284 157.52 408.284 156.604 C 408.284 155.936 408.292 155.419 408.306 155.055 L 408.219 155.055 L 406.213 162.358 L 404.142 162.358 L 401.919 155.055 L 401.832 155.055 C 401.862 155.419 401.875 155.98 401.875 156.735 C 401.875 157.621 401.853 158.478 401.81 159.307 L 401.57 164.255 L 399.346 164.255 L 400.152 152.745 L 403.052 152.745 L 405.21 160.31 L 407.151 152.745 L 410.115 152.745 L 410.944 164.255 Z M 419.729 164.299 C 419.264 165.695 418.592 166.788 417.713 167.579 C 416.833 168.373 415.623 168.834 414.083 168.964 L 413.778 167.134 C 414.533 167.017 415.144 166.838 415.609 166.599 C 416.074 166.359 416.445 166.057 416.721 165.695 C 416.997 165.331 417.244 164.851 417.462 164.255 L 416.634 164.255 L 412.754 152.745 L 415.348 152.745 L 418.247 162.555 L 421.191 152.745 L 423.697 152.745 L 419.729 164.299 Z M 449.523 154.641 L 445.599 154.641 L 445.599 164.255 L 443.157 164.255 L 443.157 154.641 L 439.08 154.641 L 439.08 152.745 L 449.806 152.745 L 449.523 154.641 Z M 459.805 157.977 C 461.752 158.195 462.725 159.148 462.725 160.833 C 462.725 161.981 462.249 162.839 461.299 163.405 C 460.347 163.972 459.137 164.255 457.668 164.255 L 453.068 164.255 L 453.068 152.876 C 454.594 152.585 456.004 152.44 457.298 152.44 C 458.78 152.44 459.96 152.705 460.84 153.235 C 461.719 153.766 462.158 154.511 462.158 155.47 C 462.158 156.11 461.97 156.636 461.593 157.05 C 461.214 157.464 460.618 157.773 459.805 157.977 Z M 457.298 154.183 C 456.672 154.183 456.077 154.227 455.51 154.315 L 455.51 157.367 L 457.537 157.367 C 458.249 157.367 458.791 157.239 459.161 156.985 C 459.532 156.732 459.717 156.32 459.717 155.754 C 459.717 155.201 459.521 154.802 459.128 154.554 C 458.737 154.308 458.125 154.183 457.298 154.183 Z M 457.407 162.468 C 458.264 162.468 458.944 162.348 459.445 162.108 C 459.946 161.869 460.196 161.408 460.196 160.724 C 460.196 159.533 459.361 158.936 457.689 158.936 L 455.51 158.936 L 455.51 162.468 L 457.407 162.468 Z M 470.542 152.44 C 472.2 152.44 473.478 152.982 474.38 154.064 C 475.281 155.147 475.732 156.618 475.732 158.478 C 475.732 160.339 475.274 161.814 474.358 162.904 C 473.442 163.994 472.164 164.539 470.522 164.539 C 468.864 164.539 467.582 164.005 466.673 162.936 C 465.765 161.869 465.311 160.39 465.311 158.5 C 465.311 156.668 465.772 155.201 466.696 154.096 C 467.618 152.993 468.9 152.44 470.542 152.44 Z M 470.542 154.337 C 469.657 154.337 468.992 154.677 468.548 155.361 C 468.105 156.044 467.883 157.091 467.883 158.5 C 467.883 159.924 468.102 160.975 468.538 161.65 C 468.974 162.327 469.635 162.665 470.522 162.665 C 471.407 162.665 472.068 162.323 472.506 161.639 C 472.941 160.955 473.159 159.903 473.159 158.478 C 473.159 157.069 472.941 156.026 472.506 155.35 C 472.068 154.674 471.415 154.337 470.542 154.337 Z M 488.2 164.255 L 485.847 164.255 L 485.847 159.525 C 485.847 158.609 485.883 157.748 485.955 156.942 C 486.028 156.135 486.1 155.565 486.174 155.23 L 481.727 164.255 L 479.001 164.255 L 479.001 152.745 L 481.356 152.745 L 481.356 157.497 C 481.356 158.339 481.323 159.177 481.258 160.005 C 481.192 160.833 481.115 161.408 481.028 161.726 L 485.433 152.745 L 488.2 152.745 L 488.2 164.255 Z M 483.557 150.434 C 482.598 150.434 481.814 150.176 481.203 149.66 C 480.593 149.144 480.243 148.472 480.156 147.643 L 481.64 147.339 C 481.914 148.224 482.554 148.668 483.557 148.668 C 484.619 148.668 485.272 148.224 485.52 147.339 L 487.023 147.643 C 486.936 148.472 486.58 149.144 485.955 149.66 C 485.331 150.176 484.532 150.434 483.557 150.434 Z" style="stroke: rgb(255, 255, 255); vector-effect: non-scaling-stroke; stroke-width: 0px;"/>
  <g id="Logo" transform="matrix(0.212914, 0, 0, 0.231045, 276.831024, 85.15506)" style="">
    <linearGradient id="SVGID_SVGID_1__1" gradientUnits="userSpaceOnUse" gradientTransform="matrix(1 0 0 1 0 0)" x1="134.6856" y1="578.1185" x2="481.5801" y2="113.0678">
      <stop offset="0" style="stop-color:#11156D;stop-opacity: 1"/>
      <stop offset="1" style="stop-color:#48569E;stop-opacity: 1"/>
    </linearGradient>
    <path style="stroke-dasharray: none; stroke-linecap: butt; stroke-dashoffset: 0; stroke-linejoin: miter; stroke-miterlimit: 4; fill: url('#SVGID_SVGID_1__1'); fill-rule: nonzero; opacity: 1; filter: url('#SVGID_437'); paint-order: fill; stroke: rgb(255, 255, 255); stroke-width: 0px;" transform=" translate(-256.03, -256.02)" d="M 486.2 405.6 L 298.8 81 c -19.9 -30.2 -43.9 -97.7 -78.7 -35.2 L 4.8 418.7 c -13.6 23.6 3.7 73.2 30.6 73.2 L 220 172 l 0 0 c 33.6 -62.5 58.1 1.4 78.8 35.4 l 127.8 221.4 h -25.5 c -25.5 0 -38.4 -6 -51.1 -18.8 l -60.2 -60.2 c -22.7 -22.7 -34.6 -25.8 -50.4 -25.8 h -20.2 c -31.1 0 -37.3 45.4 -56.1 63.1 h 43.7 c 28.7 0 38.2 7.2 56.8 25.8 l 58.7 58.7 c 17.2 17.2 33.7 20.3 63 20.3 H 512 C 512 466.2 512 448.5 486.2 405.6 z" stroke-linecap="round"/>
  </g>
</svg>